{
.appVersion = "1342";
classes = (
{

glyphs = (
{
color = 0;
glyphname = .notdef;
lastChange = "2021-04-19 21:32:36 +0000";
layers = (
{
layerId = "D7866281-830A-4E76-BB32-392A4BC3306E";
paths = (
{
closed = 1;
nodes = (
"379 0 LINE",
"379 650 LINE",
"50 650 LINE",
"50 0 LINE"
);
},
{
closed = 1;
nodes = (
"212 287 LINE",
"309 64 LINE",
"115 64 LINE"
);
},
{
closed = 1;
nodes = (
"104 534 LINE",
"193 330 LINE",
"104 129 LINE"
);
},
{
closed = 1;
nodes = (
"231 330 LINE",
"321 537 LINE",
"321 127 LINE"
);
},
{
closed = 1;
nodes = (
"119 584 LINE",
"305 584 LINE",
"212 374 LINE"
);
}
);
width = 429;
}
);
},
{
color = 0;
glyphname = A;
lastChange = "2021-04-19 21:32:36 +0000";
layers = (
{
layerId = "D7866281-830A-4E76-BB32-392A4BC3306E";
paths = (
{
closed = 1;
nodes = (
"417 2 OFFCURVE",
"417 3 OFFCURVE",
"417 5 CURVE",
"417 43 OFFCURVE",
"582 318 OFFCURVE",
"610 363 CURVE",
"626 388 OFFCURVE",
"643 419 OFFCURVE",
"643 450 CURVE",
"643 491 OFFCURVE",
"610 509 OFFCURVE",
"573 509 CURVE",
"538 509 OFFCURVE",
"504 496 OFFCURVE",
"476 477 CURVE",
"399 425 OFFCURVE",
"330 356 OFFCURVE",
"265 290 CURVE",
"186 291 OFFCURVE",
"53 278 OFFCURVE",
"25 188 CURVE",
"23 182 OFFCURVE",
"22 175 OFFCURVE",
"22 168 CURVE",
"22 145 OFFCURVE",
"39 112 OFFCURVE",
"64 112 CURVE",
"66 112 OFFCURVE",
"70 112 OFFCURVE",
"70 114 CURVE",
"70 120 OFFCURVE",
"55 126 OFFCURVE",
"55 145 CURVE",
"55 154 OFFCURVE",
"58 163 OFFCURVE",
"63 170 CURVE",
"91 213 OFFCURVE",
"165 229 OFFCURVE",
"213 235 CURVE",
"188 209 OFFCURVE",
"6 8 OFFCURVE",
"6 -20 CURVE",
"6 -22 OFFCURVE",
"7 -24 OFFCURVE",
"10 -24 CURVE",
"16 -24 OFFCURVE",
"22 -17 OFFCURVE",
"26 -13 CURVE",
"50 14 OFFCURVE",
"72 44 OFFCURVE",
"95 71 CURVE",
"142 128 OFFCURVE",
"191 184 OFFCURVE",
"242 238 CURVE",
"263 240 OFFCURVE",
"285 242 OFFCURVE",
"306 242 CURVE",
"336 242 OFFCURVE",
"426 233 OFFCURVE",
"444 207 CURVE",
"421 168 OFFCURVE",
"362 73 OFFCURVE",
"362 33 CURVE",
"362 10 OFFCURVE",
"365 -6 OFFCURVE",
"390 -6 CURVE",
"399 -6 OFFCURVE",
"410 -4 OFFCURVE",
"418 0 CURVE"
);
},
{
closed = 1;
nodes = (
"574 422 OFFCURVE",
"475 260 OFFCURVE",
"452 220 CURVE",
"443 274 OFFCURVE",
"332 286 OFFCURVE",
"290 289 CURVE",
"349 350 OFFCURVE",
"412 412 OFFCURVE",
"482 461 CURVE",
"499 473 OFFCURVE",
"528 486 OFFCURVE",
"549 486 CURVE",
"562 486 OFFCURVE",
"586 483 OFFCURVE",
"580 456 CURVE"
);
}
);
width = 525;
}
);
unicode = 0041;
},
{
color = 0;
glyphname = Abreve;
lastChange = "2021-04-19 21:32:36 +0000";
layers = (
{
hints = (
{
horizontal = 1;
place = "{486, 23}";
type = Stem;
},
{
place = "{22, 32}";
type = Stem;
},
{
place = "{362, 55}";
type = Stem;
},
{
place = "{581, 62}";
type = Stem;
},
{
horizontal = 1;
place = "{562, 31}";
type = Stem;
},
{
place = "{552, 33}";
type = Stem;
}
);
layerId = "D7866281-830A-4E76-BB32-392A4BC3306E";
paths = (
{
closed = 1;
nodes = (
"417 2 OFFCURVE",
"417 3 OFFCURVE",
"417 5 CURVE SMOOTH",
"417 43 OFFCURVE",
"582 318 OFFCURVE",
"610 363 CURVE SMOOTH",
"626 388 OFFCURVE",
"643 419 OFFCURVE",
"643 450 CURVE SMOOTH",
"643 491 OFFCURVE",
"610 509 OFFCURVE",
"573 509 CURVE SMOOTH",
"538 509 OFFCURVE",
"504 496 OFFCURVE",
"476 477 CURVE SMOOTH",
"399 425 OFFCURVE",
"330 356 OFFCURVE",
"265 290 CURVE",
"186 291 OFFCURVE",
"53 278 OFFCURVE",
"25 188 CURVE SMOOTH",
"23 182 OFFCURVE",
"22 175 OFFCURVE",
"22 168 CURVE SMOOTH",
"22 145 OFFCURVE",
"39 112 OFFCURVE",
"64 112 CURVE SMOOTH",
"66 112 OFFCURVE",
"70 112 OFFCURVE",
"70 114 CURVE SMOOTH",
"70 120 OFFCURVE",
"55 126 OFFCURVE",
"55 145 CURVE SMOOTH",
"55 154 OFFCURVE",
"58 163 OFFCURVE",
"63 170 CURVE SMOOTH",
"91 213 OFFCURVE",
"165 229 OFFCURVE",
"213 235 CURVE",
"188 209 OFFCURVE",
"6 8 OFFCURVE",
"6 -20 CURVE SMOOTH",
"6 -22 OFFCURVE",
"7 -24 OFFCURVE",
"10 -24 CURVE SMOOTH",
"16 -24 OFFCURVE",
"22 -17 OFFCURVE",
"26 -13 CURVE SMOOTH",
"50 14 OFFCURVE",
"72 44 OFFCURVE",
"95 71 CURVE SMOOTH",
"142 128 OFFCURVE",
"191 184 OFFCURVE",
"242 238 CURVE",
"263 240 OFFCURVE",
"285 242 OFFCURVE",
"306 242 CURVE SMOOTH",
"336 242 OFFCURVE",
"426 233 OFFCURVE",
"444 207 CURVE",
"421 168 OFFCURVE",
"362 73 OFFCURVE",
"362 33 CURVE SMOOTH",
"362 10 OFFCURVE",
"365 -6 OFFCURVE",
"390 -6 CURVE SMOOTH",
"399 -6 OFFCURVE",
"410 -4 OFFCURVE",
"418 0 CURVE"
);
},
{
closed = 1;
nodes = (
"574 422 OFFCURVE",
"475 260 OFFCURVE",
"452 220 CURVE",
"443 274 OFFCURVE",
"332 286 OFFCURVE",
"290 289 CURVE",
"349 350 OFFCURVE",
"412 412 OFFCURVE",
"482 461 CURVE SMOOTH",
"499 473 OFFCURVE",
"528 486 OFFCURVE",
"549 486 CURVE SMOOTH",
"562 486 OFFCURVE",
"586 483 OFFCURVE",
"580 456 CURVE SMOOTH"
);
},
{
closed = 1;
nodes = (
"756 624 OFFCURVE",
"748 629 OFFCURVE",
"738 623 CURVE SMOOTH",
"704 602 OFFCURVE",
"588 563 OFFCURVE",
"585 630 CURVE SMOOTH",
"584 639 OFFCURVE",
"551 613 OFFCURVE",
"552 604 CURVE SMOOTH",
"555 521 OFFCURVE",
"698 579 OFFCURVE",
"747 617 CURVE SMOOTH"
);
}
);
width = 525;
}
);
note = Abreve;
unicode = 0102;
},
{
color = 0;
glyphname = Amacron;
lastChange = "2021-04-19 21:32:36 +0000";
layers = (
{
hints = (
{
horizontal = 1;
place = "{486, 23}";
type = Stem;
},
{
place = "{22, 32}";
type = Stem;
},
{
place = "{362, 55}";
type = Stem;
},
{
place = "{581, 62}";
type = Stem;
},
{
horizontal = 1;
place = "{573, 31}";
type = Stem;
},
{
place = "{542, 184}";
type = Stem;
}
);
layerId = "D7866281-830A-4E76-BB32-392A4BC3306E";
paths = (
{
closed = 1;
nodes = (
"417 2 OFFCURVE",
"417 3 OFFCURVE",
"417 5 CURVE SMOOTH",
"417 43 OFFCURVE",
"582 318 OFFCURVE",
"610 363 CURVE SMOOTH",
"626 388 OFFCURVE",
"643 419 OFFCURVE",
"643 450 CURVE SMOOTH",
"643 491 OFFCURVE",
"610 509 OFFCURVE",
"573 509 CURVE SMOOTH",
"538 509 OFFCURVE",
"504 496 OFFCURVE",
"476 477 CURVE SMOOTH",
"399 425 OFFCURVE",
"330 356 OFFCURVE",
"265 290 CURVE",
"186 291 OFFCURVE",
"53 278 OFFCURVE",
"25 188 CURVE SMOOTH",
"23 182 OFFCURVE",
"22 175 OFFCURVE",
"22 168 CURVE SMOOTH",
"22 145 OFFCURVE",
"39 112 OFFCURVE",
"64 112 CURVE SMOOTH",
"66 112 OFFCURVE",
"70 112 OFFCURVE",
"70 114 CURVE SMOOTH",
"70 120 OFFCURVE",
"55 126 OFFCURVE",
"55 145 CURVE SMOOTH",
"55 154 OFFCURVE",
"58 163 OFFCURVE",
"63 170 CURVE SMOOTH",
"91 213 OFFCURVE",
"165 229 OFFCURVE",
"213 235 CURVE",
"188 209 OFFCURVE",
"6 8 OFFCURVE",
"6 -20 CURVE SMOOTH",
"6 -22 OFFCURVE",
"7 -24 OFFCURVE",
"10 -24 CURVE SMOOTH",
"16 -24 OFFCURVE",
"22 -17 OFFCURVE",
"26 -13 CURVE SMOOTH",
"50 14 OFFCURVE",
"72 44 OFFCURVE",
"95 71 CURVE SMOOTH",
"142 128 OFFCURVE",
"191 184 OFFCURVE",
"242 238 CURVE",
"263 240 OFFCURVE",
"285 242 OFFCURVE",
"306 242 CURVE SMOOTH",
"336 242 OFFCURVE",
"426 233 OFFCURVE",
"444 207 CURVE",
"421 168 OFFCURVE",
"362 73 OFFCURVE",
"362 33 CURVE SMOOTH",
"362 10 OFFCURVE",
"365 -6 OFFCURVE",
"390 -6 CURVE SMOOTH",
"399 -6 OFFCURVE",
"410 -4 OFFCURVE",
"418 0 CURVE"
);
},
{
closed = 1;
nodes = (
"574 422 OFFCURVE",
"475 260 OFFCURVE",
"452 220 CURVE",
"443 274 OFFCURVE",
"332 286 OFFCURVE",
"290 289 CURVE",
"349 350 OFFCURVE",
"412 412 OFFCURVE",
"482 461 CURVE SMOOTH",
"499 473 OFFCURVE",
"528 486 OFFCURVE",
"549 486 CURVE SMOOTH",
"562 486 OFFCURVE",
"586 483 OFFCURVE",
"580 456 CURVE SMOOTH"
);
},
{
closed = 1;
nodes = (
"678 604 LINE",
"559 603 LINE SMOOTH",
"551 603 OFFCURVE",
"542 594 OFFCURVE",
"542 586 CURVE SMOOTH",
"542 574 OFFCURVE",
"556 573 OFFCURVE",
"565 573 CURVE SMOOTH",
"589 573 OFFCURVE",
"726 581 OFFCURVE",
"726 601 CURVE SMOOTH",
"726 604 OFFCURVE",
"721 604 OFFCURVE",
"720 604 CURVE SMOOTH"
);
}
);
width = 525;
}
);
note = Amacron;
unicode = 0100;
},
{
color = 0;
glyphname = Aogonek;
lastChange = "2021-04-19 21:32:36 +0000";
layers = (
{
hints = (
{
horizontal = 1;
place = "{486, 23}";
type = Stem;
},
{
place = "{22, 32}";
type = Stem;
},
{
place = "{362, 55}";
type = Stem;
},
{
place = "{581, 62}";
type = Stem;
},
{
horizontal = 1;
place = "{3, 24}";
type = Stem;
},
{
place = "{109, 44}";
type = Stem;
},
{
place = "{279, 55}";
type = Stem;
}
);
layerId = "D7866281-830A-4E76-BB32-392A4BC3306E";
paths = (
{
closed = 1;
nodes = (
"417 2 OFFCURVE",
"417 3 OFFCURVE",
"417 5 CURVE SMOOTH",
"417 43 OFFCURVE",
"582 318 OFFCURVE",
"610 363 CURVE SMOOTH",
"626 388 OFFCURVE",
"643 419 OFFCURVE",
"643 450 CURVE SMOOTH",
"643 491 OFFCURVE",
"610 509 OFFCURVE",
"573 509 CURVE SMOOTH",
"538 509 OFFCURVE",
"504 496 OFFCURVE",
"476 477 CURVE SMOOTH",
"399 425 OFFCURVE",
"330 356 OFFCURVE",
"265 290 CURVE",
"186 291 OFFCURVE",
"53 278 OFFCURVE",
"25 188 CURVE SMOOTH",
"23 182 OFFCURVE",
"22 175 OFFCURVE",
"22 168 CURVE SMOOTH",
"22 145 OFFCURVE",
"39 112 OFFCURVE",
"64 112 CURVE SMOOTH",
"66 112 OFFCURVE",
"70 112 OFFCURVE",
"70 114 CURVE SMOOTH",
"70 120 OFFCURVE",
"55 126 OFFCURVE",
"55 145 CURVE SMOOTH",
"55 154 OFFCURVE",
"58 163 OFFCURVE",
"63 170 CURVE SMOOTH",
"91 213 OFFCURVE",
"165 229 OFFCURVE",
"213 235 CURVE",
"188 209 OFFCURVE",
"6 8 OFFCURVE",
"6 -20 CURVE SMOOTH",
"6 -22 OFFCURVE",
"7 -24 OFFCURVE",
"10 -24 CURVE SMOOTH",
"16 -24 OFFCURVE",
"22 -17 OFFCURVE",
"26 -13 CURVE SMOOTH",
"50 14 OFFCURVE",
"72 44 OFFCURVE",
"95 71 CURVE SMOOTH",
"142 128 OFFCURVE",
"191 184 OFFCURVE",
"242 238 CURVE",
"263 240 OFFCURVE",
"285 242 OFFCURVE",
"306 242 CURVE SMOOTH",
"336 242 OFFCURVE",
"426 233 OFFCURVE",
"444 207 CURVE",
"421 168 OFFCURVE",
"362 73 OFFCURVE",
"362 33 CURVE SMOOTH",
"362 10 OFFCURVE",
"365 -6 OFFCURVE",
"390 -6 CURVE SMOOTH",
"399 -6 OFFCURVE",
"410 -4 OFFCURVE",
"418 0 CURVE"
);
},
{
closed = 1;
nodes = (
"574 422 OFFCURVE",
"475 260 OFFCURVE",
"452 220 CURVE",
"443 274 OFFCURVE",
"332 286 OFFCURVE",
"290 289 CURVE",
"349 350 OFFCURVE",
"412 412 OFFCURVE",
"482 461 CURVE SMOOTH",
"499 473 OFFCURVE",
"528 486 OFFCURVE",
"549 486 CURVE SMOOTH",
"562 486 OFFCURVE",
"586 483 OFFCURVE",
"580 456 CURVE SMOOTH"
);
},
{
closed = 1;
nodes = (
"384 -131 OFFCURVE",
"354 -159 OFFCURVE",
"341 -168 CURVE SMOOTH",
"302 -195 OFFCURVE",
"276 -160 OFFCURVE",
"299 -115 CURVE SMOOTH",
"320 -75 OFFCURVE",
"347 -39 OFFCURVE",
"390 -6 CURVE SMOOTH",
"421 18 OFFCURVE",
"393 15 OFFCURVE",
"384 10 CURVE SMOOTH",
"323 -24 OFFCURVE",
"251 -98 OFFCURVE",
"254 -151 CURVE SMOOTH",
"257 -204 OFFCURVE",
"318 -204 OFFCURVE",
"346 -183 CURVE SMOOTH",
"374 -162 OFFCURVE",
"393 -133 OFFCURVE",
"398 -125 CURVE SMOOTH",
"404 -115 OFFCURVE",
"402 -105 OFFCURVE",
"393 -118 CURVE SMOOTH"
);
}
);
width = 525;
}
);
note = Aogonek;
unicode = 0104;
},
{
color = 0;
glyphname = AE;
lastChange = "2021-04-19 21:32:36 +0000";
layers = (
{
layerId = "D7866281-830A-4E76-BB32-392A4BC3306E";
paths = (
{
closed = 1;
nodes = (
"853 483 OFFCURVE",
"851 483 OFFCURVE",
"849 483 CURVE",
"774 483 OFFCURVE",
"699 484 OFFCURVE",
"624 484 CURVE",
"609 492 OFFCURVE",
"589 508 OFFCURVE",
"572 508 CURVE",
"563 508 OFFCURVE",
"558 499 OFFCURVE",
"553 492 CURVE",
"542 504 OFFCURVE",
"525 509 OFFCURVE",
"510 509 CURVE",
"387 509 OFFCURVE",
"229 325 OFFCURVE",
"151 240 CURVE",
"116 240 OFFCURVE",
"81 240 OFFCURVE",
"45 236 CURVE",
"19 197 LINE",
"52 202 OFFCURVE",
"87 203 OFFCURVE",
"121 207 CURVE",
"93 176 OFFCURVE",
"-57 6 OFFCURVE",
"-57 -30 CURVE",
"-57 -44 OFFCURVE",
"-43 -65 OFFCURVE",
"-35 -76 CURVE",
"-34 -17 OFFCURVE",
"103 162 OFFCURVE",
"143 209 CURVE",
"152 209 OFFCURVE",
"161 210 OFFCURVE",
"170 210 CURVE",
"215 210 OFFCURVE",
"298 200 OFFCURVE",
"339 180 CURVE",
"318 144 OFFCURVE",
"274 73 OFFCURVE",
"274 33 CURVE",
"274 10 OFFCURVE",
"286 -6 OFFCURVE",
"309 -6 CURVE",
"317 -6 OFFCURVE",
"324 -4 OFFCURVE",
"331 -2 CURVE",
"355 -21 OFFCURVE",
"390 -23 OFFCURVE",
"419 -23 CURVE",
"423 -23 LINE",
"490 -22 OFFCURVE",
"560 -14 OFFCURVE",
"627 -1 CURVE",
"636 1 OFFCURVE",
"649 3 OFFCURVE",
"658 7 CURVE",
"678 16 OFFCURVE",
"693 44 OFFCURVE",
"701 64 CURVE",
"629 35 OFFCURVE",
"520 -3 OFFCURVE",
"443 -3 CURVE",
"403 -3 OFFCURVE",
"361 9 OFFCURVE",
"361 57 CURVE",
"361 74 OFFCURVE",
"365 96 OFFCURVE",
"373 111 CURVE",
"388 137 OFFCURVE",
"403 164 OFFCURVE",
"418 190 CURVE",
"424 201 OFFCURVE",
"430 216 OFFCURVE",
"438 225 CURVE",
"446 235 OFFCURVE",
"465 242 OFFCURVE",
"477 243 CURVE",
"506 247 OFFCURVE",
"536 249 OFFCURVE",
"566 252 CURVE",
"614 256 OFFCURVE",
"663 260 OFFCURVE",
"712 260 CURVE",
"716 263 OFFCURVE",
"734 278 OFFCURVE",
"734 282 CURVE",
"734 284 OFFCURVE",
"732 284 OFFCURVE",
"731 284 CURVE",
"645 284 OFFCURVE",
"558 283 OFFCURVE",
"472 283 CURVE",
"479 296 LINE",
"509 347 OFFCURVE",
"546 416 OFFCURVE",
"606 434 CURVE",
"632 442 OFFCURVE",
"662 443 OFFCURVE",
"689 443 CURVE",
"724 443 OFFCURVE",
"760 437 OFFCURVE",
"795 437 CURVE",
"808 437 OFFCURVE",
"853 467 OFFCURVE",
"853 481 CURVE"
);
},
{
closed = 1;
nodes = (
"490 457 OFFCURVE",
"486 446 OFFCURVE",
"482 436 CURVE",
"470 409 OFFCURVE",
"455 382 OFFCURVE",
"441 356 CURVE",
"410 300 OFFCURVE",
"377 245 OFFCURVE",
"345 189 CURVE",
"302 222 OFFCURVE",
"224 237 OFFCURVE",
"171 240 CURVE",
"223 298 OFFCURVE",
"400 487 OFFCURVE",
"474 487 CURVE",
"486 487 OFFCURVE",
"490 478 OFFCURVE",
"490 468 CURVE"
);
}
);
width = 707;
}
);
unicode = 00C6;
},
{
color = 0;
glyphname = B;
lastChange = "2021-04-19 21:32:36 +0000";
layers = (
{
layerId = "D7866281-830A-4E76-BB32-392A4BC3306E";
paths = (
{
closed = 1;
nodes = (
"556 494 OFFCURVE",
"471 509 OFFCURVE",
"417 509 CURVE",
"351 509 OFFCURVE",
"285 493 OFFCURVE",
"221 477 CURVE",
"212 475 OFFCURVE",
"201 474 OFFCURVE",
"192 470 CURVE",
"178 464 OFFCURVE",
"171 451 OFFCURVE",
"171 436 CURVE",
"171 421 OFFCURVE",
"179 409 OFFCURVE",
"195 409 CURVE",
"200 409 OFFCURVE",
"206 411 OFFCURVE",
"211 412 CURVE",
"281 434 OFFCURVE",
"351 458 OFFCURVE",
"426 458 CURVE",
"453 458 OFFCURVE",
"510 454 OFFCURVE",
"510 416 CURVE",
"510 366 OFFCURVE",
"422 315 OFFCURVE",
"383 296 CURVE",
"325 270 OFFCURVE",
"254 250 OFFCURVE",
"191 242 CURVE",
"230 287 OFFCURVE",
"270 332 OFFCURVE",
"310 377 CURVE",
"304 384 OFFCURVE",
"267 397 OFFCURVE",
"257 397 CURVE",
"240 397 OFFCURVE",
"83 135 OFFCURVE",
"65 101 CURVE",
"47 69 OFFCURVE",
"28 35 OFFCURVE",
"17 -1 CURVE",
"16 -2 OFFCURVE",
"16 -4 OFFCURVE",
"16 -6 CURVE",
"16 -9 OFFCURVE",
"17 -12 OFFCURVE",
"21 -12 CURVE",
"27 -12 OFFCURVE",
"31 -7 OFFCURVE",
"33 -2 CURVE",
"72 60 OFFCURVE",
"101 130 OFFCURVE",
"148 187 CURVE",
"183 229 OFFCURVE",
"274 244 OFFCURVE",
"326 244 CURVE",
"373 244 OFFCURVE",
"449 231 OFFCURVE",
"449 170 CURVE",
"449 61 OFFCURVE",
"280 4 OFFCURVE",
"191 4 CURVE",
"149 4 OFFCURVE",
"108 9 OFFCURVE",
"68 22 CURVE",
"67 22 OFFCURVE",
"65 23 OFFCURVE",
"64 23 CURVE",
"62 23 OFFCURVE",
"59 22 OFFCURVE",
"59 19 CURVE",
"59 18 OFFCURVE",
"60 16 OFFCURVE",
"61 15 CURVE",
"105 -26 OFFCURVE",
"174 -38 OFFCURVE",
"233 -38 CURVE",
"328 -38 OFFCURVE",
"432 0 OFFCURVE",
"489 80 CURVE",
"505 102 OFFCURVE",
"517 129 OFFCURVE",
"517 157 CURVE",
"517 239 OFFCURVE",
"416 258 OFFCURVE",
"352 258 CURVE",
"341 258 OFFCURVE",
"330 257 OFFCURVE",
"319 257 CURVE",
"318 257 OFFCURVE",
"317 257 OFFCURVE",
"316 257 CURVE",
"317 259 OFFCURVE",
"556 317 OFFCURVE",
"556 425 CURVE"
);
}
);
width = 545;
}
);
unicode = 0042;
},
{
color = 0;
glyphname = C;
lastChange = "2021-04-19 21:32:36 +0000";
layers = (
{
layerId = "D7866281-830A-4E76-BB32-392A4BC3306E";
paths = (
{
closed = 1;
nodes = (
"587 484 OFFCURVE",
"522 506 OFFCURVE",
"472 506 CURVE",
"289 506 OFFCURVE",
"19 345 OFFCURVE",
"19 141 CURVE",
"19 24 OFFCURVE",
"113 -36 OFFCURVE",
"222 -36 CURVE",
"327 -36 OFFCURVE",
"468 19 OFFCURVE",
"533 105 CURVE",
"535 106 OFFCURVE",
"535 108 OFFCURVE",
"535 110 CURVE",
"535 112 OFFCURVE",
"534 116 OFFCURVE",
"532 116 CURVE",
"530 116 OFFCURVE",
"529 115 OFFCURVE",
"528 114 CURVE",
"449 43 OFFCURVE",
"366 22 OFFCURVE",
"262 22 CURVE",
"170 22 OFFCURVE",
"70 53 OFFCURVE",
"70 162 CURVE",
"70 206 OFFCURVE",
"87 249 OFFCURVE",
"109 287 CURVE",
"177 401 OFFCURVE",
"308 483 OFFCURVE",
"441 483 CURVE",
"488 483 OFFCURVE",
"532 466 OFFCURVE",
"532 413 CURVE",
"532 358 OFFCURVE",
"488 325 OFFCURVE",
"488 309 CURVE",
"488 306 OFFCURVE",
"490 303 OFFCURVE",
"493 303 CURVE",
"498 303 OFFCURVE",
"505 308 OFFCURVE",
"509 311 CURVE",
"545 336 OFFCURVE",
"587 378 OFFCURVE",
"587 424 CURVE"
);
}
);
width = 579;
}
);
unicode = 0043;
},
{
color = 0;
glyphname = Cacute;
lastChange = "2021-04-19 21:32:36 +0000";
layers = (
{
hints = (
{
horizontal = 1;
place = "{-36, 58}";
type = Stem;
},
{
horizontal = 1;
place = "{482, 24}";
type = Stem;
},
{
place = "{19, 51}";
type = Stem;
},
{
place = "{532, 55}";
type = Stem;
}
);
layerId = "D7866281-830A-4E76-BB32-392A4BC3306E";
paths = (
{
closed = 1;
nodes = (
"587 484 OFFCURVE",
"522 506 OFFCURVE",
"472 506 CURVE SMOOTH",
"289 506 OFFCURVE",
"19 345 OFFCURVE",
"19 141 CURVE SMOOTH",
"19 24 OFFCURVE",
"113 -36 OFFCURVE",
"222 -36 CURVE SMOOTH",
"327 -36 OFFCURVE",
"468 19 OFFCURVE",
"533 105 CURVE",
"535 106 OFFCURVE",
"535 108 OFFCURVE",
"535 110 CURVE SMOOTH",
"535 112 OFFCURVE",
"534 116 OFFCURVE",
"532 116 CURVE SMOOTH",
"530 116 OFFCURVE",
"529 115 OFFCURVE",
"528 114 CURVE SMOOTH",
"449 43 OFFCURVE",
"366 22 OFFCURVE",
"262 22 CURVE SMOOTH",
"170 22 OFFCURVE",
"70 53 OFFCURVE",
"70 162 CURVE SMOOTH",
"70 206 OFFCURVE",
"87 249 OFFCURVE",
"109 287 CURVE SMOOTH",
"177 401 OFFCURVE",
"308 483 OFFCURVE",
"441 483 CURVE SMOOTH",
"488 483 OFFCURVE",
"532 466 OFFCURVE",
"532 413 CURVE SMOOTH",
"532 358 OFFCURVE",
"488 325 OFFCURVE",
"488 309 CURVE SMOOTH",
"488 306 OFFCURVE",
"490 303 OFFCURVE",
"493 303 CURVE SMOOTH",
"498 303 OFFCURVE",
"505 308 OFFCURVE",
"509 311 CURVE SMOOTH",
"545 336 OFFCURVE",
"587 378 OFFCURVE",
"587 424 CURVE SMOOTH"
);
},
{
closed = 1;
nodes = (
"521 545 OFFCURVE",
"635 604 OFFCURVE",
"659 611 CURVE SMOOTH",
"665 613 OFFCURVE",
"678 617 OFFCURVE",
"678 624 CURVE SMOOTH",
"678 634 OFFCURVE",
"661 638 OFFCURVE",
"654 638 CURVE SMOOTH",
"633 638 OFFCURVE",
"512 567 OFFCURVE",
"512 550 CURVE SMOOTH",
"512 547 OFFCURVE",
"514 545 OFFCURVE",
"517 545 CURVE SMOOTH"
);
}
);
width = 579;
}
);
note = Cacute;
unicode = 0106;
},
{
color = 0;
glyphname = Ccaron;
lastChange = "2021-04-19 21:32:36 +0000";
layers = (
{
hints = (
{
horizontal = 1;
place = "{-36, 58}";
type = Stem;
},
{
horizontal = 1;
place = "{482, 24}";
type = Stem;
},
{
place = "{19, 51}";
type = Stem;
},
{
place = "{532, 55}";
type = Stem;
}
);
layerId = "D7866281-830A-4E76-BB32-392A4BC3306E";
paths = (
{
closed = 1;
nodes = (
"587 484 OFFCURVE",
"522 506 OFFCURVE",
"472 506 CURVE SMOOTH",
"289 506 OFFCURVE",
"19 345 OFFCURVE",
"19 141 CURVE SMOOTH",
"19 24 OFFCURVE",
"113 -36 OFFCURVE",
"222 -36 CURVE SMOOTH",
"327 -36 OFFCURVE",
"468 19 OFFCURVE",
"533 105 CURVE",
"535 106 OFFCURVE",
"535 108 OFFCURVE",
"535 110 CURVE SMOOTH",
"535 112 OFFCURVE",
"534 116 OFFCURVE",
"532 116 CURVE SMOOTH",
"530 116 OFFCURVE",
"529 115 OFFCURVE",
"528 114 CURVE SMOOTH",
"449 43 OFFCURVE",
"366 22 OFFCURVE",
"262 22 CURVE SMOOTH",
"170 22 OFFCURVE",
"70 53 OFFCURVE",
"70 162 CURVE SMOOTH",
"70 206 OFFCURVE",
"87 249 OFFCURVE",
"109 287 CURVE SMOOTH",
"177 401 OFFCURVE",
"308 483 OFFCURVE",
"441 483 CURVE SMOOTH",
"488 483 OFFCURVE",
"532 466 OFFCURVE",
"532 413 CURVE SMOOTH",
"532 358 OFFCURVE",
"488 325 OFFCURVE",
"488 309 CURVE SMOOTH",
"488 306 OFFCURVE",
"490 303 OFFCURVE",
"493 303 CURVE SMOOTH",
"498 303 OFFCURVE",
"505 308 OFFCURVE",
"509 311 CURVE SMOOTH",
"545 336 OFFCURVE",
"587 378 OFFCURVE",
"587 424 CURVE SMOOTH"
);
},
{
closed = 1;
nodes = (
"644 651 OFFCURVE",
"560 611 OFFCURVE",
"532 597 CURVE",
"523 605 OFFCURVE",
"470 659 OFFCURVE",
"460 659 CURVE SMOOTH",
"452 659 OFFCURVE",
"441 661 OFFCURVE",
"449 654 CURVE SMOOTH",
"471 635 OFFCURVE",
"498 596 OFFCURVE",
"510 571 CURVE SMOOTH",
"511 569 OFFCURVE",
"512 569 OFFCURVE",
"513 569 CURVE SMOOTH",
"526 569 OFFCURVE",
"628 629 OFFCURVE",
"649 640 CURVE SMOOTH",
"653 642 OFFCURVE",
"659 651 OFFCURVE",
"650 651 CURVE SMOOTH"
);
}
);
width = 579;
}
);
note = Ccaron;
unicode = 010C;
},
{
color = 0;
glyphname = Ccircumflex;
lastChange = "2021-04-19 21:32:36 +0000";
layers = (
{
hints = (
{
horizontal = 1;
place = "{-36, 58}";
type = Stem;
},
{
horizontal = 1;
place = "{482, 24}";
type = Stem;
},
{
place = "{19, 51}";
type = Stem;
},
{
place = "{532, 55}";
type = Stem;
},
{
horizontal = 1;
place = "{650, -20}";
target = down;
type = TopGhost;
}
);
layerId = "D7866281-830A-4E76-BB32-392A4BC3306E";
paths = (
{
closed = 1;
nodes = (
"587 484 OFFCURVE",
"522 506 OFFCURVE",
"472 506 CURVE SMOOTH",
"289 506 OFFCURVE",
"19 345 OFFCURVE",
"19 141 CURVE SMOOTH",
"19 24 OFFCURVE",
"113 -36 OFFCURVE",
"222 -36 CURVE SMOOTH",
"327 -36 OFFCURVE",
"468 19 OFFCURVE",
"533 105 CURVE",
"535 106 OFFCURVE",
"535 108 OFFCURVE",
"535 110 CURVE SMOOTH",
"535 112 OFFCURVE",
"534 116 OFFCURVE",
"532 116 CURVE SMOOTH",
"530 116 OFFCURVE",
"529 115 OFFCURVE",
"528 114 CURVE SMOOTH",
"449 43 OFFCURVE",
"366 22 OFFCURVE",
"262 22 CURVE SMOOTH",
"170 22 OFFCURVE",
"70 53 OFFCURVE",
"70 162 CURVE SMOOTH",
"70 206 OFFCURVE",
"87 249 OFFCURVE",
"109 287 CURVE SMOOTH",
"177 401 OFFCURVE",
"308 483 OFFCURVE",
"441 483 CURVE SMOOTH",
"488 483 OFFCURVE",
"532 466 OFFCURVE",
"532 413 CURVE SMOOTH",
"532 358 OFFCURVE",
"488 325 OFFCURVE",
"488 309 CURVE SMOOTH",
"488 306 OFFCURVE",
"490 303 OFFCURVE",
"493 303 CURVE SMOOTH",
"498 303 OFFCURVE",
"505 308 OFFCURVE",
"509 311 CURVE SMOOTH",
"545 336 OFFCURVE",
"587 378 OFFCURVE",
"587 424 CURVE SMOOTH"
);
},
{
closed = 1;
nodes = (
"649 554 OFFCURVE",
"647 555 OFFCURVE",
"646 556 CURVE SMOOTH",
"616 582 OFFCURVE",
"598 614 OFFCURVE",
"579 648 CURVE",
"578 649 OFFCURVE",
"577 650 OFFCURVE",
"575 650 CURVE SMOOTH",
"565 650 OFFCURVE",
"440 582 OFFCURVE",
"426 572 CURVE SMOOTH",
"422 569 OFFCURVE",
"420 562 OFFCURVE",
"420 558 CURVE SMOOTH",
"420 555 OFFCURVE",
"421 552 OFFCURVE",
"424 552 CURVE SMOOTH",
"433 552 OFFCURVE",
"539 605 OFFCURVE",
"554 613 CURVE",
"566 602 OFFCURVE",
"622 551 OFFCURVE",
"634 551 CURVE SMOOTH",
"643 550 LINE",
"643 550 OFFCURVE",
"649 550 OFFCURVE",
"649 552 CURVE SMOOTH"
);
}
);
width = 579;
}
);
note = Ccircumflex;
unicode = 0108;
},
{
color = 0;
glyphname = Cdotaccent;
lastChange = "2021-04-19 21:32:36 +0000";
layers = (
{
hints = (
{
horizontal = 1;
place = "{-36, 58}";
type = Stem;
},
{
horizontal = 1;
place = "{482, 24}";
type = Stem;
},
{
place = "{19, 51}";
type = Stem;
},
{
place = "{532, 55}";
type = Stem;
},
{
horizontal = 1;
place = "{568, 84}";
type = Stem;
}
);
layerId = "D7866281-830A-4E76-BB32-392A4BC3306E";
paths = (
{
closed = 1;
nodes = (
"587 484 OFFCURVE",
"522 506 OFFCURVE",
"472 506 CURVE SMOOTH",
"289 506 OFFCURVE",
"19 345 OFFCURVE",
"19 141 CURVE SMOOTH",
"19 24 OFFCURVE",
"113 -36 OFFCURVE",
"222 -36 CURVE SMOOTH",
"327 -36 OFFCURVE",
"468 19 OFFCURVE",
"533 105 CURVE",
"535 106 OFFCURVE",
"535 108 OFFCURVE",
"535 110 CURVE SMOOTH",
"535 112 OFFCURVE",
"534 116 OFFCURVE",
"532 116 CURVE SMOOTH",
"530 116 OFFCURVE",
"529 115 OFFCURVE",
"528 114 CURVE SMOOTH",
"449 43 OFFCURVE",
"366 22 OFFCURVE",
"262 22 CURVE SMOOTH",
"170 22 OFFCURVE",
"70 53 OFFCURVE",
"70 162 CURVE SMOOTH",
"70 206 OFFCURVE",
"87 249 OFFCURVE",
"109 287 CURVE SMOOTH",
"177 401 OFFCURVE",
"308 483 OFFCURVE",
"441 483 CURVE SMOOTH",
"488 483 OFFCURVE",
"532 466 OFFCURVE",
"532 413 CURVE SMOOTH",
"532 358 OFFCURVE",
"488 325 OFFCURVE",
"488 309 CURVE SMOOTH",
"488 306 OFFCURVE",
"490 303 OFFCURVE",
"493 303 CURVE SMOOTH",
"498 303 OFFCURVE",
"505 308 OFFCURVE",
"509 311 CURVE SMOOTH",
"545 336 OFFCURVE",
"587 378 OFFCURVE",
"587 424 CURVE SMOOTH"
);
},
{
closed = 1;
nodes = (
"577 568 OFFCURVE",
"572 597 OFFCURVE",
"575 606 CURVE SMOOTH",
"578 620 OFFCURVE",
"582 627 OFFCURVE",
"591 638 CURVE SMOOTH",
"592 639 OFFCURVE",
"592 641 OFFCURVE",
"592 642 CURVE SMOOTH",
"592 648 OFFCURVE",
"586 651 OFFCURVE",
"581 651 CURVE SMOOTH",
"566 651 OFFCURVE",
"513 621 OFFCURVE",
"513 603 CURVE SMOOTH",
"513 588 OFFCURVE",
"551 568 OFFCURVE",
"564 568 CURVE SMOOTH"
);
}
);
width = 579;
}
);
note = Cdotaccent;
unicode = 010A;
},
{
color = 0;
glyphname = D;
lastChange = "2021-04-19 21:32:36 +0000";
layers = (
{
layerId = "D7866281-830A-4E76-BB32-392A4BC3306E";
paths = (
{
closed = 1;
nodes = (
"610 294 OFFCURVE",
"610 290 OFFCURVE",
"609 286 CURVE",
"586 107 OFFCURVE",
"271 6 OFFCURVE",
"117 6 CURVE",
"53 6 OFFCURVE",
"48 36 OFFCURVE",
"63 58 CURVE",
"90 100 OFFCURVE",
"120 140 OFFCURVE",
"148 180 CURVE",
"198 248 OFFCURVE",
"249 317 OFFCURVE",
"301 383 CURVE",
"303 385 OFFCURVE",
"305 388 OFFCURVE",
"305 390 CURVE",
"305 401 OFFCURVE",
"284 404 OFFCURVE",
"277 404 CURVE",
"271 404 OFFCURVE",
"264 403 OFFCURVE",
"259 399 CURVE",
"216 360 OFFCURVE",
"80 147 OFFCURVE",
"34 51 CURVE",
"-2 -25 OFFCURVE",
"124 -27 OFFCURVE",
"178 -27 CURVE",
"280 -27 OFFCURVE",
"414 0 OFFCURVE",
"500 56 CURVE",
"578 107 OFFCURVE",
"640 186 OFFCURVE",
"640 283 CURVE",
"640 325 OFFCURVE",
"627 365 OFFCURVE",
"603 400 CURVE",
"550 478 OFFCURVE",
"447 501 OFFCURVE",
"358 501 CURVE",
"287 501 OFFCURVE",
"215 489 OFFCURVE",
"145 473 CURVE",
"132 469 OFFCURVE",
"116 467 OFFCURVE",
"104 462 CURVE",
"89 456 OFFCURVE",
"82 443 OFFCURVE",
"82 428 CURVE",
"82 413 OFFCURVE",
"90 401 OFFCURVE",
"106 401 CURVE",
"112 401 OFFCURVE",
"117 403 OFFCURVE",
"122 404 CURVE",
"195 428 OFFCURVE",
"266 450 OFFCURVE",
"344 450 CURVE",
"437 450 OFFCURVE",
"610 420 OFFCURVE",
"610 298 CURVE"
);
}
);
width = 638;
}
);
unicode = 0044;
},
{
color = 0;
glyphname = Eth;
lastChange = "2021-04-19 21:32:36 +0000";
layers = (
{
layerId = "D7866281-830A-4E76-BB32-392A4BC3306E";
paths = (
{
closed = 1;
nodes = (
"230 242 LINE",
"190 236 LINE",
"226 286 OFFCURVE",
"263 335 OFFCURVE",
"301 383 CURVE",
"303 385 OFFCURVE",
"305 388 OFFCURVE",
"305 390 CURVE",
"305 401 OFFCURVE",
"284 404 OFFCURVE",
"277 404 CURVE",
"271 404 OFFCURVE",
"264 403 OFFCURVE",
"259 399 CURVE",
"236 378 OFFCURVE",
"185 305 OFFCURVE",
"136 227 CURVE",
"24 209 LINE",
"16 208 OFFCURVE",
"9 198 OFFCURVE",
"10 190 CURVE",
"12 178 OFFCURVE",
"26 179 OFFCURVE",
"35 180 CURVE",
"43 182 LINE",
"68 186 OFFCURVE",
"92 191 OFFCURVE",
"116 196 CURVE",
"82 141 OFFCURVE",
"52 88 OFFCURVE",
"34 51 CURVE",
"-2 -25 OFFCURVE",
"124 -27 OFFCURVE",
"178 -27 CURVE",
"280 -27 OFFCURVE",
"414 0 OFFCURVE",
"500 56 CURVE",
"578 107 OFFCURVE",
"640 186 OFFCURVE",
"640 283 CURVE",
"640 325 OFFCURVE",
"627 365 OFFCURVE",
"603 400 CURVE",
"550 478 OFFCURVE",
"447 501 OFFCURVE",
"358 501 CURVE",
"287 501 OFFCURVE",
"215 489 OFFCURVE",
"145 473 CURVE",
"132 469 OFFCURVE",
"116 467 OFFCURVE",
"104 462 CURVE",
"89 456 OFFCURVE",
"82 443 OFFCURVE",
"82 428 CURVE",
"82 413 OFFCURVE",
"90 401 OFFCURVE",
"106 401 CURVE",
"112 401 OFFCURVE",
"117 403 OFFCURVE",
"122 404 CURVE",
"195 428 OFFCURVE",
"266 450 OFFCURVE",
"344 450 CURVE",
"437 450 OFFCURVE",
"610 420 OFFCURVE",
"610 298 CURVE",
"610 294 OFFCURVE",
"610 290 OFFCURVE",
"609 286 CURVE",
"586 107 OFFCURVE",
"271 6 OFFCURVE",
"117 6 CURVE",
"53 6 OFFCURVE",
"48 36 OFFCURVE",
"63 58 CURVE",
"90 100 OFFCURVE",
"119 140 OFFCURVE",
"148 180 CURVE",
"168 207 LINE",
"199 213 LINE",
"223 219 OFFCURVE",
"251 223 OFFCURVE",
"274 232 CURVE",
"278 234 OFFCURVE",
"297 244 OFFCURVE",
"296 250 CURVE",
"296 253 OFFCURVE",
"290 252 OFFCURVE",
"289 252 CURVE"
);
}
);
width = 638;
}
);
unicode = 00D0;
},
{
color = 0;
glyphname = Dcroat;
lastChange = "2021-04-19 21:32:36 +0000";
layers = (
{
hints = (
{
horizontal = 1;
place = "{-27, 32}";
type = Stem;
},
{
horizontal = 1;
place = "{450, 51}";
type = Stem;
},
{
place = "{28, 28}";
type = Stem;
},
{
place = "{609, 30}";
type = Stem;
}
);
layerId = "D7866281-830A-4E76-BB32-392A4BC3306E";
paths = (
{
closed = 1;
nodes = (
"230 242 LINE",
"190 236 LINE",
"226 286 OFFCURVE",
"263 335 OFFCURVE",
"301 383 CURVE SMOOTH",
"303 385 OFFCURVE",
"305 388 OFFCURVE",
"305 390 CURVE SMOOTH",
"305 401 OFFCURVE",
"284 404 OFFCURVE",
"277 404 CURVE SMOOTH",
"271 404 OFFCURVE",
"264 403 OFFCURVE",
"259 399 CURVE SMOOTH",
"236 378 OFFCURVE",
"185 305 OFFCURVE",
"136 227 CURVE",
"24 209 LINE SMOOTH",
"16 208 OFFCURVE",
"9 198 OFFCURVE",
"10 190 CURVE SMOOTH",
"12 178 OFFCURVE",
"26 179 OFFCURVE",
"35 180 CURVE SMOOTH",
"43 182 LINE SMOOTH",
"68 186 OFFCURVE",
"92 191 OFFCURVE",
"116 196 CURVE",
"82 141 OFFCURVE",
"52 88 OFFCURVE",
"34 51 CURVE SMOOTH",
"-2 -25 OFFCURVE",
"124 -27 OFFCURVE",
"178 -27 CURVE SMOOTH",
"280 -27 OFFCURVE",
"414 0 OFFCURVE",
"500 56 CURVE SMOOTH",
"578 107 OFFCURVE",
"640 186 OFFCURVE",
"640 283 CURVE SMOOTH",
"640 325 OFFCURVE",
"627 365 OFFCURVE",
"603 400 CURVE SMOOTH",
"550 478 OFFCURVE",
"447 501 OFFCURVE",
"358 501 CURVE SMOOTH",
"287 501 OFFCURVE",
"215 489 OFFCURVE",
"145 473 CURVE SMOOTH",
"132 469 OFFCURVE",
"116 467 OFFCURVE",
"104 462 CURVE SMOOTH",
"89 456 OFFCURVE",
"82 443 OFFCURVE",
"82 428 CURVE SMOOTH",
"82 413 OFFCURVE",
"90 401 OFFCURVE",
"106 401 CURVE SMOOTH",
"112 401 OFFCURVE",
"117 403 OFFCURVE",
"122 404 CURVE",
"195 428 OFFCURVE",
"266 450 OFFCURVE",
"344 450 CURVE SMOOTH",
"437 450 OFFCURVE",
"610 420 OFFCURVE",
"610 298 CURVE SMOOTH",
"610 294 OFFCURVE",
"610 290 OFFCURVE",
"609 286 CURVE SMOOTH",
"586 107 OFFCURVE",
"271 6 OFFCURVE",
"117 6 CURVE SMOOTH",
"53 6 OFFCURVE",
"48 36 OFFCURVE",
"63 58 CURVE SMOOTH",
"90 100 OFFCURVE",
"119 140 OFFCURVE",
"148 180 CURVE SMOOTH",
"168 207 LINE",
"199 213 LINE SMOOTH",
"223 219 OFFCURVE",
"251 223 OFFCURVE",
"274 232 CURVE SMOOTH",
"278 234 OFFCURVE",
"297 244 OFFCURVE",
"296 250 CURVE SMOOTH",
"296 253 OFFCURVE",
"290 252 OFFCURVE",
"289 252 CURVE SMOOTH"
);
}
);
width = 638;
}
);
note = Dcroat;
unicode = 0110;
},
{
color = 0;
glyphname = E;
lastChange = "2021-04-19 21:32:36 +0000";
layers = (
{
layerId = "D7866281-830A-4E76-BB32-392A4BC3306E";
paths = (
{
closed = 1;
nodes = (
"536 384 OFFCURVE",
"545 420 OFFCURVE",
"545 436 CURVE",
"545 512 OFFCURVE",
"465 510 OFFCURVE",
"409 510 CURVE",
"398 510 OFFCURVE",
"386 509 OFFCURVE",
"374 509 CURVE",
"369 516 OFFCURVE",
"356 519 OFFCURVE",
"347 519 CURVE",
"335 519 OFFCURVE",
"331 513 OFFCURVE",
"323 505 CURVE",
"285 500 OFFCURVE",
"245 494 OFFCURVE",
"209 481 CURVE",
"172 468 OFFCURVE",
"105 433 OFFCURVE",
"105 388 CURVE",
"105 381 OFFCURVE",
"108 360 OFFCURVE",
"117 360 CURVE",
"122 360 OFFCURVE",
"125 362 OFFCURVE",
"125 367 CURVE",
"125 369 OFFCURVE",
"124 370 OFFCURVE",
"123 371 CURVE",
"122 373 OFFCURVE",
"122 376 OFFCURVE",
"122 378 CURVE",
"122 417 OFFCURVE",
"246 440 OFFCURVE",
"273 445 CURVE",
"224 382 OFFCURVE",
"19 102 OFFCURVE",
"19 33 CURVE",
"19 -23 OFFCURVE",
"120 -23 OFFCURVE",
"157 -23 CURVE",
"220 -23 OFFCURVE",
"335 -11 OFFCURVE",
"396 7 CURVE",
"417 13 OFFCURVE",
"454 30 OFFCURVE",
"454 56 CURVE",
"454 61 OFFCURVE",
"451 66 OFFCURVE",
"446 66 CURVE",
"443 66 OFFCURVE",
"441 65 OFFCURVE",
"439 64 CURVE",
"376 33 OFFCURVE",
"240 3 OFFCURVE",
"171 3 CURVE",
"138 3 OFFCURVE",
"77 8 OFFCURVE",
"77 52 CURVE",
"77 91 OFFCURVE",
"151 216 OFFCURVE",
"188 229 CURVE",
"234 246 OFFCURVE",
"309 248 OFFCURVE",
"359 251 CURVE",
"377 252 OFFCURVE",
"395 252 OFFCURVE",
"413 255 CURVE",
"422 256 OFFCURVE",
"439 262 OFFCURVE",
"439 274 CURVE",
"439 277 OFFCURVE",
"437 278 OFFCURVE",
"434 278 CURVE",
"357 278 OFFCURVE",
"280 279 OFFCURVE",
"203 279 CURVE",
"246 336 OFFCURVE",
"288 395 OFFCURVE",
"332 452 CURVE",
"354 454 OFFCURVE",
"377 455 OFFCURVE",
"399 455 CURVE",
"425 455 OFFCURVE",
"524 454 OFFCURVE",
"524 413 CURVE",
"524 400 OFFCURVE",
"512 388 OFFCURVE",
"512 385 CURVE",
"512 384 OFFCURVE",
"515 384 OFFCURVE",
"516 384 CURVE"
);
}
);
width = 505;
}
);
unicode = 0045;
},
{
color = 0;
glyphname = Ecaron;
lastChange = "2021-04-19 21:32:36 +0000";
layers = (
{
hints = (
{
horizontal = 1;
place = "{-23, 25}";
type = Stem;
},
{
horizontal = 1;
place = "{251, 27}";
type = Stem;
},
{
horizontal = 1;
place = "{456, 54}";
type = Stem;
},
{
place = "{19, 58}";
type = Stem;
},
{
place = "{106, 16}";
type = Stem;
},
{
place = "{525, 21}";
type = Stem;
}
);
layerId = "D7866281-830A-4E76-BB32-392A4BC3306E";
paths = (
{
closed = 1;
nodes = (
"536 384 OFFCURVE",
"545 420 OFFCURVE",
"545 436 CURVE SMOOTH",
"545 512 OFFCURVE",
"465 510 OFFCURVE",
"409 510 CURVE SMOOTH",
"398 510 OFFCURVE",
"386 509 OFFCURVE",
"374 509 CURVE",
"369 516 OFFCURVE",
"356 519 OFFCURVE",
"347 519 CURVE SMOOTH",
"335 519 OFFCURVE",
"331 513 OFFCURVE",
"323 505 CURVE",
"285 500 OFFCURVE",
"245 494 OFFCURVE",
"209 481 CURVE SMOOTH",
"172 468 OFFCURVE",
"105 433 OFFCURVE",
"105 388 CURVE SMOOTH",
"105 381 OFFCURVE",
"108 360 OFFCURVE",
"117 360 CURVE SMOOTH",
"122 360 OFFCURVE",
"125 362 OFFCURVE",
"125 367 CURVE SMOOTH",
"125 369 OFFCURVE",
"124 370 OFFCURVE",
"123 371 CURVE SMOOTH",
"122 373 OFFCURVE",
"122 376 OFFCURVE",
"122 378 CURVE SMOOTH",
"122 417 OFFCURVE",
"246 440 OFFCURVE",
"273 445 CURVE",
"224 382 OFFCURVE",
"19 102 OFFCURVE",
"19 33 CURVE SMOOTH",
"19 -23 OFFCURVE",
"120 -23 OFFCURVE",
"157 -23 CURVE SMOOTH",
"220 -23 OFFCURVE",
"335 -11 OFFCURVE",
"396 7 CURVE SMOOTH",
"417 13 OFFCURVE",
"454 30 OFFCURVE",
"454 56 CURVE SMOOTH",
"454 61 OFFCURVE",
"451 66 OFFCURVE",
"446 66 CURVE SMOOTH",
"443 66 OFFCURVE",
"441 65 OFFCURVE",
"439 64 CURVE SMOOTH",
"376 33 OFFCURVE",
"240 3 OFFCURVE",
"171 3 CURVE SMOOTH",
"138 3 OFFCURVE",
"77 8 OFFCURVE",
"77 52 CURVE SMOOTH",
"77 91 OFFCURVE",
"151 216 OFFCURVE",
"188 229 CURVE SMOOTH",
"234 246 OFFCURVE",
"309 248 OFFCURVE",
"359 251 CURVE SMOOTH",
"377 252 OFFCURVE",
"395 252 OFFCURVE",
"413 255 CURVE SMOOTH",
"422 256 OFFCURVE",
"439 262 OFFCURVE",
"439 274 CURVE SMOOTH",
"439 277 OFFCURVE",
"437 278 OFFCURVE",
"434 278 CURVE SMOOTH",
"357 278 OFFCURVE",
"280 279 OFFCURVE",
"203 279 CURVE",
"246 336 OFFCURVE",
"288 395 OFFCURVE",
"332 452 CURVE",
"354 454 OFFCURVE",
"377 455 OFFCURVE",
"399 455 CURVE SMOOTH",
"425 455 OFFCURVE",
"524 454 OFFCURVE",
"524 413 CURVE SMOOTH",
"524 400 OFFCURVE",
"512 388 OFFCURVE",
"512 385 CURVE SMOOTH",
"512 384 OFFCURVE",
"515 384 OFFCURVE",
"516 384 CURVE SMOOTH"
);
},
{
closed = 1;
nodes = (
"560 650 OFFCURVE",
"476 610 OFFCURVE",
"448 596 CURVE",
"439 604 OFFCURVE",
"386 658 OFFCURVE",
"376 658 CURVE SMOOTH",
"368 658 OFFCURVE",
"357 660 OFFCURVE",
"365 653 CURVE SMOOTH",
"387 634 OFFCURVE",
"414 595 OFFCURVE",
"426 570 CURVE SMOOTH",
"427 568 OFFCURVE",
"428 568 OFFCURVE",
"429 568 CURVE SMOOTH",
"442 568 OFFCURVE",
"544 628 OFFCURVE",
"565 639 CURVE SMOOTH",
"569 641 OFFCURVE",
"575 650 OFFCURVE",
"566 650 CURVE SMOOTH"
);
}
);
width = 505;
}
);
note = Ecaron;
unicode = 011A;
},
{
color = 0;
glyphname = Edieresis;
lastChange = "2021-04-19 21:32:36 +0000";
layers = (
{
layerId = "D7866281-830A-4E76-BB32-392A4BC3306E";
paths = (
{
closed = 1;
nodes = (
"685 623 LINE",
"685 627 OFFCURVE",
"680 630 OFFCURVE",
"676 630 CURVE",
"664 630 OFFCURVE",
"621 605 OFFCURVE",
"621 591 CURVE",
"621 579 OFFCURVE",
"652 562 OFFCURVE",
"662 562 CURVE",
"675 562 OFFCURVE",
"664 598 OFFCURVE",
"684 620 CURVE"
);
},
{
closed = 1;
nodes = (
"567 623 LINE",
"567 627 OFFCURVE",
"562 630 OFFCURVE",
"558 630 CURVE",
"546 630 OFFCURVE",
"503 605 OFFCURVE",
"503 591 CURVE",
"503 579 OFFCURVE",
"534 562 OFFCURVE",
"544 562 CURVE",
"557 562 OFFCURVE",
"546 598 OFFCURVE",
"566 620 CURVE"
);
},
{
closed = 1;
nodes = (
"536 384 OFFCURVE",
"545 420 OFFCURVE",
"545 436 CURVE",
"545 512 OFFCURVE",
"465 510 OFFCURVE",
"409 510 CURVE",
"398 510 OFFCURVE",
"386 509 OFFCURVE",
"374 509 CURVE",
"369 516 OFFCURVE",
"356 519 OFFCURVE",
"347 519 CURVE",
"335 519 OFFCURVE",
"331 513 OFFCURVE",
"323 505 CURVE",
"285 500 OFFCURVE",
"245 494 OFFCURVE",
"209 481 CURVE",
"172 468 OFFCURVE",
"105 433 OFFCURVE",
"105 388 CURVE",
"105 381 OFFCURVE",
"108 360 OFFCURVE",
"117 360 CURVE",
"122 360 OFFCURVE",
"125 362 OFFCURVE",
"125 367 CURVE",
"125 369 OFFCURVE",
"124 370 OFFCURVE",
"123 371 CURVE",
"122 373 OFFCURVE",
"122 376 OFFCURVE",
"122 378 CURVE",
"122 417 OFFCURVE",
"246 440 OFFCURVE",
"273 445 CURVE",
"224 382 OFFCURVE",
"19 102 OFFCURVE",
"19 33 CURVE",
"19 -23 OFFCURVE",
"120 -23 OFFCURVE",
"157 -23 CURVE",
"220 -23 OFFCURVE",
"335 -11 OFFCURVE",
"396 7 CURVE",
"417 13 OFFCURVE",
"454 30 OFFCURVE",
"454 56 CURVE",
"454 61 OFFCURVE",
"451 66 OFFCURVE",
"446 66 CURVE",
"443 66 OFFCURVE",
"441 65 OFFCURVE",
"439 64 CURVE",
"376 33 OFFCURVE",
"240 3 OFFCURVE",
"171 3 CURVE",
"138 3 OFFCURVE",
"77 8 OFFCURVE",
"77 52 CURVE",
"77 91 OFFCURVE",
"151 216 OFFCURVE",
"188 229 CURVE",
"234 246 OFFCURVE",
"309 248 OFFCURVE",
"359 251 CURVE",
"377 252 OFFCURVE",
"395 252 OFFCURVE",
"413 255 CURVE",
"422 256 OFFCURVE",
"439 262 OFFCURVE",
"439 274 CURVE",
"439 277 OFFCURVE",
"437 278 OFFCURVE",
"434 278 CURVE",
"357 278 OFFCURVE",
"280 279 OFFCURVE",
"203 279 CURVE",
"246 336 OFFCURVE",
"288 395 OFFCURVE",
"332 452 CURVE",
"354 454 OFFCURVE",
"377 455 OFFCURVE",
"399 455 CURVE",
"425 455 OFFCURVE",
"524 454 OFFCURVE",
"524 413 CURVE",
"524 400 OFFCURVE",
"512 388 OFFCURVE",
"512 385 CURVE",
"512 384 OFFCURVE",
"515 384 OFFCURVE",
"516 384 CURVE"
);
}
);
width = 505;
}
);
unicode = 00CB;
},
{
color = 0;
glyphname = Edotaccent;
lastChange = "2021-04-19 21:32:36 +0000";
layers = (
{
hints = (
{
horizontal = 1;
place = "{-23, 25}";
type = Stem;
},
{
horizontal = 1;
place = "{251, 27}";
type = Stem;
},
{
horizontal = 1;
place = "{456, 54}";
type = Stem;
},
{
place = "{19, 58}";
type = Stem;
},
{
place = "{106, 16}";
type = Stem;
},
{
place = "{525, 21}";
type = Stem;
},
{
horizontal = 1;
place = "{572, 84}";
type = Stem;
}
);
layerId = "D7866281-830A-4E76-BB32-392A4BC3306E";
paths = (
{
closed = 1;
nodes = (
"536 384 OFFCURVE",
"545 420 OFFCURVE",
"545 436 CURVE SMOOTH",
"545 512 OFFCURVE",
"465 510 OFFCURVE",
"409 510 CURVE SMOOTH",
"398 510 OFFCURVE",
"386 509 OFFCURVE",
"374 509 CURVE",
"369 516 OFFCURVE",
"356 519 OFFCURVE",
"347 519 CURVE SMOOTH",
"335 519 OFFCURVE",
"331 513 OFFCURVE",
"323 505 CURVE",
"285 500 OFFCURVE",
"245 494 OFFCURVE",
"209 481 CURVE SMOOTH",
"172 468 OFFCURVE",
"105 433 OFFCURVE",
"105 388 CURVE SMOOTH",
"105 381 OFFCURVE",
"108 360 OFFCURVE",
"117 360 CURVE SMOOTH",
"122 360 OFFCURVE",
"125 362 OFFCURVE",
"125 367 CURVE SMOOTH",
"125 369 OFFCURVE",
"124 370 OFFCURVE",
"123 371 CURVE SMOOTH",
"122 373 OFFCURVE",
"122 376 OFFCURVE",
"122 378 CURVE SMOOTH",
"122 417 OFFCURVE",
"246 440 OFFCURVE",
"273 445 CURVE",
"224 382 OFFCURVE",
"19 102 OFFCURVE",
"19 33 CURVE SMOOTH",
"19 -23 OFFCURVE",
"120 -23 OFFCURVE",
"157 -23 CURVE SMOOTH",
"220 -23 OFFCURVE",
"335 -11 OFFCURVE",
"396 7 CURVE SMOOTH",
"417 13 OFFCURVE",
"454 30 OFFCURVE",
"454 56 CURVE SMOOTH",
"454 61 OFFCURVE",
"451 66 OFFCURVE",
"446 66 CURVE SMOOTH",
"443 66 OFFCURVE",
"441 65 OFFCURVE",
"439 64 CURVE SMOOTH",
"376 33 OFFCURVE",
"240 3 OFFCURVE",
"171 3 CURVE SMOOTH",
"138 3 OFFCURVE",
"77 8 OFFCURVE",
"77 52 CURVE SMOOTH",
"77 91 OFFCURVE",
"151 216 OFFCURVE",
"188 229 CURVE SMOOTH",
"234 246 OFFCURVE",
"309 248 OFFCURVE",
"359 251 CURVE SMOOTH",
"377 252 OFFCURVE",
"395 252 OFFCURVE",
"413 255 CURVE SMOOTH",
"422 256 OFFCURVE",
"439 262 OFFCURVE",
"439 274 CURVE SMOOTH",
"439 277 OFFCURVE",
"437 278 OFFCURVE",
"434 278 CURVE SMOOTH",
"357 278 OFFCURVE",
"280 279 OFFCURVE",
"203 279 CURVE",
"246 336 OFFCURVE",
"288 395 OFFCURVE",
"332 452 CURVE",
"354 454 OFFCURVE",
"377 455 OFFCURVE",
"399 455 CURVE SMOOTH",
"425 455 OFFCURVE",
"524 454 OFFCURVE",
"524 413 CURVE SMOOTH",
"524 400 OFFCURVE",
"512 388 OFFCURVE",
"512 385 CURVE SMOOTH",
"512 384 OFFCURVE",
"515 384 OFFCURVE",
"516 384 CURVE SMOOTH"
);
},
{
closed = 1;
nodes = (
"457 572 OFFCURVE",
"452 601 OFFCURVE",
"455 610 CURVE SMOOTH",
"458 624 OFFCURVE",
"462 631 OFFCURVE",
"471 642 CURVE SMOOTH",
"472 643 OFFCURVE",
"472 645 OFFCURVE",
"472 646 CURVE SMOOTH",
"472 652 OFFCURVE",
"466 655 OFFCURVE",
"461 655 CURVE SMOOTH",
"446 655 OFFCURVE",
"393 625 OFFCURVE",
"393 607 CURVE SMOOTH",
"393 592 OFFCURVE",
"431 572 OFFCURVE",
"444 572 CURVE SMOOTH"
);
}
);
width = 505;
}
);
note = Edotaccent;
unicode = 0116;
},
{
color = 0;
glyphname = Emacron;
lastChange = "2021-04-19 21:32:36 +0000";
layers = (
{
hints = (
{
horizontal = 1;
place = "{-23, 25}";
type = Stem;
},
{
horizontal = 1;
place = "{251, 27}";
type = Stem;
},
{
horizontal = 1;
place = "{456, 54}";
type = Stem;
},
{
place = "{19, 58}";
type = Stem;
},
{
place = "{106, 16}";
type = Stem;
},
{
place = "{525, 21}";
type = Stem;
},
{
horizontal = 1;
place = "{569, 31}";
type = Stem;
},
{
place = "{321, 184}";
type = Stem;
}
);
layerId = "D7866281-830A-4E76-BB32-392A4BC3306E";
paths = (
{
closed = 1;
nodes = (
"536 384 OFFCURVE",
"545 420 OFFCURVE",
"545 436 CURVE SMOOTH",
"545 512 OFFCURVE",
"465 510 OFFCURVE",
"409 510 CURVE SMOOTH",
"398 510 OFFCURVE",
"386 509 OFFCURVE",
"374 509 CURVE",
"369 516 OFFCURVE",
"356 519 OFFCURVE",
"347 519 CURVE SMOOTH",
"335 519 OFFCURVE",
"331 513 OFFCURVE",
"323 505 CURVE",
"285 500 OFFCURVE",
"245 494 OFFCURVE",
"209 481 CURVE SMOOTH",
"172 468 OFFCURVE",
"105 433 OFFCURVE",
"105 388 CURVE SMOOTH",
"105 381 OFFCURVE",
"108 360 OFFCURVE",
"117 360 CURVE SMOOTH",
"122 360 OFFCURVE",
"125 362 OFFCURVE",
"125 367 CURVE SMOOTH",
"125 369 OFFCURVE",
"124 370 OFFCURVE",
"123 371 CURVE SMOOTH",
"122 373 OFFCURVE",
"122 376 OFFCURVE",
"122 378 CURVE SMOOTH",
"122 417 OFFCURVE",
"246 440 OFFCURVE",
"273 445 CURVE",
"224 382 OFFCURVE",
"19 102 OFFCURVE",
"19 33 CURVE SMOOTH",
"19 -23 OFFCURVE",
"120 -23 OFFCURVE",
"157 -23 CURVE SMOOTH",
"220 -23 OFFCURVE",
"335 -11 OFFCURVE",
"396 7 CURVE SMOOTH",
"417 13 OFFCURVE",
"454 30 OFFCURVE",
"454 56 CURVE SMOOTH",
"454 61 OFFCURVE",
"451 66 OFFCURVE",
"446 66 CURVE SMOOTH",
"443 66 OFFCURVE",
"441 65 OFFCURVE",
"439 64 CURVE SMOOTH",
"376 33 OFFCURVE",
"240 3 OFFCURVE",
"171 3 CURVE SMOOTH",
"138 3 OFFCURVE",
"77 8 OFFCURVE",
"77 52 CURVE SMOOTH",
"77 91 OFFCURVE",
"151 216 OFFCURVE",
"188 229 CURVE SMOOTH",
"234 246 OFFCURVE",
"309 248 OFFCURVE",
"359 251 CURVE SMOOTH",
"377 252 OFFCURVE",
"395 252 OFFCURVE",
"413 255 CURVE SMOOTH",
"422 256 OFFCURVE",
"439 262 OFFCURVE",
"439 274 CURVE SMOOTH",
"439 277 OFFCURVE",
"437 278 OFFCURVE",
"434 278 CURVE SMOOTH",
"357 278 OFFCURVE",
"280 279 OFFCURVE",
"203 279 CURVE",
"246 336 OFFCURVE",
"288 395 OFFCURVE",
"332 452 CURVE",
"354 454 OFFCURVE",
"377 455 OFFCURVE",
"399 455 CURVE SMOOTH",
"425 455 OFFCURVE",
"524 454 OFFCURVE",
"524 413 CURVE SMOOTH",
"524 400 OFFCURVE",
"512 388 OFFCURVE",
"512 385 CURVE SMOOTH",
"512 384 OFFCURVE",
"515 384 OFFCURVE",
"516 384 CURVE SMOOTH"
);
},
{
closed = 1;
nodes = (
"457 600 LINE",
"338 599 LINE SMOOTH",
"330 599 OFFCURVE",
"321 590 OFFCURVE",
"321 582 CURVE SMOOTH",
"321 570 OFFCURVE",
"335 569 OFFCURVE",
"344 569 CURVE SMOOTH",
"368 569 OFFCURVE",
"505 577 OFFCURVE",
"505 597 CURVE SMOOTH",
"505 600 OFFCURVE",
"500 600 OFFCURVE",
"499 600 CURVE SMOOTH"
);
}
);
width = 505;
}
);
note = Emacron;
unicode = 0112;
},
{
color = 0;
glyphname = Eogonek;
lastChange = "2021-04-19 21:32:36 +0000";
layers = (
{
hints = (
{
horizontal = 1;
place = "{-23, 25}";
type = Stem;
},
{
horizontal = 1;
place = "{251, 27}";
type = Stem;
},
{
horizontal = 1;
place = "{456, 54}";
type = Stem;
},
{
place = "{19, 58}";
type = Stem;
},
{
place = "{106, 16}";
type = Stem;
},
{
place = "{525, 21}";
type = Stem;
},
{
horizontal = 1;
place = "{-17, 24}";
type = Stem;
},
{
place = "{-69, 44}";
type = Stem;
},
{
place = "{101, 55}";
type = Stem;
}
);
layerId = "D7866281-830A-4E76-BB32-392A4BC3306E";
paths = (
{
closed = 1;
nodes = (
"536 384 OFFCURVE",
"545 420 OFFCURVE",
"545 436 CURVE SMOOTH",
"545 512 OFFCURVE",
"465 510 OFFCURVE",
"409 510 CURVE SMOOTH",
"398 510 OFFCURVE",
"386 509 OFFCURVE",
"374 509 CURVE",
"369 516 OFFCURVE",
"356 519 OFFCURVE",
"347 519 CURVE SMOOTH",
"335 519 OFFCURVE",
"331 513 OFFCURVE",
"323 505 CURVE",
"285 500 OFFCURVE",
"245 494 OFFCURVE",
"209 481 CURVE SMOOTH",
"172 468 OFFCURVE",
"105 433 OFFCURVE",
"105 388 CURVE SMOOTH",
"105 381 OFFCURVE",
"108 360 OFFCURVE",
"117 360 CURVE SMOOTH",
"122 360 OFFCURVE",
"125 362 OFFCURVE",
"125 367 CURVE SMOOTH",
"125 369 OFFCURVE",
"124 370 OFFCURVE",
"123 371 CURVE SMOOTH",
"122 373 OFFCURVE",
"122 376 OFFCURVE",
"122 378 CURVE SMOOTH",
"122 417 OFFCURVE",
"246 440 OFFCURVE",
"273 445 CURVE",
"224 382 OFFCURVE",
"19 102 OFFCURVE",
"19 33 CURVE SMOOTH",
"19 -23 OFFCURVE",
"120 -23 OFFCURVE",
"157 -23 CURVE SMOOTH",
"220 -23 OFFCURVE",
"335 -11 OFFCURVE",
"396 7 CURVE SMOOTH",
"417 13 OFFCURVE",
"454 30 OFFCURVE",
"454 56 CURVE SMOOTH",
"454 61 OFFCURVE",
"451 66 OFFCURVE",
"446 66 CURVE SMOOTH",
"443 66 OFFCURVE",
"441 65 OFFCURVE",
"439 64 CURVE SMOOTH",
"376 33 OFFCURVE",
"240 3 OFFCURVE",
"171 3 CURVE SMOOTH",
"138 3 OFFCURVE",
"77 8 OFFCURVE",
"77 52 CURVE SMOOTH",
"77 91 OFFCURVE",
"151 216 OFFCURVE",
"188 229 CURVE SMOOTH",
"234 246 OFFCURVE",
"309 248 OFFCURVE",
"359 251 CURVE SMOOTH",
"377 252 OFFCURVE",
"395 252 OFFCURVE",
"413 255 CURVE SMOOTH",
"422 256 OFFCURVE",
"439 262 OFFCURVE",
"439 274 CURVE SMOOTH",
"439 277 OFFCURVE",
"437 278 OFFCURVE",
"434 278 CURVE SMOOTH",
"357 278 OFFCURVE",
"280 279 OFFCURVE",
"203 279 CURVE",
"246 336 OFFCURVE",
"288 395 OFFCURVE",
"332 452 CURVE",
"354 454 OFFCURVE",
"377 455 OFFCURVE",
"399 455 CURVE SMOOTH",
"425 455 OFFCURVE",
"524 454 OFFCURVE",
"524 413 CURVE SMOOTH",
"524 400 OFFCURVE",
"512 388 OFFCURVE",
"512 385 CURVE SMOOTH",
"512 384 OFFCURVE",
"515 384 OFFCURVE",
"516 384 CURVE SMOOTH"
);
},
{
closed = 1;
nodes = (
"187 -149 OFFCURVE",
"157 -177 OFFCURVE",
"144 -186 CURVE SMOOTH",
"105 -213 OFFCURVE",
"79 -178 OFFCURVE",
"102 -133 CURVE SMOOTH",
"123 -93 OFFCURVE",
"150 -57 OFFCURVE",
"193 -24 CURVE SMOOTH",
"224 0 OFFCURVE",
"196 -3 OFFCURVE",
"187 -8 CURVE SMOOTH",
"126 -41 OFFCURVE",
"54 -116 OFFCURVE",
"57 -169 CURVE SMOOTH",
"61 -222 OFFCURVE",
"121 -222 OFFCURVE",
"149 -201 CURVE SMOOTH",
"177 -180 OFFCURVE",
"196 -151 OFFCURVE",
"201 -143 CURVE SMOOTH",
"208 -134 OFFCURVE",
"205 -123 OFFCURVE",
"196 -136 CURVE SMOOTH"
);
}
);
width = 505;
}
);
note = Eogonek;
unicode = 0118;
},
{
color = 0;
glyphname = F;
lastChange = "2021-04-19 21:32:36 +0000";
layers = (
{
layerId = "D7866281-830A-4E76-BB32-392A4BC3306E";
paths = (
{
closed = 1;
nodes = (
"537 384 OFFCURVE",
"546 420 OFFCURVE",
"546 436 CURVE",
"546 512 OFFCURVE",
"465 510 OFFCURVE",
"409 510 CURVE",
"347 510 OFFCURVE",
"268 501 OFFCURVE",
"209 481 CURVE",
"172 468 OFFCURVE",
"105 433 OFFCURVE",
"105 388 CURVE",
"105 381 OFFCURVE",
"108 360 OFFCURVE",
"117 360 CURVE",
"123 360 OFFCURVE",
"125 362 OFFCURVE",
"125 367 CURVE",
"125 369 OFFCURVE",
"124 370 OFFCURVE",
"123 371 CURVE",
"122 373 OFFCURVE",
"122 376 OFFCURVE",
"122 378 CURVE",
"122 419 OFFCURVE",
"261 443 OFFCURVE",
"289 447 CURVE",
"242 388 OFFCURVE",
"15 47 OFFCURVE",
"15 -8 CURVE",
"15 -12 OFFCURVE",
"16 -15 OFFCURVE",
"20 -15 CURVE",
"28 -15 OFFCURVE",
"32 -9 OFFCURVE",
"36 -3 CURVE",
"83 70 OFFCURVE",
"119 150 OFFCURVE",
"175 218 CURVE",
"232 238 OFFCURVE",
"297 243 OFFCURVE",
"357 249 CURVE",
"375 251 OFFCURVE",
"395 252 OFFCURVE",
"413 255 CURVE",
"422 256 OFFCURVE",
"439 262 OFFCURVE",
"439 274 CURVE",
"439 277 OFFCURVE",
"437 278 OFFCURVE",
"434 278 CURVE",
"360 278 OFFCURVE",
"287 278 OFFCURVE",
"213 278 CURVE",
"256 334 OFFCURVE",
"304 388 OFFCURVE",
"351 440 CURVE",
"348 445 OFFCURVE",
"341 450 OFFCURVE",
"336 452 CURVE",
"357 454 OFFCURVE",
"378 455 OFFCURVE",
"399 455 CURVE",
"425 455 OFFCURVE",
"524 454 OFFCURVE",
"524 413 CURVE",
"524 399 OFFCURVE",
"513 388 OFFCURVE",
"513 385 CURVE",
"513 384 OFFCURVE",
"515 384 OFFCURVE",
"516 384 CURVE"
);
}
);
width = 375;
}
);
unicode = 0046;
},
{
color = 0;
glyphname = G;
lastChange = "2021-04-19 21:32:36 +0000";
layers = (
{
layerId = "D7866281-830A-4E76-BB32-392A4BC3306E";
paths = (
{
closed = 1;
nodes = (
"611 212 OFFCURVE",
"519 229 OFFCURVE",
"487 233 CURVE",
"465 236 OFFCURVE",
"442 237 OFFCURVE",
"420 237 CURVE",
"343 237 OFFCURVE",
"218 222 OFFCURVE",
"192 135 CURVE",
"190 128 OFFCURVE",
"188 121 OFFCURVE",
"188 114 CURVE",
"188 92 OFFCURVE",
"205 58 OFFCURVE",
"230 58 CURVE",
"232 58 OFFCURVE",
"236 58 OFFCURVE",
"236 61 CURVE",
"236 67 OFFCURVE",
"221 73 OFFCURVE",
"221 92 CURVE",
"221 101 OFFCURVE",
"224 109 OFFCURVE",
"229 117 CURVE",
"269 178 OFFCURVE",
"405 188 OFFCURVE",
"473 188 CURVE",
"498 188 OFFCURVE",
"523 186 OFFCURVE",
"548 180 CURVE",
"548 178 OFFCURVE",
"548 175 OFFCURVE",
"548 173 CURVE",
"548 169 OFFCURVE",
"548 165 OFFCURVE",
"547 161 CURVE",
"524 50 OFFCURVE",
"345 20 OFFCURVE",
"252 20 CURVE",
"164 20 OFFCURVE",
"71 49 OFFCURVE",
"71 154 CURVE",
"71 198 OFFCURVE",
"88 243 OFFCURVE",
"111 281 CURVE",
"178 395 OFFCURVE",
"304 483 OFFCURVE",
"441 483 CURVE",
"488 483 OFFCURVE",
"532 466 OFFCURVE",
"532 413 CURVE",
"532 359 OFFCURVE",
"488 324 OFFCURVE",
"488 309 CURVE",
"488 306 OFFCURVE",
"490 303 OFFCURVE",
"493 303 CURVE",
"499 303 OFFCURVE",
"505 308 OFFCURVE",
"509 311 CURVE",
"545 336 OFFCURVE",
"587 378 OFFCURVE",
"587 424 CURVE",
"587 484 OFFCURVE",
"522 506 OFFCURVE",
"472 506 CURVE",
"289 506 OFFCURVE",
"19 345 OFFCURVE",
"19 141 CURVE",
"19 24 OFFCURVE",
"114 -36 OFFCURVE",
"222 -36 CURVE",
"330 -36 OFFCURVE",
"562 34 OFFCURVE",
"562 168 CURVE",
"562 171 OFFCURVE",
"562 174 OFFCURVE",
"561 176 CURVE",
"574 173 OFFCURVE",
"594 166 OFFCURVE",
"602 155 CURVE",
"603 154 OFFCURVE",
"602 151 OFFCURVE",
"605 151 CURVE",
"609 151 OFFCURVE",
"611 163 OFFCURVE",
"611 166 CURVE"
);
}
);
width = 600;
}
);
unicode = 0047;
},
{
color = 0;
glyphname = Gbreve;
lastChange = "2021-04-19 21:32:36 +0000";
layers = (
{
hints = (
{
horizontal = 1;
place = "{-36, 55}";
type = Stem;
},
{
horizontal = 1;
place = "{185, 52}";
type = Stem;
},
{
horizontal = 1;
place = "{482, 24}";
type = Stem;
},
{
place = "{19, 52}";
type = Stem;
},
{
place = "{189, 32}";
type = Stem;
},
{
place = "{532, 55}";
type = Stem;
},
{
horizontal = 1;
place = "{552, 31}";
type = Stem;
},
{
place = "{463, 33}";
type = Stem;
}
);
layerId = "D7866281-830A-4E76-BB32-392A4BC3306E";
paths = (
{
closed = 1;
nodes = (
"611 212 OFFCURVE",
"519 229 OFFCURVE",
"487 233 CURVE SMOOTH",
"465 236 OFFCURVE",
"442 237 OFFCURVE",
"420 237 CURVE SMOOTH",
"343 237 OFFCURVE",
"218 222 OFFCURVE",
"192 135 CURVE SMOOTH",
"190 128 OFFCURVE",
"188 121 OFFCURVE",
"188 114 CURVE SMOOTH",
"188 92 OFFCURVE",
"205 58 OFFCURVE",
"230 58 CURVE SMOOTH",
"232 58 OFFCURVE",
"236 58 OFFCURVE",
"236 61 CURVE SMOOTH",
"236 67 OFFCURVE",
"221 73 OFFCURVE",
"221 92 CURVE SMOOTH",
"221 101 OFFCURVE",
"224 109 OFFCURVE",
"229 117 CURVE SMOOTH",
"269 178 OFFCURVE",
"405 188 OFFCURVE",
"473 188 CURVE SMOOTH",
"498 188 OFFCURVE",
"523 186 OFFCURVE",
"548 180 CURVE",
"548 178 OFFCURVE",
"548 175 OFFCURVE",
"548 173 CURVE SMOOTH",
"548 169 OFFCURVE",
"548 165 OFFCURVE",
"547 161 CURVE SMOOTH",
"524 50 OFFCURVE",
"345 20 OFFCURVE",
"252 20 CURVE SMOOTH",
"164 20 OFFCURVE",
"71 49 OFFCURVE",
"71 154 CURVE SMOOTH",
"71 198 OFFCURVE",
"88 243 OFFCURVE",
"111 281 CURVE SMOOTH",
"178 395 OFFCURVE",
"304 483 OFFCURVE",
"441 483 CURVE SMOOTH",
"488 483 OFFCURVE",
"532 466 OFFCURVE",
"532 413 CURVE SMOOTH",
"532 359 OFFCURVE",
"488 324 OFFCURVE",
"488 309 CURVE SMOOTH",
"488 306 OFFCURVE",
"490 303 OFFCURVE",
"493 303 CURVE SMOOTH",
"499 303 OFFCURVE",
"505 308 OFFCURVE",
"509 311 CURVE SMOOTH",
"545 336 OFFCURVE",
"587 378 OFFCURVE",
"587 424 CURVE SMOOTH",
"587 484 OFFCURVE",
"522 506 OFFCURVE",
"472 506 CURVE SMOOTH",
"289 506 OFFCURVE",
"19 345 OFFCURVE",
"19 141 CURVE SMOOTH",
"19 24 OFFCURVE",
"114 -36 OFFCURVE",
"222 -36 CURVE SMOOTH",
"330 -36 OFFCURVE",
"562 34 OFFCURVE",
"562 168 CURVE SMOOTH",
"562 171 OFFCURVE",
"562 174 OFFCURVE",
"561 176 CURVE",
"574 173 OFFCURVE",
"594 166 OFFCURVE",
"602 155 CURVE SMOOTH",
"603 154 OFFCURVE",
"602 151 OFFCURVE",
"605 151 CURVE SMOOTH",
"609 151 OFFCURVE",
"611 163 OFFCURVE",
"611 166 CURVE SMOOTH"
);
},
{
closed = 1;
nodes = (
"667 614 OFFCURVE",
"659 619 OFFCURVE",
"649 613 CURVE SMOOTH",
"615 592 OFFCURVE",
"499 553 OFFCURVE",
"496 620 CURVE SMOOTH",
"495 629 OFFCURVE",
"462 603 OFFCURVE",
"463 594 CURVE SMOOTH",
"466 511 OFFCURVE",
"609 569 OFFCURVE",
"658 607 CURVE SMOOTH"
);
}
);
width = 600;
}
);
note = Gbreve;
unicode = 011E;
},
{
color = 0;
glyphname = Gcircumflex;
lastChange = "2021-04-19 21:32:36 +0000";
layers = (
{
hints = (
{
horizontal = 1;
place = "{-36, 55}";
type = Stem;
},
{
horizontal = 1;
place = "{185, 52}";
type = Stem;
},
{
horizontal = 1;
place = "{482, 24}";
type = Stem;
},
{
place = "{19, 52}";
type = Stem;
},
{
place = "{189, 32}";
type = Stem;
},
{
place = "{532, 55}";
type = Stem;
},
{
horizontal = 1;
place = "{661, -20}";
target = down;
type = TopGhost;
}
);
layerId = "D7866281-830A-4E76-BB32-392A4BC3306E";
paths = (
{
closed = 1;
nodes = (
"611 212 OFFCURVE",
"519 229 OFFCURVE",
"487 233 CURVE SMOOTH",
"465 236 OFFCURVE",
"442 237 OFFCURVE",
"420 237 CURVE SMOOTH",
"343 237 OFFCURVE",
"218 222 OFFCURVE",
"192 135 CURVE SMOOTH",
"190 128 OFFCURVE",
"188 121 OFFCURVE",
"188 114 CURVE SMOOTH",
"188 92 OFFCURVE",
"205 58 OFFCURVE",
"230 58 CURVE SMOOTH",
"232 58 OFFCURVE",
"236 58 OFFCURVE",
"236 61 CURVE SMOOTH",
"236 67 OFFCURVE",
"221 73 OFFCURVE",
"221 92 CURVE SMOOTH",
"221 101 OFFCURVE",
"224 109 OFFCURVE",
"229 117 CURVE SMOOTH",
"269 178 OFFCURVE",
"405 188 OFFCURVE",
"473 188 CURVE SMOOTH",
"498 188 OFFCURVE",
"523 186 OFFCURVE",
"548 180 CURVE",
"548 178 OFFCURVE",
"548 175 OFFCURVE",
"548 173 CURVE SMOOTH",
"548 169 OFFCURVE",
"548 165 OFFCURVE",
"547 161 CURVE SMOOTH",
"524 50 OFFCURVE",
"345 20 OFFCURVE",
"252 20 CURVE SMOOTH",
"164 20 OFFCURVE",
"71 49 OFFCURVE",
"71 154 CURVE SMOOTH",
"71 198 OFFCURVE",
"88 243 OFFCURVE",
"111 281 CURVE SMOOTH",
"178 395 OFFCURVE",
"304 483 OFFCURVE",
"441 483 CURVE SMOOTH",
"488 483 OFFCURVE",
"532 466 OFFCURVE",
"532 413 CURVE SMOOTH",
"532 359 OFFCURVE",
"488 324 OFFCURVE",
"488 309 CURVE SMOOTH",
"488 306 OFFCURVE",
"490 303 OFFCURVE",
"493 303 CURVE SMOOTH",
"499 303 OFFCURVE",
"505 308 OFFCURVE",
"509 311 CURVE SMOOTH",
"545 336 OFFCURVE",
"587 378 OFFCURVE",
"587 424 CURVE SMOOTH",
"587 484 OFFCURVE",
"522 506 OFFCURVE",
"472 506 CURVE SMOOTH",
"289 506 OFFCURVE",
"19 345 OFFCURVE",
"19 141 CURVE SMOOTH",
"19 24 OFFCURVE",
"114 -36 OFFCURVE",
"222 -36 CURVE SMOOTH",
"330 -36 OFFCURVE",
"562 34 OFFCURVE",
"562 168 CURVE SMOOTH",
"562 171 OFFCURVE",
"562 174 OFFCURVE",
"561 176 CURVE",
"574 173 OFFCURVE",
"594 166 OFFCURVE",
"602 155 CURVE SMOOTH",
"603 154 OFFCURVE",
"602 151 OFFCURVE",
"605 151 CURVE SMOOTH",
"609 151 OFFCURVE",
"611 163 OFFCURVE",
"611 166 CURVE SMOOTH"
);
},
{
closed = 1;
nodes = (
"639 565 OFFCURVE",
"637 566 OFFCURVE",
"636 567 CURVE SMOOTH",
"606 593 OFFCURVE",
"588 625 OFFCURVE",
"569 659 CURVE",
"568 660 OFFCURVE",
"567 661 OFFCURVE",
"565 661 CURVE SMOOTH",
"555 661 OFFCURVE",
"430 593 OFFCURVE",
"416 583 CURVE SMOOTH",
"412 580 OFFCURVE",
"410 573 OFFCURVE",
"410 569 CURVE SMOOTH",
"410 566 OFFCURVE",
"411 563 OFFCURVE",
"414 563 CURVE SMOOTH",
"423 563 OFFCURVE",
"529 616 OFFCURVE",
"544 624 CURVE",
"556 613 OFFCURVE",
"612 562 OFFCURVE",
"624 562 CURVE SMOOTH",
"633 561 LINE",
"633 561 OFFCURVE",
"639 561 OFFCURVE",
"639 563 CURVE SMOOTH"
);
}
);
width = 600;
}
);
note = Gcircumflex;
unicode = 011C;
},
{
color = 0;
glyphname = Gdotaccent;
lastChange = "2021-04-19 21:32:36 +0000";
layers = (
{
hints = (
{
horizontal = 1;
place = "{-36, 55}";
type = Stem;
},
{
horizontal = 1;
place = "{185, 52}";
type = Stem;
},
{
horizontal = 1;
place = "{482, 24}";
type = Stem;
},
{
place = "{19, 52}";
type = Stem;
},
{
place = "{189, 32}";
type = Stem;
},
{
place = "{532, 55}";
type = Stem;
},
{
horizontal = 1;
place = "{569, 84}";
type = Stem;
}
);
layerId = "D7866281-830A-4E76-BB32-392A4BC3306E";
paths = (
{
closed = 1;
nodes = (
"611 212 OFFCURVE",
"519 229 OFFCURVE",
"487 233 CURVE SMOOTH",
"465 236 OFFCURVE",
"442 237 OFFCURVE",
"420 237 CURVE SMOOTH",
"343 237 OFFCURVE",
"218 222 OFFCURVE",
"192 135 CURVE SMOOTH",
"190 128 OFFCURVE",
"188 121 OFFCURVE",
"188 114 CURVE SMOOTH",
"188 92 OFFCURVE",
"205 58 OFFCURVE",
"230 58 CURVE SMOOTH",
"232 58 OFFCURVE",
"236 58 OFFCURVE",
"236 61 CURVE SMOOTH",
"236 67 OFFCURVE",
"221 73 OFFCURVE",
"221 92 CURVE SMOOTH",
"221 101 OFFCURVE",
"224 109 OFFCURVE",
"229 117 CURVE SMOOTH",
"269 178 OFFCURVE",
"405 188 OFFCURVE",
"473 188 CURVE SMOOTH",
"498 188 OFFCURVE",
"523 186 OFFCURVE",
"548 180 CURVE",
"548 178 OFFCURVE",
"548 175 OFFCURVE",
"548 173 CURVE SMOOTH",
"548 169 OFFCURVE",
"548 165 OFFCURVE",
"547 161 CURVE SMOOTH",
"524 50 OFFCURVE",
"345 20 OFFCURVE",
"252 20 CURVE SMOOTH",
"164 20 OFFCURVE",
"71 49 OFFCURVE",
"71 154 CURVE SMOOTH",
"71 198 OFFCURVE",
"88 243 OFFCURVE",
"111 281 CURVE SMOOTH",
"178 395 OFFCURVE",
"304 483 OFFCURVE",
"441 483 CURVE SMOOTH",
"488 483 OFFCURVE",
"532 466 OFFCURVE",
"532 413 CURVE SMOOTH",
"532 359 OFFCURVE",
"488 324 OFFCURVE",
"488 309 CURVE SMOOTH",
"488 306 OFFCURVE",
"490 303 OFFCURVE",
"493 303 CURVE SMOOTH",
"499 303 OFFCURVE",
"505 308 OFFCURVE",
"509 311 CURVE SMOOTH",
"545 336 OFFCURVE",
"587 378 OFFCURVE",
"587 424 CURVE SMOOTH",
"587 484 OFFCURVE",
"522 506 OFFCURVE",
"472 506 CURVE SMOOTH",
"289 506 OFFCURVE",
"19 345 OFFCURVE",
"19 141 CURVE SMOOTH",
"19 24 OFFCURVE",
"114 -36 OFFCURVE",
"222 -36 CURVE SMOOTH",
"330 -36 OFFCURVE",
"562 34 OFFCURVE",
"562 168 CURVE SMOOTH",
"562 171 OFFCURVE",
"562 174 OFFCURVE",
"561 176 CURVE",
"574 173 OFFCURVE",
"594 166 OFFCURVE",
"602 155 CURVE SMOOTH",
"603 154 OFFCURVE",
"602 151 OFFCURVE",
"605 151 CURVE SMOOTH",
"609 151 OFFCURVE",
"611 163 OFFCURVE",
"611 166 CURVE SMOOTH"
);
},
{
closed = 1;
nodes = (
"569 569 OFFCURVE",
"564 598 OFFCURVE",
"567 607 CURVE SMOOTH",
"570 621 OFFCURVE",
"574 628 OFFCURVE",
"583 639 CURVE SMOOTH",
"584 640 OFFCURVE",
"584 642 OFFCURVE",
"584 643 CURVE SMOOTH",
"584 649 OFFCURVE",
"578 652 OFFCURVE",
"573 652 CURVE SMOOTH",
"558 652 OFFCURVE",
"505 622 OFFCURVE",
"505 604 CURVE SMOOTH",
"505 589 OFFCURVE",
"543 569 OFFCURVE",
"556 569 CURVE SMOOTH"
);
}
);
width = 600;
}
);
note = Gdotaccent;
unicode = 0120;
},
{
color = 0;
glyphname = H;
lastChange = "2021-04-19 21:32:36 +0000";
layers = (
{
layerId = "D7866281-830A-4E76-BB32-392A4BC3306E";
paths = (
{
closed = 1;
nodes = (
"477 222 OFFCURVE",
"475 228 OFFCURVE",
"472 234 CURVE",
"452 271 OFFCURVE",
"379 282 OFFCURVE",
"342 286 CURVE",
"318 289 OFFCURVE",
"293 290 OFFCURVE",
"269 290 CURVE",
"259 290 OFFCURVE",
"249 290 OFFCURVE",
"239 289 CURVE",
"260 317 OFFCURVE",
"281 344 OFFCURVE",
"302 371 CURVE",
"323 397 OFFCURVE",
"345 422 OFFCURVE",
"365 448 CURVE",
"369 452 OFFCURVE",
"375 460 OFFCURVE",
"376 466 CURVE",
"377 475 OFFCURVE",
"359 477 OFFCURVE",
"353 476 CURVE",
"345 476 OFFCURVE",
"321 472 OFFCURVE",
"314 470 CURVE",
"301 465 OFFCURVE",
"274 432 OFFCURVE",
"274 419 CURVE",
"274 411 OFFCURVE",
"278 405 OFFCURVE",
"283 400 CURVE",
"260 362 OFFCURVE",
"235 325 OFFCURVE",
"212 288 CURVE",
"145 282 OFFCURVE",
"46 261 OFFCURVE",
"22 188 CURVE",
"19 182 OFFCURVE",
"18 175 OFFCURVE",
"18 168 CURVE",
"18 144 OFFCURVE",
"37 112 OFFCURVE",
"64 112 CURVE",
"65 112 OFFCURVE",
"70 112 OFFCURVE",
"70 114 CURVE",
"70 120 OFFCURVE",
"53 126 OFFCURVE",
"53 145 CURVE",
"53 192 OFFCURVE",
"137 219 OFFCURVE",
"173 227 CURVE",
"152 194 OFFCURVE",
"33 8 OFFCURVE",
"33 -17 CURVE",
"33 -20 OFFCURVE",
"34 -26 OFFCURVE",
"39 -26 CURVE",
"47 -26 OFFCURVE",
"57 -8 OFFCURVE",
"61 -2 CURVE",
"105 78 OFFCURVE",
"159 158 OFFCURVE",
"209 234 CURVE",
"251 241 OFFCURVE",
"285 242 OFFCURVE",
"327 242 CURVE",
"362 242 OFFCURVE",
"429 235 OFFCURVE",
"459 215 CURVE",
"465 212 OFFCURVE",
"467 207 OFFCURVE",
"469 204 CURVE",
"458 184 OFFCURVE",
"449 169 OFFCURVE",
"445 160 CURVE",
"422 118 OFFCURVE",
"399 73 OFFCURVE",
"383 27 CURVE",
"380 18 OFFCURVE",
"384 9 OFFCURVE",
"384 -1 CURVE",
"384 -3 OFFCURVE",
"384 -11 OFFCURVE",
"389 -11 CURVE",
"393 -11 OFFCURVE",
"397 -3 OFFCURVE",
"398 0 CURVE",
"427 64 OFFCURVE",
"457 126 OFFCURVE",
"493 186 CURVE",
"553 287 OFFCURVE",
"622 380 OFFCURVE",
"692 474 CURVE",
"695 478 OFFCURVE",
"700 484 OFFCURVE",
"700 490 CURVE",
"700 497 OFFCURVE",
"686 498 OFFCURVE",
"681 498 CURVE",
"676 498 OFFCURVE",
"667 496 OFFCURVE",
"662 494 CURVE",
"632 480 OFFCURVE",
"530 310 OFFCURVE",
"476 216 CURVE"
);
}
);
width = 507;
}
);
unicode = 0048;
},
{
color = 0;
glyphname = Hbar;
lastChange = "2021-04-19 21:32:36 +0000";
layers = (
{
hints = (
{
horizontal = 1;
place = "{241, 235}";
type = Stem;
},
{
horizontal = 1;
place = "{498, -20}";
target = down;
type = TopGhost;
},
{
place = "{18, 35}";
type = Stem;
},
{
horizontal = 1;
place = "{363, 41}";
type = Stem;
},
{
place = "{196, 507}";
type = Stem;
}
);
layerId = "D7866281-830A-4E76-BB32-392A4BC3306E";
paths = (
{
closed = 1;
nodes = (
"477 222 OFFCURVE",
"475 228 OFFCURVE",
"472 234 CURVE SMOOTH",
"452 271 OFFCURVE",
"379 282 OFFCURVE",
"342 286 CURVE SMOOTH",
"318 289 OFFCURVE",
"293 290 OFFCURVE",
"269 290 CURVE SMOOTH",
"259 290 OFFCURVE",
"249 290 OFFCURVE",
"239 289 CURVE",
"260 317 OFFCURVE",
"281 344 OFFCURVE",
"302 371 CURVE SMOOTH",
"323 397 OFFCURVE",
"345 422 OFFCURVE",
"365 448 CURVE",
"369 452 OFFCURVE",
"375 460 OFFCURVE",
"376 466 CURVE SMOOTH",
"377 475 OFFCURVE",
"359 477 OFFCURVE",
"353 476 CURVE SMOOTH",
"345 476 OFFCURVE",
"321 472 OFFCURVE",
"314 470 CURVE SMOOTH",
"301 465 OFFCURVE",
"274 432 OFFCURVE",
"274 419 CURVE SMOOTH",
"274 411 OFFCURVE",
"278 405 OFFCURVE",
"283 400 CURVE",
"260 362 OFFCURVE",
"235 325 OFFCURVE",
"212 288 CURVE",
"145 282 OFFCURVE",
"46 261 OFFCURVE",
"22 188 CURVE",
"19 182 OFFCURVE",
"18 175 OFFCURVE",
"18 168 CURVE SMOOTH",
"18 144 OFFCURVE",
"37 112 OFFCURVE",
"64 112 CURVE SMOOTH",
"65 112 OFFCURVE",
"70 112 OFFCURVE",
"70 114 CURVE SMOOTH",
"70 120 OFFCURVE",
"53 126 OFFCURVE",
"53 145 CURVE SMOOTH",
"53 192 OFFCURVE",
"137 219 OFFCURVE",
"173 227 CURVE",
"152 194 OFFCURVE",
"33 8 OFFCURVE",
"33 -17 CURVE SMOOTH",
"33 -20 OFFCURVE",
"34 -26 OFFCURVE",
"39 -26 CURVE SMOOTH",
"47 -26 OFFCURVE",
"57 -8 OFFCURVE",
"61 -2 CURVE SMOOTH",
"105 78 OFFCURVE",
"159 158 OFFCURVE",
"209 234 CURVE",
"251 241 OFFCURVE",
"285 242 OFFCURVE",
"327 242 CURVE SMOOTH",
"362 242 OFFCURVE",
"429 235 OFFCURVE",
"459 215 CURVE",
"465 212 OFFCURVE",
"467 207 OFFCURVE",
"469 204 CURVE",
"458 184 OFFCURVE",
"449 169 OFFCURVE",
"445 160 CURVE SMOOTH",
"422 118 OFFCURVE",
"399 73 OFFCURVE",
"383 27 CURVE SMOOTH",
"380 18 OFFCURVE",
"384 9 OFFCURVE",
"384 -1 CURVE SMOOTH",
"384 -3 OFFCURVE",
"384 -11 OFFCURVE",
"389 -11 CURVE SMOOTH",
"393 -11 OFFCURVE",
"397 -3 OFFCURVE",
"398 0 CURVE SMOOTH",
"427 64 OFFCURVE",
"457 126 OFFCURVE",
"493 186 CURVE SMOOTH",
"553 287 OFFCURVE",
"622 380 OFFCURVE",
"692 474 CURVE SMOOTH",
"695 478 OFFCURVE",
"700 484 OFFCURVE",
"700 490 CURVE SMOOTH",
"700 497 OFFCURVE",
"686 498 OFFCURVE",
"681 498 CURVE SMOOTH",
"676 498 OFFCURVE",
"667 496 OFFCURVE",
"662 494 CURVE SMOOTH",
"632 480 OFFCURVE",
"530 310 OFFCURVE",
"476 216 CURVE"
);
},
{
closed = 1;
nodes = (
"571 404 LINE",
"243 402 LINE SMOOTH",
"221 402 OFFCURVE",
"196 390 OFFCURVE",
"196 380 CURVE SMOOTH",
"196 364 OFFCURVE",
"235 363 OFFCURVE",
"259 363 CURVE SMOOTH",
"325 363 OFFCURVE",
"703 373 OFFCURVE",
"703 400 CURVE SMOOTH",
"703 404 OFFCURVE",
"689 404 OFFCURVE",
"686 404 CURVE SMOOTH"
);
}
);
width = 507;
}
);
note = Hbar;
unicode = 0126;
},
{
color = 0;
glyphname = Hcircumflex;
lastChange = "2021-04-19 21:32:36 +0000";
layers = (
{
hints = (
{
horizontal = 1;
place = "{241, 235}";
type = Stem;
},
{
horizontal = 1;
place = "{498, -20}";
target = down;
type = TopGhost;
},
{
place = "{18, 35}";
type = Stem;
},
{
horizontal = 1;
place = "{655, -20}";
target = down;
type = TopGhost;
}
);
layerId = "D7866281-830A-4E76-BB32-392A4BC3306E";
paths = (
{
closed = 1;
nodes = (
"477 222 OFFCURVE",
"475 228 OFFCURVE",
"472 234 CURVE SMOOTH",
"452 271 OFFCURVE",
"379 282 OFFCURVE",
"342 286 CURVE SMOOTH",
"318 289 OFFCURVE",
"293 290 OFFCURVE",
"269 290 CURVE SMOOTH",
"259 290 OFFCURVE",
"249 290 OFFCURVE",
"239 289 CURVE",
"260 317 OFFCURVE",
"281 344 OFFCURVE",
"302 371 CURVE SMOOTH",
"323 397 OFFCURVE",
"345 422 OFFCURVE",
"365 448 CURVE",
"369 452 OFFCURVE",
"375 460 OFFCURVE",
"376 466 CURVE SMOOTH",
"377 475 OFFCURVE",
"359 477 OFFCURVE",
"353 476 CURVE SMOOTH",
"345 476 OFFCURVE",
"321 472 OFFCURVE",
"314 470 CURVE SMOOTH",
"301 465 OFFCURVE",
"274 432 OFFCURVE",
"274 419 CURVE SMOOTH",
"274 411 OFFCURVE",
"278 405 OFFCURVE",
"283 400 CURVE",
"260 362 OFFCURVE",
"235 325 OFFCURVE",
"212 288 CURVE",
"145 282 OFFCURVE",
"46 261 OFFCURVE",
"22 188 CURVE",
"19 182 OFFCURVE",
"18 175 OFFCURVE",
"18 168 CURVE SMOOTH",
"18 144 OFFCURVE",
"37 112 OFFCURVE",
"64 112 CURVE SMOOTH",
"65 112 OFFCURVE",
"70 112 OFFCURVE",
"70 114 CURVE SMOOTH",
"70 120 OFFCURVE",
"53 126 OFFCURVE",
"53 145 CURVE SMOOTH",
"53 192 OFFCURVE",
"137 219 OFFCURVE",
"173 227 CURVE",
"152 194 OFFCURVE",
"33 8 OFFCURVE",
"33 -17 CURVE SMOOTH",
"33 -20 OFFCURVE",
"34 -26 OFFCURVE",
"39 -26 CURVE SMOOTH",
"47 -26 OFFCURVE",
"57 -8 OFFCURVE",
"61 -2 CURVE SMOOTH",
"105 78 OFFCURVE",
"159 158 OFFCURVE",
"209 234 CURVE",
"251 241 OFFCURVE",
"285 242 OFFCURVE",
"327 242 CURVE SMOOTH",
"362 242 OFFCURVE",
"429 235 OFFCURVE",
"459 215 CURVE",
"465 212 OFFCURVE",
"467 207 OFFCURVE",
"469 204 CURVE",
"458 184 OFFCURVE",
"449 169 OFFCURVE",
"445 160 CURVE SMOOTH",
"422 118 OFFCURVE",
"399 73 OFFCURVE",
"383 27 CURVE SMOOTH",
"380 18 OFFCURVE",
"384 9 OFFCURVE",
"384 -1 CURVE SMOOTH",
"384 -3 OFFCURVE",
"384 -11 OFFCURVE",
"389 -11 CURVE SMOOTH",
"393 -11 OFFCURVE",
"397 -3 OFFCURVE",
"398 0 CURVE SMOOTH",
"427 64 OFFCURVE",
"457 126 OFFCURVE",
"493 186 CURVE SMOOTH",
"553 287 OFFCURVE",
"622 380 OFFCURVE",
"692 474 CURVE SMOOTH",
"695 478 OFFCURVE",
"700 484 OFFCURVE",
"700 490 CURVE SMOOTH",
"700 497 OFFCURVE",
"686 498 OFFCURVE",
"681 498 CURVE SMOOTH",
"676 498 OFFCURVE",
"667 496 OFFCURVE",
"662 494 CURVE SMOOTH",
"632 480 OFFCURVE",
"530 310 OFFCURVE",
"476 216 CURVE"
);
},
{
closed = 1;
nodes = (
"676 559 OFFCURVE",
"674 560 OFFCURVE",
"673 561 CURVE SMOOTH",
"643 587 OFFCURVE",
"625 619 OFFCURVE",
"606 653 CURVE",
"605 654 OFFCURVE",
"604 655 OFFCURVE",
"602 655 CURVE SMOOTH",
"592 655 OFFCURVE",
"467 587 OFFCURVE",
"453 577 CURVE SMOOTH",
"449 574 OFFCURVE",
"447 567 OFFCURVE",
"447 563 CURVE SMOOTH",
"447 560 OFFCURVE",
"448 557 OFFCURVE",
"451 557 CURVE SMOOTH",
"460 557 OFFCURVE",
"566 610 OFFCURVE",
"581 618 CURVE",
"593 607 OFFCURVE",
"649 556 OFFCURVE",
"661 556 CURVE SMOOTH",
"670 555 LINE",
"670 555 OFFCURVE",
"676 555 OFFCURVE",
"676 557 CURVE SMOOTH"
);
}
);
width = 507;
}
);
note = Hcircumflex;
unicode = 0124;
},
{
color = 0;
glyphname = I;
lastChange = "2021-04-19 21:32:36 +0000";
layers = (
{
layerId = "D7866281-830A-4E76-BB32-392A4BC3306E";
paths = (
{
closed = 1;
nodes = (
"544 420 OFFCURVE",
"544 432 OFFCURVE",
"544 438 CURVE",
"544 489 OFFCURVE",
"455 496 OFFCURVE",
"419 496 CURVE",
"368 496 OFFCURVE",
"299 487 OFFCURVE",
"252 465 CURVE",
"231 456 OFFCURVE",
"219 437 OFFCURVE",
"219 414 CURVE",
"219 396 OFFCURVE",
"226 370 OFFCURVE",
"247 370 CURVE",
"248 370 OFFCURVE",
"250 371 OFFCURVE",
"250 371 CURVE",
"250 372 OFFCURVE",
"237 381 OFFCURVE",
"237 393 CURVE",
"237 443 OFFCURVE",
"415 459 OFFCURVE",
"449 459 CURVE",
"466 459 OFFCURVE",
"533 458 OFFCURVE",
"533 432 CURVE",
"533 429 OFFCURVE",
"531 427 OFFCURVE",
"531 425 CURVE",
"531 421 OFFCURVE",
"533 420 OFFCURVE",
"536 420 CURVE"
);
},
{
closed = 1;
nodes = (
"239 196 OFFCURVE",
"341 297 OFFCURVE",
"448 423 CURVE",
"451 426 OFFCURVE",
"455 431 OFFCURVE",
"454 436 CURVE",
"454 444 OFFCURVE",
"430 447 OFFCURVE",
"421 446 CURVE",
"418 446 OFFCURVE",
"412 446 OFFCURVE",
"410 445 CURVE",
"323 381 OFFCURVE",
"179 130 OFFCURVE",
"141 64 CURVE",
"87 63 OFFCURVE",
"-35 42 OFFCURVE",
"-35 -32 CURVE",
"-35 -42 OFFCURVE",
"-24 -73 OFFCURVE",
"-12 -73 CURVE",
"-11 -73 OFFCURVE",
"-10 -73 OFFCURVE",
"-10 -72 CURVE",
"-10 -71 OFFCURVE",
"-19 -65 OFFCURVE",
"-19 -53 CURVE",
"-19 -6 OFFCURVE",
"91 16 OFFCURVE",
"124 21 CURVE",
"123 19 OFFCURVE",
"123 17 OFFCURVE",
"123 15 CURVE",
"123 13 OFFCURVE",
"123 11 OFFCURVE",
"126 11 CURVE",
"130 11 OFFCURVE",
"136 19 OFFCURVE",
"138 23 CURVE",
"156 25 OFFCURVE",
"175 26 OFFCURVE",
"194 26 CURVE",
"214 26 OFFCURVE",
"268 25 OFFCURVE",
"279 7 CURVE",
"279 6 OFFCURVE",
"279 6 OFFCURVE",
"280 5 CURVE",
"282 5 OFFCURVE",
"281 7 OFFCURVE",
"281 8 CURVE",
"281 48 OFFCURVE",
"190 62 OFFCURVE",
"161 63 CURVE"
);
}
);
width = 434;
}
);
unicode = 0049;
},
{
color = 0;
glyphname = Idotaccent;
lastChange = "2021-04-19 21:32:36 +0000";
layers = (
{
hints = (
{
horizontal = 1;
place = "{459, 37}";
type = Stem;
},
{
place = "{-35, 16}";
type = Stem;
},
{
place = "{219, 19}";
type = Stem;
},
{
place = "{533, 11}";
type = Stem;
},
{
horizontal = 1;
place = "{546, 84}";
type = Stem;
}
);
layerId = "D7866281-830A-4E76-BB32-392A4BC3306E";
paths = (
{
closed = 1;
nodes = (
"544 420 OFFCURVE",
"544 432 OFFCURVE",
"544 438 CURVE SMOOTH",
"544 489 OFFCURVE",
"455 496 OFFCURVE",
"419 496 CURVE SMOOTH",
"368 496 OFFCURVE",
"299 487 OFFCURVE",
"252 465 CURVE SMOOTH",
"231 456 OFFCURVE",
"219 437 OFFCURVE",
"219 414 CURVE SMOOTH",
"219 396 OFFCURVE",
"226 370 OFFCURVE",
"247 370 CURVE SMOOTH",
"248 370 OFFCURVE",
"250 371 OFFCURVE",
"250 371 CURVE",
"250 372 OFFCURVE",
"237 381 OFFCURVE",
"237 393 CURVE SMOOTH",
"237 443 OFFCURVE",
"415 459 OFFCURVE",
"449 459 CURVE SMOOTH",
"466 459 OFFCURVE",
"533 458 OFFCURVE",
"533 432 CURVE SMOOTH",
"533 429 OFFCURVE",
"531 427 OFFCURVE",
"531 425 CURVE SMOOTH",
"531 421 OFFCURVE",
"533 420 OFFCURVE",
"536 420 CURVE SMOOTH"
);
},
{
closed = 1;
nodes = (
"239 196 OFFCURVE",
"341 297 OFFCURVE",
"448 423 CURVE SMOOTH",
"451 426 OFFCURVE",
"455 431 OFFCURVE",
"454 436 CURVE",
"454 444 OFFCURVE",
"430 447 OFFCURVE",
"421 446 CURVE SMOOTH",
"418 446 OFFCURVE",
"412 446 OFFCURVE",
"410 445 CURVE SMOOTH",
"323 381 OFFCURVE",
"179 130 OFFCURVE",
"141 64 CURVE",
"87 63 OFFCURVE",
"-35 42 OFFCURVE",
"-35 -32 CURVE SMOOTH",
"-35 -42 OFFCURVE",
"-24 -73 OFFCURVE",
"-12 -73 CURVE SMOOTH",
"-11 -73 OFFCURVE",
"-10 -73 OFFCURVE",
"-10 -72 CURVE SMOOTH",
"-10 -71 OFFCURVE",
"-19 -65 OFFCURVE",
"-19 -53 CURVE SMOOTH",
"-19 -6 OFFCURVE",
"91 16 OFFCURVE",
"124 21 CURVE",
"123 19 OFFCURVE",
"123 17 OFFCURVE",
"123 15 CURVE SMOOTH",
"123 13 OFFCURVE",
"123 11 OFFCURVE",
"126 11 CURVE SMOOTH",
"130 11 OFFCURVE",
"136 19 OFFCURVE",
"138 23 CURVE",
"156 25 OFFCURVE",
"175 26 OFFCURVE",
"194 26 CURVE SMOOTH",
"214 26 OFFCURVE",
"268 25 OFFCURVE",
"279 7 CURVE",
"279 6 OFFCURVE",
"279 6 OFFCURVE",
"280 5 CURVE",
"282 5 OFFCURVE",
"281 7 OFFCURVE",
"281 8 CURVE SMOOTH",
"281 48 OFFCURVE",
"190 62 OFFCURVE",
"161 63 CURVE"
);
},
{
closed = 1;
nodes = (
"511 546 OFFCURVE",
"506 575 OFFCURVE",
"509 584 CURVE SMOOTH",
"512 598 OFFCURVE",
"516 605 OFFCURVE",
"525 616 CURVE SMOOTH",
"526 617 OFFCURVE",
"526 619 OFFCURVE",
"526 620 CURVE SMOOTH",
"526 626 OFFCURVE",
"520 629 OFFCURVE",
"515 629 CURVE SMOOTH",
"500 629 OFFCURVE",
"447 599 OFFCURVE",
"447 581 CURVE SMOOTH",
"447 566 OFFCURVE",
"485 546 OFFCURVE",
"498 546 CURVE SMOOTH"
);
}
);
width = 434;
}
);
note = Idotaccent;
unicode = 0130;
},
{
color = 0;
glyphname = Imacron;
lastChange = "2021-04-19 21:32:36 +0000";
layers = (
{
hints = (
{
horizontal = 1;
place = "{459, 37}";
type = Stem;
},
{
place = "{-35, 16}";
type = Stem;
},
{
place = "{219, 19}";
type = Stem;
},
{
place = "{533, 11}";
type = Stem;
},
{
horizontal = 1;
place = "{560, 31}";
type = Stem;
},
{
place = "{411, 184}";
type = Stem;
}
);
layerId = "D7866281-830A-4E76-BB32-392A4BC3306E";
paths = (
{
closed = 1;
nodes = (
"544 420 OFFCURVE",
"544 432 OFFCURVE",
"544 438 CURVE SMOOTH",
"544 489 OFFCURVE",
"455 496 OFFCURVE",
"419 496 CURVE SMOOTH",
"368 496 OFFCURVE",
"299 487 OFFCURVE",
"252 465 CURVE SMOOTH",
"231 456 OFFCURVE",
"219 437 OFFCURVE",
"219 414 CURVE SMOOTH",
"219 396 OFFCURVE",
"226 370 OFFCURVE",
"247 370 CURVE SMOOTH",
"248 370 OFFCURVE",
"250 371 OFFCURVE",
"250 371 CURVE",
"250 372 OFFCURVE",
"237 381 OFFCURVE",
"237 393 CURVE SMOOTH",
"237 443 OFFCURVE",
"415 459 OFFCURVE",
"449 459 CURVE SMOOTH",
"466 459 OFFCURVE",
"533 458 OFFCURVE",
"533 432 CURVE SMOOTH",
"533 429 OFFCURVE",
"531 427 OFFCURVE",
"531 425 CURVE SMOOTH",
"531 421 OFFCURVE",
"533 420 OFFCURVE",
"536 420 CURVE SMOOTH"
);
},
{
closed = 1;
nodes = (
"239 196 OFFCURVE",
"341 297 OFFCURVE",
"448 423 CURVE SMOOTH",
"451 426 OFFCURVE",
"455 431 OFFCURVE",
"454 436 CURVE",
"454 444 OFFCURVE",
"430 447 OFFCURVE",
"421 446 CURVE SMOOTH",
"418 446 OFFCURVE",
"412 446 OFFCURVE",
"410 445 CURVE SMOOTH",
"323 381 OFFCURVE",
"179 130 OFFCURVE",
"141 64 CURVE",
"87 63 OFFCURVE",
"-35 42 OFFCURVE",
"-35 -32 CURVE SMOOTH",
"-35 -42 OFFCURVE",
"-24 -73 OFFCURVE",
"-12 -73 CURVE SMOOTH",
"-11 -73 OFFCURVE",
"-10 -73 OFFCURVE",
"-10 -72 CURVE SMOOTH",
"-10 -71 OFFCURVE",
"-19 -65 OFFCURVE",
"-19 -53 CURVE SMOOTH",
"-19 -6 OFFCURVE",
"91 16 OFFCURVE",
"124 21 CURVE",
"123 19 OFFCURVE",
"123 17 OFFCURVE",
"123 15 CURVE SMOOTH",
"123 13 OFFCURVE",
"123 11 OFFCURVE",
"126 11 CURVE SMOOTH",
"130 11 OFFCURVE",
"136 19 OFFCURVE",
"138 23 CURVE",
"156 25 OFFCURVE",
"175 26 OFFCURVE",
"194 26 CURVE SMOOTH",
"214 26 OFFCURVE",
"268 25 OFFCURVE",
"279 7 CURVE",
"279 6 OFFCURVE",
"279 6 OFFCURVE",
"280 5 CURVE",
"282 5 OFFCURVE",
"281 7 OFFCURVE",
"281 8 CURVE SMOOTH",
"281 48 OFFCURVE",
"190 62 OFFCURVE",
"161 63 CURVE"
);
},
{
closed = 1;
nodes = (
"547 591 LINE",
"428 590 LINE SMOOTH",
"420 590 OFFCURVE",
"411 581 OFFCURVE",
"411 573 CURVE SMOOTH",
"411 561 OFFCURVE",
"425 560 OFFCURVE",
"434 560 CURVE SMOOTH",
"458 560 OFFCURVE",
"595 568 OFFCURVE",
"595 588 CURVE SMOOTH",
"595 591 OFFCURVE",
"590 591 OFFCURVE",
"589 591 CURVE SMOOTH"
);
}
);
width = 434;
}
);
note = Imacron;
unicode = 012A;
},
{
color = 0;
glyphname = Iogonek;
lastChange = "2021-04-19 21:32:36 +0000";
layers = (
{
components = (
{
name = ogonek;
transform = "{1, 0, 0, 1, -73, 29}";
}
);
hints = (
{
horizontal = 1;
place = "{459, 37}";
type = Stem;
},
{
place = "{-35, 16}";
type = Stem;
},
{
place = "{219, 19}";
type = Stem;
},
{
place = "{533, 11}";
type = Stem;
},
{
horizontal = 1;
place = "{26, 24}";
type = Stem;
},
{
place = "{-69, 44}";
type = Stem;
},
{
place = "{101, 55}";
type = Stem;
}
);
layerId = "D7866281-830A-4E76-BB32-392A4BC3306E";
paths = (
{
closed = 1;
nodes = (
"544 420 OFFCURVE",
"544 432 OFFCURVE",
"544 438 CURVE SMOOTH",
"544 489 OFFCURVE",
"455 496 OFFCURVE",
"419 496 CURVE SMOOTH",
"368 496 OFFCURVE",
"299 487 OFFCURVE",
"252 465 CURVE SMOOTH",
"231 456 OFFCURVE",
"219 437 OFFCURVE",
"219 414 CURVE SMOOTH",
"219 396 OFFCURVE",
"226 370 OFFCURVE",
"247 370 CURVE SMOOTH",
"248 370 OFFCURVE",
"250 371 OFFCURVE",
"250 371 CURVE",
"250 372 OFFCURVE",
"237 381 OFFCURVE",
"237 393 CURVE SMOOTH",
"237 443 OFFCURVE",
"415 459 OFFCURVE",
"449 459 CURVE SMOOTH",
"466 459 OFFCURVE",
"533 458 OFFCURVE",
"533 432 CURVE SMOOTH",
"533 429 OFFCURVE",
"531 427 OFFCURVE",
"531 425 CURVE SMOOTH",
"531 421 OFFCURVE",
"533 420 OFFCURVE",
"536 420 CURVE SMOOTH"
);
},
{
closed = 1;
nodes = (
"239 196 OFFCURVE",
"341 297 OFFCURVE",
"448 423 CURVE SMOOTH",
"451 426 OFFCURVE",
"455 431 OFFCURVE",
"454 436 CURVE",
"454 444 OFFCURVE",
"430 447 OFFCURVE",
"421 446 CURVE SMOOTH",
"418 446 OFFCURVE",
"412 446 OFFCURVE",
"410 445 CURVE SMOOTH",
"323 381 OFFCURVE",
"179 130 OFFCURVE",
"141 64 CURVE",
"87 63 OFFCURVE",
"-35 42 OFFCURVE",
"-35 -32 CURVE SMOOTH",
"-35 -42 OFFCURVE",
"-24 -73 OFFCURVE",
"-12 -73 CURVE SMOOTH",
"-11 -73 OFFCURVE",
"-10 -73 OFFCURVE",
"-10 -72 CURVE SMOOTH",
"-10 -71 OFFCURVE",
"-19 -65 OFFCURVE",
"-19 -53 CURVE SMOOTH",
"-19 -6 OFFCURVE",
"91 16 OFFCURVE",
"124 21 CURVE",
"123 19 OFFCURVE",
"123 17 OFFCURVE",
"123 15 CURVE SMOOTH",
"123 13 OFFCURVE",
"123 11 OFFCURVE",
"126 11 CURVE SMOOTH",
"130 11 OFFCURVE",
"136 19 OFFCURVE",
"138 23 CURVE",
"156 25 OFFCURVE",
"175 26 OFFCURVE",
"194 26 CURVE SMOOTH",
"214 26 OFFCURVE",
"268 25 OFFCURVE",
"279 7 CURVE",
"279 6 OFFCURVE",
"279 6 OFFCURVE",
"280 5 CURVE",
"282 5 OFFCURVE",
"281 7 OFFCURVE",
"281 8 CURVE SMOOTH",
"281 48 OFFCURVE",
"190 62 OFFCURVE",
"161 63 CURVE"
);
}
);
width = 434;
}
);
note = Iogonek;
unicode = 012E;
},
{
color = 0;
glyphname = Itilde;
lastChange = "2021-04-19 21:32:36 +0000";
layers = (
{
hints = (
{
horizontal = 1;
place = "{459, 37}";
type = Stem;
},
{
place = "{-35, 16}";
type = Stem;
},
{
place = "{219, 19}";
type = Stem;
},
{
place = "{533, 11}";
type = Stem;
},
{
horizontal = 1;
place = "{574, 22}";
type = Stem;
}
);
layerId = "D7866281-830A-4E76-BB32-392A4BC3306E";
paths = (
{
closed = 1;
nodes = (
"544 420 OFFCURVE",
"544 432 OFFCURVE",
"544 438 CURVE SMOOTH",
"544 489 OFFCURVE",
"455 496 OFFCURVE",
"419 496 CURVE SMOOTH",
"368 496 OFFCURVE",
"299 487 OFFCURVE",
"252 465 CURVE SMOOTH",
"231 456 OFFCURVE",
"219 437 OFFCURVE",
"219 414 CURVE SMOOTH",
"219 396 OFFCURVE",
"226 370 OFFCURVE",
"247 370 CURVE SMOOTH",
"248 370 OFFCURVE",
"250 371 OFFCURVE",
"250 371 CURVE",
"250 372 OFFCURVE",
"237 381 OFFCURVE",
"237 393 CURVE SMOOTH",
"237 443 OFFCURVE",
"415 459 OFFCURVE",
"449 459 CURVE SMOOTH",
"466 459 OFFCURVE",
"533 458 OFFCURVE",
"533 432 CURVE SMOOTH",
"533 429 OFFCURVE",
"531 427 OFFCURVE",
"531 425 CURVE SMOOTH",
"531 421 OFFCURVE",
"533 420 OFFCURVE",
"536 420 CURVE SMOOTH"
);
},
{
closed = 1;
nodes = (
"239 196 OFFCURVE",
"341 297 OFFCURVE",
"448 423 CURVE SMOOTH",
"451 426 OFFCURVE",
"455 431 OFFCURVE",
"454 436 CURVE",
"454 444 OFFCURVE",
"430 447 OFFCURVE",
"421 446 CURVE SMOOTH",
"418 446 OFFCURVE",
"412 446 OFFCURVE",
"410 445 CURVE SMOOTH",
"323 381 OFFCURVE",
"179 130 OFFCURVE",
"141 64 CURVE",
"87 63 OFFCURVE",
"-35 42 OFFCURVE",
"-35 -32 CURVE SMOOTH",
"-35 -42 OFFCURVE",
"-24 -73 OFFCURVE",
"-12 -73 CURVE SMOOTH",
"-11 -73 OFFCURVE",
"-10 -73 OFFCURVE",
"-10 -72 CURVE SMOOTH",
"-10 -71 OFFCURVE",
"-19 -65 OFFCURVE",
"-19 -53 CURVE SMOOTH",
"-19 -6 OFFCURVE",
"91 16 OFFCURVE",
"124 21 CURVE",
"123 19 OFFCURVE",
"123 17 OFFCURVE",
"123 15 CURVE SMOOTH",
"123 13 OFFCURVE",
"123 11 OFFCURVE",
"126 11 CURVE SMOOTH",
"130 11 OFFCURVE",
"136 19 OFFCURVE",
"138 23 CURVE",
"156 25 OFFCURVE",
"175 26 OFFCURVE",
"194 26 CURVE SMOOTH",
"214 26 OFFCURVE",
"268 25 OFFCURVE",
"279 7 CURVE",
"279 6 OFFCURVE",
"279 6 OFFCURVE",
"280 5 CURVE",
"282 5 OFFCURVE",
"281 7 OFFCURVE",
"281 8 CURVE SMOOTH",
"281 48 OFFCURVE",
"190 62 OFFCURVE",
"161 63 CURVE"
);
},
{
closed = 1;
nodes = (
"556 561 OFFCURVE",
"572 591 OFFCURVE",
"568 601 CURVE",
"568 603 OFFCURVE",
"567 603 OFFCURVE",
"566 603 CURVE SMOOTH",
"561 603 OFFCURVE",
"553 586 OFFCURVE",
"539 586 CURVE SMOOTH",
"519 584 OFFCURVE",
"458 597 OFFCURVE",
"438 596 CURVE SMOOTH",
"411 594 OFFCURVE",
"399 566 OFFCURVE",
"404 553 CURVE",
"405 552 OFFCURVE",
"405 552 OFFCURVE",
"406 552 CURVE SMOOTH",
"414 552 OFFCURVE",
"409 573 OFFCURVE",
"425 574 CURVE SMOOTH",
"446 575 OFFCURVE",
"508 558 OFFCURVE",
"529 559 CURVE SMOOTH"
);
}
);
width = 434;
}
);
note = Itilde;
unicode = 0128;
},
{
color = 0;
glyphname = J;
lastChange = "2021-04-19 21:32:36 +0000";
layers = (
{
layerId = "D7866281-830A-4E76-BB32-392A4BC3306E";
paths = (
{
closed = 1;
nodes = (
"674 432 OFFCURVE",
"675 444 OFFCURVE",
"675 449 CURVE",
"675 500 OFFCURVE",
"586 507 OFFCURVE",
"549 507 CURVE",
"499 507 OFFCURVE",
"428 498 OFFCURVE",
"383 477 CURVE",
"361 467 OFFCURVE",
"349 449 OFFCURVE",
"349 425 CURVE",
"349 408 OFFCURVE",
"356 382 OFFCURVE",
"377 382 CURVE",
"379 382 OFFCURVE",
"380 382 OFFCURVE",
"380 382 CURVE",
"380 384 OFFCURVE",
"368 392 OFFCURVE",
"368 404 CURVE",
"368 443 OFFCURVE",
"486 462 OFFCURVE",
"513 466 CURVE",
"481 435 OFFCURVE",
"438 342 OFFCURVE",
"418 300 CURVE",
"285 291 OFFCURVE",
"2 180 OFFCURVE",
"2 19 CURVE",
"2 -26 OFFCURVE",
"71 -40 OFFCURVE",
"105 -40 CURVE",
"112 -40 OFFCURVE",
"119 -40 OFFCURVE",
"125 -39 CURVE",
"169 -32 OFFCURVE",
"214 -12 OFFCURVE",
"249 15 CURVE",
"333 80 OFFCURVE",
"366 168 OFFCURVE",
"414 259 CURVE",
"435 264 OFFCURVE",
"457 268 OFFCURVE",
"479 268 CURVE",
"501 268 OFFCURVE",
"511 258 OFFCURVE",
"512 258 CURVE",
"513 258 OFFCURVE",
"513 259 OFFCURVE",
"513 260 CURVE",
"513 261 OFFCURVE",
"513 262 OFFCURVE",
"512 264 CURVE",
"497 291 OFFCURVE",
"463 298 OFFCURVE",
"434 300 CURVE",
"460 351 OFFCURVE",
"500 438 OFFCURVE",
"549 469 CURVE",
"559 470 OFFCURVE",
"570 470 OFFCURVE",
"580 470 CURVE",
"596 470 OFFCURVE",
"663 469 OFFCURVE",
"663 443 CURVE",
"663 441 OFFCURVE",
"662 438 OFFCURVE",
"662 436 CURVE",
"662 433 OFFCURVE",
"664 432 OFFCURVE",
"667 432 CURVE"
);
},
{
closed = 1;
nodes = (
"344 153 OFFCURVE",
"241 -20 OFFCURVE",
"111 -20 CURVE",
"87 -20 OFFCURVE",
"57 -12 OFFCURVE",
"57 17 CURVE",
"57 29 OFFCURVE",
"62 40 OFFCURVE",
"68 50 CURVE",
"111 136 OFFCURVE",
"304 230 OFFCURVE",
"396 255 CURVE"
);
}
);
width = 465;
}
);
unicode = 004A;
},
{
color = 0;
glyphname = Jcircumflex;
lastChange = "2021-04-19 21:32:36 +0000";
layers = (
{
hints = (
{
horizontal = 1;
place = "{-40, 20}";
type = Stem;
},
{
horizontal = 1;
place = "{470, 37}";
type = Stem;
},
{
place = "{2, 55}";
type = Stem;
},
{
place = "{349, 19}";
type = Stem;
},
{
place = "{663, 11}";
type = Stem;
},
{
horizontal = 1;
place = "{659, -20}";
target = down;
type = TopGhost;
}
);
layerId = "D7866281-830A-4E76-BB32-392A4BC3306E";
paths = (
{
closed = 1;
nodes = (
"674 432 OFFCURVE",
"675 444 OFFCURVE",
"675 449 CURVE SMOOTH",
"675 500 OFFCURVE",
"586 507 OFFCURVE",
"549 507 CURVE SMOOTH",
"499 507 OFFCURVE",
"428 498 OFFCURVE",
"383 477 CURVE SMOOTH",
"361 467 OFFCURVE",
"349 449 OFFCURVE",
"349 425 CURVE SMOOTH",
"349 408 OFFCURVE",
"356 382 OFFCURVE",
"377 382 CURVE SMOOTH",
"379 382 OFFCURVE",
"380 382 OFFCURVE",
"380 382 CURVE",
"380 384 OFFCURVE",
"368 392 OFFCURVE",
"368 404 CURVE SMOOTH",
"368 443 OFFCURVE",
"486 462 OFFCURVE",
"513 466 CURVE",
"481 435 OFFCURVE",
"438 342 OFFCURVE",
"418 300 CURVE",
"285 291 OFFCURVE",
"2 180 OFFCURVE",
"2 19 CURVE SMOOTH",
"2 -26 OFFCURVE",
"71 -40 OFFCURVE",
"105 -40 CURVE SMOOTH",
"112 -40 OFFCURVE",
"119 -40 OFFCURVE",
"125 -39 CURVE SMOOTH",
"169 -32 OFFCURVE",
"214 -12 OFFCURVE",
"249 15 CURVE SMOOTH",
"333 80 OFFCURVE",
"366 168 OFFCURVE",
"414 259 CURVE",
"435 264 OFFCURVE",
"457 268 OFFCURVE",
"479 268 CURVE SMOOTH",
"501 268 OFFCURVE",
"511 258 OFFCURVE",
"512 258 CURVE SMOOTH",
"513 258 OFFCURVE",
"513 259 OFFCURVE",
"513 260 CURVE SMOOTH",
"513 261 OFFCURVE",
"513 262 OFFCURVE",
"512 264 CURVE SMOOTH",
"497 291 OFFCURVE",
"463 298 OFFCURVE",
"434 300 CURVE",
"460 351 OFFCURVE",
"500 438 OFFCURVE",
"549 469 CURVE",
"559 470 OFFCURVE",
"570 470 OFFCURVE",
"580 470 CURVE SMOOTH",
"596 470 OFFCURVE",
"663 469 OFFCURVE",
"663 443 CURVE SMOOTH",
"663 441 OFFCURVE",
"662 438 OFFCURVE",
"662 436 CURVE SMOOTH",
"662 433 OFFCURVE",
"664 432 OFFCURVE",
"667 432 CURVE SMOOTH"
);
},
{
closed = 1;
nodes = (
"344 153 OFFCURVE",
"241 -20 OFFCURVE",
"111 -20 CURVE SMOOTH",
"87 -20 OFFCURVE",
"57 -12 OFFCURVE",
"57 17 CURVE SMOOTH",
"57 29 OFFCURVE",
"62 40 OFFCURVE",
"68 50 CURVE SMOOTH",
"111 136 OFFCURVE",
"304 230 OFFCURVE",
"396 255 CURVE"
);
},
{
closed = 1;
nodes = (
"703 563 OFFCURVE",
"701 564 OFFCURVE",
"700 565 CURVE SMOOTH",
"670 591 OFFCURVE",
"652 623 OFFCURVE",
"633 657 CURVE",
"632 658 OFFCURVE",
"631 659 OFFCURVE",
"629 659 CURVE SMOOTH",
"619 659 OFFCURVE",
"494 591 OFFCURVE",
"480 581 CURVE SMOOTH",
"476 578 OFFCURVE",
"474 571 OFFCURVE",
"474 567 CURVE SMOOTH",
"474 564 OFFCURVE",
"475 561 OFFCURVE",
"478 561 CURVE SMOOTH",
"487 561 OFFCURVE",
"593 614 OFFCURVE",
"608 622 CURVE",
"620 611 OFFCURVE",
"676 560 OFFCURVE",
"688 560 CURVE SMOOTH",
"697 559 LINE",
"697 559 OFFCURVE",
"703 559 OFFCURVE",
"703 561 CURVE SMOOTH"
);
}
);
width = 465;
}
);
note = Jcircumflex;
unicode = 0134;
},
{
color = 0;
glyphname = K;
lastChange = "2021-04-19 21:32:36 +0000";
layers = (
{
layerId = "D7866281-830A-4E76-BB32-392A4BC3306E";
paths = (
{
closed = 1;
nodes = (
"258 235 OFFCURVE",
"289 273 OFFCURVE",
"323 303 CURVE",
"398 368 OFFCURVE",
"537 442 OFFCURVE",
"631 477 CURVE",
"648 484 OFFCURVE",
"666 489 OFFCURVE",
"684 495 CURVE",
"687 496 OFFCURVE",
"690 497 OFFCURVE",
"690 500 CURVE",
"690 505 OFFCURVE",
"685 505 OFFCURVE",
"682 505 CURVE",
"671 505 OFFCURVE",
"654 499 OFFCURVE",
"643 496 CURVE",
"547 465 OFFCURVE",
"398 386 OFFCURVE",
"313 329 CURVE",
"259 292 OFFCURVE",
"188 236 OFFCURVE",
"188 165 CURVE",
"188 51 OFFCURVE",
"372 -52 OFFCURVE",
"469 -61 CURVE",
"473 -61 LINE",
"477 -61 OFFCURVE",
"481 -59 OFFCURVE",
"481 -54 CURVE",
"481 -51 OFFCURVE",
"479 -48 OFFCURVE",
"476 -47 CURVE",
"463 -42 OFFCURVE",
"451 -38 OFFCURVE",
"438 -32 CURVE",
"373 2 OFFCURVE",
"288 77 OFFCURVE",
"265 148 CURVE",
"260 161 OFFCURVE",
"258 174 OFFCURVE",
"258 188 CURVE"
);
},
{
closed = 1;
nodes = (
"344 449 OFFCURVE",
"317 464 OFFCURVE",
"306 464 CURVE",
"292 464 OFFCURVE",
"160 259 OFFCURVE",
"146 237 CURVE",
"121 198 OFFCURVE",
"97 158 OFFCURVE",
"74 117 CURVE",
"52 80 OFFCURVE",
"29 40 OFFCURVE",
"16 -2 CURVE",
"15 -4 OFFCURVE",
"15 -6 OFFCURVE",
"15 -8 CURVE",
"15 -12 OFFCURVE",
"16 -15 OFFCURVE",
"20 -15 CURVE",
"28 -15 OFFCURVE",
"32 -9 OFFCURVE",
"36 -3 CURVE",
"77 62 OFFCURVE",
"116 128 OFFCURVE",
"159 193 CURVE",
"217 280 OFFCURVE",
"281 363 OFFCURVE",
"351 440 CURVE"
);
}
);
width = 423;
}
);
unicode = 004B;
},
{
color = 0;
glyphname = L;
lastChange = "2021-04-19 21:32:36 +0000";
layers = (
{
layerId = "D7866281-830A-4E76-BB32-392A4BC3306E";
paths = (
{
closed = 1;
nodes = (
"443 66 OFFCURVE",
"441 65 OFFCURVE",
"439 64 CURVE",
"375 33 OFFCURVE",
"247 3 OFFCURVE",
"177 3 CURVE",
"144 3 OFFCURVE",
"83 8 OFFCURVE",
"83 52 CURVE",
"83 114 OFFCURVE",
"233 320 OFFCURVE",
"275 377 CURVE",
"306 420 OFFCURVE",
"338 462 OFFCURVE",
"373 503 CURVE",
"373 503 OFFCURVE",
"375 505 OFFCURVE",
"375 506 CURVE",
"375 510 OFFCURVE",
"368 510 OFFCURVE",
"366 510 CURVE",
"356 510 OFFCURVE",
"348 507 OFFCURVE",
"340 500 CURVE",
"320 482 OFFCURVE",
"300 455 OFFCURVE",
"282 435 CURVE",
"214 354 OFFCURVE",
"49 149 OFFCURVE",
"16 55 CURVE",
"14 48 OFFCURVE",
"12 41 OFFCURVE",
"12 34 CURVE",
"12 -23 OFFCURVE",
"119 -23 OFFCURVE",
"157 -23 CURVE",
"216 -23 OFFCURVE",
"339 -10 OFFCURVE",
"396 7 CURVE",
"417 13 OFFCURVE",
"453 29 OFFCURVE",
"453 56 CURVE",
"453 61 OFFCURVE",
"451 66 OFFCURVE",
"445 66 CURVE"
);
}
);
width = 469;
}
);
unicode = 004C;
},
{
color = 0;
glyphname = Lacute;
lastChange = "2021-04-19 21:32:36 +0000";
layers = (
{
hints = (
{
horizontal = 1;
place = "{-23, 25}";
type = Stem;
},
{
horizontal = 1;
place = "{510, -20}";
target = down;
type = TopGhost;
},
{
place = "{12, 71}";
type = Stem;
}
);
layerId = "D7866281-830A-4E76-BB32-392A4BC3306E";
paths = (
{
closed = 1;
nodes = (
"443 66 OFFCURVE",
"441 65 OFFCURVE",
"439 64 CURVE SMOOTH",
"375 33 OFFCURVE",
"247 3 OFFCURVE",
"177 3 CURVE SMOOTH",
"144 3 OFFCURVE",
"83 8 OFFCURVE",
"83 52 CURVE SMOOTH",
"83 114 OFFCURVE",
"233 320 OFFCURVE",
"275 377 CURVE SMOOTH",
"306 420 OFFCURVE",
"338 462 OFFCURVE",
"373 503 CURVE",
"373 503 OFFCURVE",
"375 505 OFFCURVE",
"375 506 CURVE SMOOTH",
"375 510 OFFCURVE",
"368 510 OFFCURVE",
"366 510 CURVE SMOOTH",
"356 510 OFFCURVE",
"348 507 OFFCURVE",
"340 500 CURVE SMOOTH",
"320 482 OFFCURVE",
"300 455 OFFCURVE",
"282 435 CURVE SMOOTH",
"214 354 OFFCURVE",
"49 149 OFFCURVE",
"16 55 CURVE SMOOTH",
"14 48 OFFCURVE",
"12 41 OFFCURVE",
"12 34 CURVE SMOOTH",
"12 -23 OFFCURVE",
"119 -23 OFFCURVE",
"157 -23 CURVE SMOOTH",
"216 -23 OFFCURVE",
"339 -10 OFFCURVE",
"396 7 CURVE SMOOTH",
"417 13 OFFCURVE",
"453 29 OFFCURVE",
"453 56 CURVE SMOOTH",
"453 61 OFFCURVE",
"451 66 OFFCURVE",
"445 66 CURVE SMOOTH"
);
},
{
closed = 1;
nodes = (
"406 576 OFFCURVE",
"520 635 OFFCURVE",
"544 642 CURVE SMOOTH",
"550 644 OFFCURVE",
"563 648 OFFCURVE",
"563 655 CURVE SMOOTH",
"563 665 OFFCURVE",
"546 669 OFFCURVE",
"539 669 CURVE SMOOTH",
"518 669 OFFCURVE",
"397 598 OFFCURVE",
"397 581 CURVE SMOOTH",
"397 578 OFFCURVE",
"399 576 OFFCURVE",
"402 576 CURVE SMOOTH"
);
}
);
width = 469;
}
);
note = Lacute;
unicode = 0139;
},
{
color = 0;
glyphname = Lslash;
lastChange = "2021-04-19 21:32:36 +0000";
layers = (
{
hints = (
{
horizontal = 1;
place = "{-23, 25}";
type = Stem;
},
{
horizontal = 1;
place = "{510, -20}";
target = down;
type = TopGhost;
},
{
place = "{12, 71}";
type = Stem;
}
);
layerId = "D7866281-830A-4E76-BB32-392A4BC3306E";
paths = (
{
closed = 1;
nodes = (
"230 242 LINE",
"175 234 LINE",
"214 294 OFFCURVE",
"256 351 OFFCURVE",
"275 377 CURVE SMOOTH",
"306 420 OFFCURVE",
"338 462 OFFCURVE",
"373 503 CURVE",
"373 503 OFFCURVE",
"375 505 OFFCURVE",
"375 506 CURVE SMOOTH",
"375 510 OFFCURVE",
"368 510 OFFCURVE",
"366 510 CURVE SMOOTH",
"356 510 OFFCURVE",
"348 507 OFFCURVE",
"340 500 CURVE SMOOTH",
"320 482 OFFCURVE",
"300 455 OFFCURVE",
"282 435 CURVE SMOOTH",
"244 390 OFFCURVE",
"176 306 OFFCURVE",
"117 224 CURVE",
"24 209 LINE SMOOTH",
"16 208 OFFCURVE",
"9 198 OFFCURVE",
"10 190 CURVE SMOOTH",
"12 178 OFFCURVE",
"26 179 OFFCURVE",
"35 180 CURVE SMOOTH",
"43 182 LINE SMOOTH",
"60 185 OFFCURVE",
"77 188 OFFCURVE",
"94 191 CURVE",
"58 139 OFFCURVE",
"28 89 OFFCURVE",
"16 55 CURVE SMOOTH",
"14 48 OFFCURVE",
"12 41 OFFCURVE",
"12 34 CURVE SMOOTH",
"12 -23 OFFCURVE",
"119 -23 OFFCURVE",
"157 -23 CURVE SMOOTH",
"216 -23 OFFCURVE",
"339 -10 OFFCURVE",
"396 7 CURVE SMOOTH",
"417 13 OFFCURVE",
"453 29 OFFCURVE",
"453 56 CURVE SMOOTH",
"453 61 OFFCURVE",
"451 66 OFFCURVE",
"445 66 CURVE SMOOTH",
"443 66 OFFCURVE",
"441 65 OFFCURVE",
"439 64 CURVE SMOOTH",
"375 33 OFFCURVE",
"247 3 OFFCURVE",
"177 3 CURVE SMOOTH",
"144 3 OFFCURVE",
"83 8 OFFCURVE",
"83 52 CURVE SMOOTH",
"83 81 OFFCURVE",
"116 142 OFFCURVE",
"156 204 CURVE",
"170 207 OFFCURVE",
"184 210 OFFCURVE",
"199 213 CURVE SMOOTH",
"223 219 OFFCURVE",
"251 223 OFFCURVE",
"274 232 CURVE SMOOTH",
"278 234 OFFCURVE",
"297 244 OFFCURVE",
"296 250 CURVE SMOOTH",
"296 253 OFFCURVE",
"290 252 OFFCURVE",
"289 252 CURVE SMOOTH"
);
}
);
width = 469;
}
);
note = Lslash;
unicode = 0141;
},
{
color = 0;
glyphname = M;
lastChange = "2021-04-19 21:32:36 +0000";
layers = (
{
layerId = "D7866281-830A-4E76-BB32-392A4BC3306E";
paths = (
{
closed = 1;
nodes = (
"869 479 OFFCURVE",
"847 496 OFFCURVE",
"812 496 CURVE",
"730 496 OFFCURVE",
"615 390 OFFCURVE",
"557 335 CURVE",
"577 365 OFFCURVE",
"598 407 OFFCURVE",
"598 443 CURVE",
"598 478 OFFCURVE",
"579 497 OFFCURVE",
"545 497 CURVE",
"429 497 OFFCURVE",
"232 285 OFFCURVE",
"155 201 CURVE",
"207 284 OFFCURVE",
"265 388 OFFCURVE",
"334 459 CURVE",
"336 461 OFFCURVE",
"338 463 OFFCURVE",
"338 466 CURVE",
"338 483 OFFCURVE",
"299 491 OFFCURVE",
"288 491 CURVE",
"279 491 OFFCURVE",
"271 489 OFFCURVE",
"265 483 CURVE",
"250 468 OFFCURVE",
"232 435 OFFCURVE",
"221 417 CURVE",
"180 350 OFFCURVE",
"143 282 OFFCURVE",
"106 213 CURVE",
"69 142 OFFCURVE",
"33 70 OFFCURVE",
"3 -5 CURVE",
"2 -6 OFFCURVE",
"2 -8 OFFCURVE",
"2 -9 CURVE",
"2 -17 OFFCURVE",
"12 -20 OFFCURVE",
"18 -20 CURVE",
"24 -20 OFFCURVE",
"29 -19 OFFCURVE",
"32 -13 CURVE",
"37 -5 OFFCURVE",
"41 4 OFFCURVE",
"46 13 CURVE",
"56 29 OFFCURVE",
"66 45 OFFCURVE",
"77 60 CURVE",
"137 147 OFFCURVE",
"210 227 OFFCURVE",
"284 303 CURVE",
"324 343 OFFCURVE",
"398 406 OFFCURVE",
"444 437 CURVE",
"464 450 OFFCURVE",
"502 467 OFFCURVE",
"526 467 CURVE",
"536 467 OFFCURVE",
"549 457 OFFCURVE",
"549 445 CURVE",
"549 396 OFFCURVE",
"338 148 OFFCURVE",
"338 67 CURVE",
"338 45 OFFCURVE",
"348 27 OFFCURVE",
"373 27 CURVE",
"380 27 OFFCURVE",
"386 35 OFFCURVE",
"393 38 CURVE",
"388 52 OFFCURVE",
"408 91 OFFCURVE",
"414 103 CURVE",
"434 143 OFFCURVE",
"457 182 OFFCURVE",
"484 217 CURVE",
"547 301 OFFCURVE",
"627 375 OFFCURVE",
"711 437 CURVE",
"731 451 OFFCURVE",
"761 470 OFFCURVE",
"787 470 CURVE",
"802 470 OFFCURVE",
"816 455 OFFCURVE",
"816 439 CURVE",
"816 421 OFFCURVE",
"805 400 OFFCURVE",
"796 385 CURVE",
"756 317 OFFCURVE",
"586 78 OFFCURVE",
"586 15 CURVE",
"586 -6 OFFCURVE",
"597 -25 OFFCURVE",
"620 -25 CURVE",
"628 -25 OFFCURVE",
"633 -17 OFFCURVE",
"640 -13 CURVE",
"640 -12 OFFCURVE",
"640 -10 OFFCURVE",
"640 -9 CURVE",
"640 32 OFFCURVE",
"804 299 OFFCURVE",
"835 349 CURVE",
"851 376 OFFCURVE",
"869 411 OFFCURVE",
"869 443 CURVE"
);
}
);
width = 735;
}
);
unicode = 004D;
},
{
color = 0;
glyphname = N;
lastChange = "2021-04-19 21:32:36 +0000";
layers = (
{
layerId = "D7866281-830A-4E76-BB32-392A4BC3306E";
paths = (
{
closed = 1;
nodes = (
"371 28 OFFCURVE",
"526 284 OFFCURVE",
"557 335 CURVE",
"576 367 OFFCURVE",
"597 407 OFFCURVE",
"597 444 CURVE",
"597 478 OFFCURVE",
"579 498 OFFCURVE",
"545 498 CURVE",
"429 498 OFFCURVE",
"231 285 OFFCURVE",
"155 201 CURVE",
"193 261 OFFCURVE",
"232 321 OFFCURVE",
"272 380 CURVE",
"294 412 OFFCURVE",
"316 444 OFFCURVE",
"341 473 CURVE",
"379 520 OFFCURVE",
"295 526 OFFCURVE",
"278 503 CURVE",
"247 463 OFFCURVE",
"221 417 OFFCURVE",
"195 374 CURVE",
"127 258 OFFCURVE",
"51 121 OFFCURVE",
"3 -5 CURVE",
"-1 -19 OFFCURVE",
"32 -13 OFFCURVE",
"32 -13 CURVE",
"104 130 OFFCURVE",
"308 340 OFFCURVE",
"440 437 CURVE",
"456 449 OFFCURVE",
"491 467 OFFCURVE",
"511 467 CURVE",
"521 467 OFFCURVE",
"532 456 OFFCURVE",
"532 445 CURVE",
"535 377 OFFCURVE",
"323 88 OFFCURVE",
"314 14 CURVE",
"311 -10 OFFCURVE",
"328 -26 OFFCURVE",
"353 -26 CURVE",
"361 -26 OFFCURVE",
"365 -17 OFFCURVE",
"373 -13 CURVE",
"372 -12 OFFCURVE",
"371 -10 OFFCURVE",
"371 -8 CURVE"
);
}
);
width = 484;
}
);
unicode = 004E;
},
{
color = 0;
glyphname = Nacute;
lastChange = "2021-04-19 21:32:36 +0000";
layers = (
{
hints = (
{
horizontal = 1;
place = "{468, 30}";
type = Stem;
},
{
place = "{532, 65}";
type = Stem;
}
);
layerId = "D7866281-830A-4E76-BB32-392A4BC3306E";
paths = (
{
closed = 1;
nodes = (
"371 28 OFFCURVE",
"526 284 OFFCURVE",
"557 335 CURVE SMOOTH",
"576 367 OFFCURVE",
"597 407 OFFCURVE",
"597 444 CURVE SMOOTH",
"597 478 OFFCURVE",
"579 498 OFFCURVE",
"545 498 CURVE SMOOTH",
"429 498 OFFCURVE",
"231 285 OFFCURVE",
"155 201 CURVE",
"193 261 OFFCURVE",
"232 321 OFFCURVE",
"272 380 CURVE SMOOTH",
"294 412 OFFCURVE",
"316 444 OFFCURVE",
"341 473 CURVE SMOOTH",
"379 520 OFFCURVE",
"295 526 OFFCURVE",
"278 503 CURVE SMOOTH",
"247 463 OFFCURVE",
"221 417 OFFCURVE",
"195 374 CURVE SMOOTH",
"127 258 OFFCURVE",
"51 121 OFFCURVE",
"3 -5 CURVE",
"-1 -19 OFFCURVE",
"32 -13 OFFCURVE",
"32 -13 CURVE",
"104 130 OFFCURVE",
"308 340 OFFCURVE",
"440 437 CURVE SMOOTH",
"456 449 OFFCURVE",
"491 467 OFFCURVE",
"511 467 CURVE SMOOTH",
"521 467 OFFCURVE",
"532 456 OFFCURVE",
"532 445 CURVE SMOOTH",
"535 377 OFFCURVE",
"323 88 OFFCURVE",
"314 14 CURVE SMOOTH",
"311 -10 OFFCURVE",
"328 -26 OFFCURVE",
"353 -26 CURVE SMOOTH",
"361 -26 OFFCURVE",
"365 -17 OFFCURVE",
"373 -13 CURVE",
"372 -12 OFFCURVE",
"371 -10 OFFCURVE",
"371 -8 CURVE SMOOTH"
);
},
{
closed = 1;
nodes = (
"502 558 OFFCURVE",
"616 617 OFFCURVE",
"640 624 CURVE SMOOTH",
"646 626 OFFCURVE",
"659 630 OFFCURVE",
"659 637 CURVE SMOOTH",
"659 647 OFFCURVE",
"642 651 OFFCURVE",
"635 651 CURVE SMOOTH",
"614 651 OFFCURVE",
"493 580 OFFCURVE",
"493 563 CURVE SMOOTH",
"493 560 OFFCURVE",
"495 558 OFFCURVE",
"498 558 CURVE SMOOTH"
);
}
);
width = 484;
}
);
note = Nacute;
unicode = 0143;
},
{
color = 0;
glyphname = Ncaron;
lastChange = "2021-04-19 21:32:36 +0000";
layers = (
{
hints = (
{
horizontal = 1;
place = "{468, 30}";
type = Stem;
},
{
place = "{532, 65}";
type = Stem;
}
);
layerId = "D7866281-830A-4E76-BB32-392A4BC3306E";
paths = (
{
closed = 1;
nodes = (
"371 28 OFFCURVE",
"526 284 OFFCURVE",
"557 335 CURVE SMOOTH",
"576 367 OFFCURVE",
"597 407 OFFCURVE",
"597 444 CURVE SMOOTH",
"597 478 OFFCURVE",
"579 498 OFFCURVE",
"545 498 CURVE SMOOTH",
"429 498 OFFCURVE",
"231 285 OFFCURVE",
"155 201 CURVE",
"193 261 OFFCURVE",
"232 321 OFFCURVE",
"272 380 CURVE SMOOTH",
"294 412 OFFCURVE",
"316 444 OFFCURVE",
"341 473 CURVE SMOOTH",
"379 520 OFFCURVE",
"295 526 OFFCURVE",
"278 503 CURVE SMOOTH",
"247 463 OFFCURVE",
"221 417 OFFCURVE",
"195 374 CURVE SMOOTH",
"127 258 OFFCURVE",
"51 121 OFFCURVE",
"3 -5 CURVE",
"-1 -19 OFFCURVE",
"32 -13 OFFCURVE",
"32 -13 CURVE",
"104 130 OFFCURVE",
"308 340 OFFCURVE",
"440 437 CURVE SMOOTH",
"456 449 OFFCURVE",
"491 467 OFFCURVE",
"511 467 CURVE SMOOTH",
"521 467 OFFCURVE",
"532 456 OFFCURVE",
"532 445 CURVE SMOOTH",
"535 377 OFFCURVE",
"323 88 OFFCURVE",
"314 14 CURVE SMOOTH",
"311 -10 OFFCURVE",
"328 -26 OFFCURVE",
"353 -26 CURVE SMOOTH",
"361 -26 OFFCURVE",
"365 -17 OFFCURVE",
"373 -13 CURVE",
"372 -12 OFFCURVE",
"371 -10 OFFCURVE",
"371 -8 CURVE SMOOTH"
);
},
{
closed = 1;
nodes = (
"627 652 OFFCURVE",
"543 612 OFFCURVE",
"515 598 CURVE",
"506 606 OFFCURVE",
"453 660 OFFCURVE",
"443 660 CURVE SMOOTH",
"435 660 OFFCURVE",
"424 662 OFFCURVE",
"432 655 CURVE SMOOTH",
"454 636 OFFCURVE",
"481 597 OFFCURVE",
"493 572 CURVE SMOOTH",
"494 570 OFFCURVE",
"495 570 OFFCURVE",
"496 570 CURVE SMOOTH",
"509 570 OFFCURVE",
"611 630 OFFCURVE",
"632 641 CURVE SMOOTH",
"636 643 OFFCURVE",
"642 652 OFFCURVE",
"633 652 CURVE SMOOTH"
);
}
);
width = 484;
}
);
note = Ncaron;
unicode = 0147;
},
{
color = 0;
glyphname = Eng;
lastChange = "2021-04-19 21:32:36 +0000";
layers = (
{
hints = (
{
horizontal = 1;
place = "{-160, 15}";
type = Stem;
},
{
horizontal = 1;
place = "{301, 73}";
type = Stem;
},
{
place = "{156, 69}";
type = Stem;
},
{
horizontal = 1;
place = "{468, 30}";
type = Stem;
},
{
place = "{532, 65}";
type = Stem;
}
);
layerId = "D7866281-830A-4E76-BB32-392A4BC3306E";
paths = (
{
closed = 1;
nodes = (
"597 478 OFFCURVE",
"579 498 OFFCURVE",
"545 498 CURVE SMOOTH",
"429 498 OFFCURVE",
"231 285 OFFCURVE",
"155 201 CURVE",
"193 261 OFFCURVE",
"232 321 OFFCURVE",
"272 380 CURVE SMOOTH",
"294 412 OFFCURVE",
"316 444 OFFCURVE",
"341 473 CURVE SMOOTH",
"379 520 OFFCURVE",
"295 526 OFFCURVE",
"278 503 CURVE SMOOTH",
"247 463 OFFCURVE",
"221 417 OFFCURVE",
"195 374 CURVE SMOOTH",
"127 258 OFFCURVE",
"51 121 OFFCURVE",
"3 -5 CURVE",
"-1 -19 OFFCURVE",
"32 -13 OFFCURVE",
"32 -13 CURVE",
"104 130 OFFCURVE",
"308 340 OFFCURVE",
"440 437 CURVE SMOOTH",
"456 449 OFFCURVE",
"491 467 OFFCURVE",
"511 467 CURVE SMOOTH",
"521 467 OFFCURVE",
"532 456 OFFCURVE",
"532 445 CURVE SMOOTH",
"535 377 OFFCURVE",
"320 1 OFFCURVE",
"281 -63 CURVE SMOOTH",
"235 -138 OFFCURVE",
"154 -264 OFFCURVE",
"90 -296 CURVE SMOOTH",
"76 -303 OFFCURVE",
"60 -307 OFFCURVE",
"44 -307 CURVE SMOOTH",
"27 -307 OFFCURVE",
"11 -301 OFFCURVE",
"7 -282 CURVE",
"-2 -284 LINE",
"7 -316 OFFCURVE",
"37 -323 OFFCURVE",
"66 -323 CURVE SMOOTH",
"173 -323 OFFCURVE",
"254 -210 OFFCURVE",
"338 -71 CURVE SMOOTH",
"358 -38 OFFCURVE",
"536 284 OFFCURVE",
"557 335 CURVE SMOOTH",
"571 370 OFFCURVE",
"597 407 OFFCURVE",
"597 444 CURVE SMOOTH"
);
}
);
width = 484;
}
);
note = Eng;
unicode = 014A;
},
{
color = 0;
glyphname = O;
lastChange = "2021-04-19 21:32:36 +0000";
layers = (
{
layerId = "D7866281-830A-4E76-BB32-392A4BC3306E";
paths = (
{
closed = 1;
nodes = (
"257 -5 OFFCURVE",
"383 108 OFFCURVE",
"453 213 CURVE",
"488 267 OFFCURVE",
"522 337 OFFCURVE",
"522 402 CURVE",
"522 477 OFFCURVE",
"461 520 OFFCURVE",
"389 520 CURVE",
"214 520 OFFCURVE",
"11 268 OFFCURVE",
"11 102 CURVE",
"11 30 OFFCURVE",
"52 -5 OFFCURVE",
"122 -5 CURVE"
);
},
{
closed = 1;
nodes = (
"465 490 OFFCURVE",
"489 452 OFFCURVE",
"489 402 CURVE",
"489 340 OFFCURVE",
"456 271 OFFCURVE",
"423 221 CURVE",
"372 142 OFFCURVE",
"255 19 OFFCURVE",
"153 19 CURVE",
"99 19 OFFCURVE",
"75 57 OFFCURVE",
"75 108 CURVE",
"75 169 OFFCURVE",
"108 238 OFFCURVE",
"141 289 CURVE",
"192 368 OFFCURVE",
"309 490 OFFCURVE",
"411 490 CURVE"
);
}
);
width = 484;
}
);
unicode = 004F;
},
{
color = 0;
glyphname = Oacute;
lastChange = "2021-04-19 21:32:36 +0000";
layers = (
{
layerId = "D7866281-830A-4E76-BB32-392A4BC3306E";
paths = (
{
closed = 1;
nodes = (
"498 557 OFFCURVE",
"612 616 OFFCURVE",
"637 623 CURVE",
"642 625 OFFCURVE",
"656 629 OFFCURVE",
"656 636 CURVE",
"656 646 OFFCURVE",
"638 650 OFFCURVE",
"631 650 CURVE",
"611 650 OFFCURVE",
"490 579 OFFCURVE",
"490 562 CURVE",
"490 559 OFFCURVE",
"492 557 OFFCURVE",
"495 557 CURVE"
);
},
{
closed = 1;
nodes = (
"257 -5 OFFCURVE",
"383 108 OFFCURVE",
"453 213 CURVE",
"488 267 OFFCURVE",
"522 337 OFFCURVE",
"522 402 CURVE",
"522 477 OFFCURVE",
"461 520 OFFCURVE",
"389 520 CURVE",
"214 520 OFFCURVE",
"11 268 OFFCURVE",
"11 102 CURVE",
"11 30 OFFCURVE",
"52 -5 OFFCURVE",
"122 -5 CURVE"
);
},
{
closed = 1;
nodes = (
"465 490 OFFCURVE",
"489 452 OFFCURVE",
"489 402 CURVE",
"489 340 OFFCURVE",
"456 271 OFFCURVE",
"423 221 CURVE",
"372 142 OFFCURVE",
"255 19 OFFCURVE",
"153 19 CURVE",
"99 19 OFFCURVE",
"75 57 OFFCURVE",
"75 108 CURVE",
"75 169 OFFCURVE",
"108 238 OFFCURVE",
"141 289 CURVE",
"192 368 OFFCURVE",
"309 490 OFFCURVE",
"411 490 CURVE"
);
}
);
width = 467;
}
);
unicode = 00D3;
},
{
color = 0;
glyphname = Ocircumflex;
lastChange = "2021-04-19 21:32:36 +0000";
layers = (
{
layerId = "D7866281-830A-4E76-BB32-392A4BC3306E";
paths = (
{
closed = 1;
nodes = (
"619 564 OFFCURVE",
"617 566 OFFCURVE",
"616 567 CURVE",
"587 593 OFFCURVE",
"569 625 OFFCURVE",
"549 658 CURVE",
"548 660 OFFCURVE",
"547 660 OFFCURVE",
"546 660 CURVE",
"535 660 OFFCURVE",
"410 593 OFFCURVE",
"396 582 CURVE",
"392 580 OFFCURVE",
"390 573 OFFCURVE",
"390 568 CURVE",
"390 565 OFFCURVE",
"391 563 OFFCURVE",
"395 563 CURVE",
"404 563 OFFCURVE",
"509 615 OFFCURVE",
"525 623 CURVE",
"537 612 OFFCURVE",
"592 561 OFFCURVE",
"604 561 CURVE",
"613 561 LINE",
"614 561 OFFCURVE",
"619 561 OFFCURVE",
"619 563 CURVE"
);
},
{
closed = 1;
nodes = (
"257 -5 OFFCURVE",
"383 108 OFFCURVE",
"453 213 CURVE",
"488 267 OFFCURVE",
"522 337 OFFCURVE",
"522 402 CURVE",
"522 477 OFFCURVE",
"461 520 OFFCURVE",
"389 520 CURVE",
"214 520 OFFCURVE",
"11 268 OFFCURVE",
"11 102 CURVE",
"11 30 OFFCURVE",
"52 -5 OFFCURVE",
"122 -5 CURVE"
);
},
{
closed = 1;
nodes = (
"465 490 OFFCURVE",
"489 452 OFFCURVE",
"489 402 CURVE",
"489 340 OFFCURVE",
"456 271 OFFCURVE",
"423 221 CURVE",
"372 142 OFFCURVE",
"255 19 OFFCURVE",
"153 19 CURVE",
"99 19 OFFCURVE",
"75 57 OFFCURVE",
"75 108 CURVE",
"75 169 OFFCURVE",
"108 238 OFFCURVE",
"141 289 CURVE",
"192 368 OFFCURVE",
"309 490 OFFCURVE",
"411 490 CURVE"
);
}
);
width = 467;
}
);
unicode = 00D4;
},
{
color = 0;
glyphname = Ohungarumlaut;
lastChange = "2021-04-19 21:32:36 +0000";
layers = (
{
hints = (
{
horizontal = 1;
place = "{-5, 25}";
type = Stem;
},
{
horizontal = 1;
place = "{490, 30}";
type = Stem;
},
{
place = "{11, 64}";
type = Stem;
},
{
place = "{488, 33}";
type = Stem;
}
);
layerId = "D7866281-830A-4E76-BB32-392A4BC3306E";
paths = (
{
closed = 1;
nodes = (
"257 -5 OFFCURVE",
"383 108 OFFCURVE",
"453 213 CURVE SMOOTH",
"488 267 OFFCURVE",
"522 337 OFFCURVE",
"522 402 CURVE SMOOTH",
"522 477 OFFCURVE",
"461 520 OFFCURVE",
"389 520 CURVE SMOOTH",
"214 520 OFFCURVE",
"11 268 OFFCURVE",
"11 102 CURVE SMOOTH",
"11 30 OFFCURVE",
"52 -5 OFFCURVE",
"122 -5 CURVE SMOOTH"
);
},
{
closed = 1;
nodes = (
"465 490 OFFCURVE",
"489 452 OFFCURVE",
"489 402 CURVE SMOOTH",
"489 340 OFFCURVE",
"456 271 OFFCURVE",
"423 221 CURVE SMOOTH",
"372 142 OFFCURVE",
"255 19 OFFCURVE",
"153 19 CURVE SMOOTH",
"99 19 OFFCURVE",
"75 57 OFFCURVE",
"75 108 CURVE SMOOTH",
"75 169 OFFCURVE",
"108 238 OFFCURVE",
"141 289 CURVE SMOOTH",
"192 368 OFFCURVE",
"309 490 OFFCURVE",
"411 490 CURVE SMOOTH"
);
},
{
closed = 1;
nodes = (
"412 597 OFFCURVE",
"449 702 OFFCURVE",
"462 721 CURVE SMOOTH",
"465 725 OFFCURVE",
"471 735 OFFCURVE",
"465 741 CURVE SMOOTH",
"456 749 OFFCURVE",
"440 743 OFFCURVE",
"434 739 CURVE SMOOTH",
"418 728 OFFCURVE",
"385 610 OFFCURVE",
"400 597 CURVE SMOOTH",
"403 594 OFFCURVE",
"407 594 OFFCURVE",
"409 595 CURVE SMOOTH"
);
},
{
closed = 1;
nodes = (
"519 598 OFFCURVE",
"556 703 OFFCURVE",
"569 721 CURVE SMOOTH",
"572 726 OFFCURVE",
"578 735 OFFCURVE",
"572 741 CURVE SMOOTH",
"563 749 OFFCURVE",
"547 743 OFFCURVE",
"541 739 CURVE SMOOTH",
"525 729 OFFCURVE",
"493 610 OFFCURVE",
"507 597 CURVE SMOOTH",
"511 594 OFFCURVE",
"514 594 OFFCURVE",
"516 595 CURVE"
);
}
);
width = 484;
}
);
note = Ohungarumlaut;
unicode = 0150;
},
{
color = 0;
glyphname = Omacron;
lastChange = "2021-04-19 21:32:36 +0000";
layers = (
{
hints = (
{
horizontal = 1;
place = "{-5, 25}";
type = Stem;
},
{
horizontal = 1;
place = "{490, 30}";
type = Stem;
},
{
place = "{11, 64}";
type = Stem;
},
{
place = "{488, 33}";
type = Stem;
},
{
horizontal = 1;
place = "{574, 31}";
type = Stem;
},
{
place = "{386, 184}";
type = Stem;
}
);
layerId = "D7866281-830A-4E76-BB32-392A4BC3306E";
paths = (
{
closed = 1;
nodes = (
"257 -5 OFFCURVE",
"383 108 OFFCURVE",
"453 213 CURVE SMOOTH",
"488 267 OFFCURVE",
"522 337 OFFCURVE",
"522 402 CURVE SMOOTH",
"522 477 OFFCURVE",
"461 520 OFFCURVE",
"389 520 CURVE SMOOTH",
"214 520 OFFCURVE",
"11 268 OFFCURVE",
"11 102 CURVE SMOOTH",
"11 30 OFFCURVE",
"52 -5 OFFCURVE",
"122 -5 CURVE SMOOTH"
);
},
{
closed = 1;
nodes = (
"465 490 OFFCURVE",
"489 452 OFFCURVE",
"489 402 CURVE SMOOTH",
"489 340 OFFCURVE",
"456 271 OFFCURVE",
"423 221 CURVE SMOOTH",
"372 142 OFFCURVE",
"255 19 OFFCURVE",
"153 19 CURVE SMOOTH",
"99 19 OFFCURVE",
"75 57 OFFCURVE",
"75 108 CURVE SMOOTH",
"75 169 OFFCURVE",
"108 238 OFFCURVE",
"141 289 CURVE SMOOTH",
"192 368 OFFCURVE",
"309 490 OFFCURVE",
"411 490 CURVE SMOOTH"
);
},
{
closed = 1;
nodes = (
"522 605 LINE",
"403 604 LINE SMOOTH",
"395 604 OFFCURVE",
"386 595 OFFCURVE",
"386 587 CURVE SMOOTH",
"386 575 OFFCURVE",
"400 574 OFFCURVE",
"409 574 CURVE SMOOTH",
"433 574 OFFCURVE",
"570 582 OFFCURVE",
"570 602 CURVE SMOOTH",
"570 605 OFFCURVE",
"565 605 OFFCURVE",
"564 605 CURVE SMOOTH"
);
}
);
width = 484;
}
);
note = Omacron;
unicode = 014C;
},
{
color = 0;
glyphname = Oslash;
lastChange = "2021-04-19 21:32:36 +0000";
layers = (
{
layerId = "D7866281-830A-4E76-BB32-392A4BC3306E";
paths = (
{
closed = 1;
nodes = (
"559 605 OFFCURVE",
"528 609 OFFCURVE",
"519 609 CURVE",
"514 609 OFFCURVE",
"463 545 OFFCURVE",
"458 538 CURVE",
"442 543 OFFCURVE",
"426 546 OFFCURVE",
"409 546 CURVE",
"220 546 OFFCURVE",
"8 268 OFFCURVE",
"8 92 CURVE",
"8 51 OFFCURVE",
"21 10 OFFCURVE",
"59 -11 CURVE",
"48 -30 OFFCURVE",
"32 -61 OFFCURVE",
"32 -84 CURVE",
"32 -92 OFFCURVE",
"38 -110 OFFCURVE",
"48 -110 CURVE",
"53 -110 OFFCURVE",
"64 -105 OFFCURVE",
"64 -100 CURVE",
"64 -96 OFFCURVE",
"54 -97 OFFCURVE",
"54 -82 CURVE",
"54 -64 OFFCURVE",
"72 -35 OFFCURVE",
"82 -20 CURVE",
"97 -24 OFFCURVE",
"111 -25 OFFCURVE",
"126 -25 CURVE",
"271 -25 OFFCURVE",
"394 100 OFFCURVE",
"468 213 CURVE",
"506 271 OFFCURVE",
"541 349 OFFCURVE",
"541 419 CURVE",
"541 456 OFFCURVE",
"530 492 OFFCURVE",
"500 516 CURVE",
"518 537 OFFCURVE",
"536 558 OFFCURVE",
"553 580 CURVE",
"556 584 OFFCURVE",
"559 588 OFFCURVE",
"559 593 CURVE"
);
},
{
closed = 1;
nodes = (
"509 478 OFFCURVE",
"516 447 OFFCURVE",
"516 418 CURVE",
"516 351 OFFCURVE",
"481 276 OFFCURVE",
"446 221 CURVE",
"392 137 OFFCURVE",
"268 2 OFFCURVE",
"159 2 CURVE",
"141 2 OFFCURVE",
"123 6 OFFCURVE",
"109 17 CURVE",
"234 177 OFFCURVE",
"357 339 OFFCURVE",
"485 497 CURVE"
);
},
{
closed = 1;
nodes = (
"439 514 LINE",
"318 358 OFFCURVE",
"204 198 OFFCURVE",
"90 38 CURVE",
"80 56 OFFCURVE",
"76 77 OFFCURVE",
"76 98 CURVE",
"76 165 OFFCURVE",
"111 240 OFFCURVE",
"146 295 CURVE",
"200 379 OFFCURVE",
"324 516 OFFCURVE",
"433 514 CURVE"
);
}
);
width = 467;
}
);
unicode = 00D8;
},
{
color = 0;
glyphname = Otilde;
lastChange = "2021-04-19 21:32:36 +0000";
layers = (
{
layerId = "D7866281-830A-4E76-BB32-392A4BC3306E";
paths = (
{
closed = 1;
nodes = (
"492 591 OFFCURVE",
"503 594 OFFCURVE",
"513 598 CURVE",
"523 603 OFFCURVE",
"573 627 OFFCURVE",
"573 637 CURVE",
"573 639 OFFCURVE",
"570 639 OFFCURVE",
"569 639 CURVE",
"561 639 OFFCURVE",
"537 621 OFFCURVE",
"514 621 CURVE",
"482 621 OFFCURVE",
"454 640 OFFCURVE",
"422 640 CURVE",
"408 640 OFFCURVE",
"393 636 OFFCURVE",
"380 631 CURVE",
"370 626 OFFCURVE",
"321 601 OFFCURVE",
"321 592 CURVE",
"321 591 OFFCURVE",
"322 591 OFFCURVE",
"323 591 CURVE",
"336 591 OFFCURVE",
"360 615 OFFCURVE",
"387 615 CURVE",
"421 615 OFFCURVE",
"448 591 OFFCURVE",
"481 591 CURVE"
);
},
{
closed = 1;
nodes = (
"257 -5 OFFCURVE",
"383 108 OFFCURVE",
"453 213 CURVE",
"488 267 OFFCURVE",
"522 337 OFFCURVE",
"522 402 CURVE",
"522 477 OFFCURVE",
"461 520 OFFCURVE",
"389 520 CURVE",
"214 520 OFFCURVE",
"11 268 OFFCURVE",
"11 102 CURVE",
"11 30 OFFCURVE",
"52 -5 OFFCURVE",
"122 -5 CURVE"
);
},
{
closed = 1;
nodes = (
"465 490 OFFCURVE",
"489 452 OFFCURVE",
"489 402 CURVE",
"489 340 OFFCURVE",
"456 271 OFFCURVE",
"423 221 CURVE",
"372 142 OFFCURVE",
"255 19 OFFCURVE",
"153 19 CURVE",
"99 19 OFFCURVE",
"75 57 OFFCURVE",
"75 108 CURVE",
"75 169 OFFCURVE",
"108 238 OFFCURVE",
"141 289 CURVE",
"192 368 OFFCURVE",
"309 490 OFFCURVE",
"411 490 CURVE"
);
}
);
width = 467;
}
);
unicode = 00D5;
},
{
color = 0;
glyphname = OE;
lastChange = "2021-04-19 21:32:36 +0000";
layers = (
{
layerId = "D7866281-830A-4E76-BB32-392A4BC3306E";
paths = (
{
closed = 1;
nodes = (
"917 483 OFFCURVE",
"915 484 OFFCURVE",
"913 484 CURVE",
"838 484 OFFCURVE",
"763 484 OFFCURVE",
"688 484 CURVE",
"673 493 OFFCURVE",
"643 509 OFFCURVE",
"626 509 CURVE",
"623 509 OFFCURVE",
"620 508 OFFCURVE",
"617 506 CURVE",
"591 479 OFFCURVE",
"561 432 OFFCURVE",
"540 400 CURVE",
"548 487 OFFCURVE",
"499 547 OFFCURVE",
"409 547 CURVE",
"220 547 OFFCURVE",
"8 269 OFFCURVE",
"8 93 CURVE",
"8 16 OFFCURVE",
"50 -24 OFFCURVE",
"126 -24 CURVE",
"224 -24 OFFCURVE",
"311 33 OFFCURVE",
"377 101 CURVE",
"372 82 OFFCURVE",
"367 63 OFFCURVE",
"367 44 CURVE",
"367 -20 OFFCURVE",
"435 -22 OFFCURVE",
"484 -22 CURVE",
"487 -22 LINE",
"529 -22 OFFCURVE",
"686 -8 OFFCURVE",
"722 7 CURVE",
"742 16 OFFCURVE",
"757 45 OFFCURVE",
"765 65 CURVE",
"693 36 OFFCURVE",
"584 -2 OFFCURVE",
"508 -2 CURVE",
"467 -2 OFFCURVE",
"425 9 OFFCURVE",
"425 58 CURVE",
"425 85 OFFCURVE",
"436 113 OFFCURVE",
"448 137 CURVE",
"467 178 OFFCURVE",
"490 237 OFFCURVE",
"541 244 CURVE",
"569 248 OFFCURVE",
"599 250 OFFCURVE",
"628 252 CURVE",
"677 256 OFFCURVE",
"727 261 OFFCURVE",
"776 261 CURVE",
"780 264 OFFCURVE",
"798 278 OFFCURVE",
"798 283 CURVE",
"798 284 OFFCURVE",
"796 284 OFFCURVE",
"795 284 CURVE",
"708 284 OFFCURVE",
"621 284 OFFCURVE",
"535 284 CURVE",
"555 315 OFFCURVE",
"576 347 OFFCURVE",
"599 376 CURVE",
"646 434 OFFCURVE",
"680 444 OFFCURVE",
"753 444 CURVE",
"789 444 OFFCURVE",
"824 438 OFFCURVE",
"859 438 CURVE",
"873 438 OFFCURVE",
"917 467 OFFCURVE",
"917 481 CURVE"
);
},
{
closed = 1;
nodes = (
"516 399 OFFCURVE",
"512 363 OFFCURVE",
"504 346 CURVE",
"500 337 OFFCURVE",
"492 327 OFFCURVE",
"487 319 CURVE",
"474 298 OFFCURVE",
"462 277 OFFCURVE",
"450 255 CURVE",
"438 235 OFFCURVE",
"427 214 OFFCURVE",
"416 193 CURVE",
"411 182 OFFCURVE",
"406 168 OFFCURVE",
"400 158 CURVE",
"392 146 OFFCURVE",
"378 133 OFFCURVE",
"367 122 CURVE",
"318 71 OFFCURVE",
"233 3 OFFCURVE",
"159 3 CURVE",
"101 3 OFFCURVE",
"76 45 OFFCURVE",
"76 99 CURVE",
"76 165 OFFCURVE",
"111 240 OFFCURVE",
"146 296 CURVE",
"200 380 OFFCURVE",
"324 514 OFFCURVE",
"433 514 CURVE",
"491 514 OFFCURVE",
"516 472 OFFCURVE",
"516 418 CURVE"
);
}
);
width = 767;
}
);
unicode = 0152;
},
{
color = 0;
glyphname = P;
lastChange = "2021-04-19 21:32:36 +0000";
layers = (
{
layerId = "D7866281-830A-4E76-BB32-392A4BC3306E";
paths = (
{
closed = 1;
nodes = (
"448 458 OFFCURVE",
"526 450 OFFCURVE",
"526 398 CURVE",
"526 313 OFFCURVE",
"348 252 OFFCURVE",
"282 235 CURVE",
"262 229 OFFCURVE",
"240 224 OFFCURVE",
"219 221 CURVE",
"212 220 OFFCURVE",
"205 219 OFFCURVE",
"198 218 CURVE",
"191 216 OFFCURVE",
"176 210 OFFCURVE",
"176 201 CURVE",
"176 197 OFFCURVE",
"181 197 OFFCURVE",
"184 197 CURVE",
"187 197 LINE",
"236 200 OFFCURVE",
"292 218 OFFCURVE",
"341 230 CURVE",
"412 248 OFFCURVE",
"567 300 OFFCURVE",
"567 392 CURVE",
"567 483 OFFCURVE",
"468 502 OFFCURVE",
"396 502 CURVE",
"315 502 OFFCURVE",
"233 485 OFFCURVE",
"154 469 CURVE",
"144 467 OFFCURVE",
"134 465 OFFCURVE",
"124 461 CURVE",
"110 455 OFFCURVE",
"103 442 OFFCURVE",
"103 427 CURVE",
"103 412 OFFCURVE",
"112 401 OFFCURVE",
"127 401 CURVE",
"133 401 OFFCURVE",
"138 402 OFFCURVE",
"143 404 CURVE",
"224 428 OFFCURVE",
"326 458 OFFCURVE",
"410 458 CURVE"
);
},
{
closed = 1;
nodes = (
"303 384 OFFCURVE",
"267 397 OFFCURVE",
"257 397 CURVE",
"240 397 OFFCURVE",
"83 135 OFFCURVE",
"65 101 CURVE",
"47 69 OFFCURVE",
"28 35 OFFCURVE",
"17 -1 CURVE",
"16 -2 OFFCURVE",
"16 -4 OFFCURVE",
"16 -6 CURVE",
"16 -9 OFFCURVE",
"17 -12 OFFCURVE",
"21 -12 CURVE",
"27 -12 OFFCURVE",
"31 -7 OFFCURVE",
"33 -2 CURVE",
"72 61 OFFCURVE",
"106 126 OFFCURVE",
"148 187 CURVE",
"196 254 OFFCURVE",
"255 315 OFFCURVE",
"310 377 CURVE"
);
}
);
width = 439;
}
);
unicode = 0050;
},
{
color = 0;
glyphname = Thorn;
lastChange = "2021-04-19 21:32:36 +0000";
layers = (
{
layerId = "D7866281-830A-4E76-BB32-392A4BC3306E";
paths = (
{
closed = 1;
nodes = (
"411 361 OFFCURVE",
"489 353 OFFCURVE",
"489 301 CURVE",
"489 216 OFFCURVE",
"311 156 OFFCURVE",
"246 138 CURVE",
"225 132 OFFCURVE",
"204 127 OFFCURVE",
"183 124 CURVE",
"175 123 OFFCURVE",
"168 123 OFFCURVE",
"161 121 CURVE",
"155 119 OFFCURVE",
"139 113 OFFCURVE",
"139 105 CURVE",
"139 101 OFFCURVE",
"144 100 OFFCURVE",
"147 100 CURVE",
"150 100 LINE",
"200 103 OFFCURVE",
"256 121 OFFCURVE",
"304 133 CURVE",
"376 151 OFFCURVE",
"530 203 OFFCURVE",
"530 295 CURVE",
"530 386 OFFCURVE",
"432 406 OFFCURVE",
"359 406 CURVE",
"278 406 OFFCURVE",
"196 388 OFFCURVE",
"117 372 CURVE",
"107 370 OFFCURVE",
"97 368 OFFCURVE",
"88 364 CURVE",
"73 358 OFFCURVE",
"66 346 OFFCURVE",
"66 330 CURVE",
"66 315 OFFCURVE",
"75 304 OFFCURVE",
"91 304 CURVE",
"96 304 OFFCURVE",
"101 305 OFFCURVE",
"107 307 CURVE",
"188 331 OFFCURVE",
"289 361 OFFCURVE",
"374 361 CURVE"
);
},
{
closed = 1;
nodes = (
"388 525 OFFCURVE",
"346 532 OFFCURVE",
"329 532 CURVE",
"312 532 OFFCURVE",
"151 255 OFFCURVE",
"42 41 CURVE",
"25 8 OFFCURVE",
"-9 -62 OFFCURVE",
"-20 -97 CURVE",
"-20 -99 OFFCURVE",
"-21 -101 OFFCURVE",
"-21 -103 CURVE",
"-21 -106 OFFCURVE",
"-19 -109 OFFCURVE",
"-16 -109 CURVE",
"-9 -109 OFFCURVE",
"-6 -103 OFFCURVE",
"-3 -99 CURVE",
"36 -36 OFFCURVE",
"69 30 OFFCURVE",
"112 90 CURVE",
"159 158 OFFCURVE",
"327 451 OFFCURVE",
"381 512 CURVE"
);
}
);
width = 439;
}
);
unicode = 00DE;
},
{
color = 0;
glyphname = Q;
lastChange = "2021-04-19 21:32:36 +0000";
layers = (
{
layerId = "D7866281-830A-4E76-BB32-392A4BC3306E";
paths = (
{
closed = 1;
nodes = (
"543 -30 OFFCURVE",
"472 -17 OFFCURVE",
"427 -17 CURVE",
"339 -17 OFFCURVE",
"244 -48 OFFCURVE",
"160 -71 CURVE",
"132 -79 OFFCURVE",
"102 -88 OFFCURVE",
"74 -88 CURVE",
"61 -88 OFFCURVE",
"47 -83 OFFCURVE",
"47 -68 CURVE",
"47 -61 OFFCURVE",
"51 -53 OFFCURVE",
"56 -47 CURVE",
"67 -34 OFFCURVE",
"107 -6 OFFCURVE",
"125 -5 CURVE",
"147 -4 OFFCURVE",
"167 -2 OFFCURVE",
"189 4 CURVE",
"295 32 OFFCURVE",
"394 123 OFFCURVE",
"453 212 CURVE",
"488 265 OFFCURVE",
"522 336 OFFCURVE",
"522 401 CURVE",
"522 475 OFFCURVE",
"461 520 OFFCURVE",
"389 520 CURVE",
"213 520 OFFCURVE",
"11 267 OFFCURVE",
"11 102 CURVE",
"11 48 OFFCURVE",
"36 6 OFFCURVE",
"92 -3 CURVE",
"62 -14 OFFCURVE",
"32 -39 OFFCURVE",
"32 -75 CURVE",
"32 -96 OFFCURVE",
"44 -115 OFFCURVE",
"60 -128 CURVE",
"71 -137 OFFCURVE",
"87 -139 OFFCURVE",
"101 -139 CURVE",
"131 -139 OFFCURVE",
"162 -130 OFFCURVE",
"190 -121 CURVE",
"276 -91 OFFCURVE",
"358 -59 OFFCURVE",
"450 -59 CURVE",
"477 -59 OFFCURVE",
"520 -59 OFFCURVE",
"527 -92 CURVE",
"528 -96 OFFCURVE",
"530 -105 OFFCURVE",
"536 -105 CURVE",
"543 -105 OFFCURVE",
"543 -93 OFFCURVE",
"543 -89 CURVE"
);
},
{
closed = 1;
nodes = (
"465 490 OFFCURVE",
"489 452 OFFCURVE",
"489 402 CURVE",
"489 340 OFFCURVE",
"456 271 OFFCURVE",
"423 221 CURVE",
"372 142 OFFCURVE",
"255 19 OFFCURVE",
"153 19 CURVE",
"99 19 OFFCURVE",
"75 57 OFFCURVE",
"75 108 CURVE",
"75 169 OFFCURVE",
"108 238 OFFCURVE",
"141 289 CURVE",
"192 368 OFFCURVE",
"309 490 OFFCURVE",
"411 490 CURVE"
);
}
);
width = 498;
}
);
unicode = 0051;
},
{
color = 0;
glyphname = R;
lastChange = "2021-04-19 21:32:36 +0000";
layers = (
{
layerId = "D7866281-830A-4E76-BB32-392A4BC3306E";
paths = (
{
closed = 1;
nodes = (
"567 483 OFFCURVE",
"468 502 OFFCURVE",
"396 502 CURVE",
"314 502 OFFCURVE",
"233 485 OFFCURVE",
"154 469 CURVE",
"144 467 OFFCURVE",
"133 465 OFFCURVE",
"125 461 CURVE",
"110 455 OFFCURVE",
"103 443 OFFCURVE",
"103 427 CURVE",
"103 412 OFFCURVE",
"112 401 OFFCURVE",
"127 401 CURVE",
"133 401 OFFCURVE",
"138 402 OFFCURVE",
"143 404 CURVE",
"226 428 OFFCURVE",
"324 458 OFFCURVE",
"410 458 CURVE",
"448 458 OFFCURVE",
"526 451 OFFCURVE",
"526 398 CURVE",
"526 298 OFFCURVE",
"291 210 OFFCURVE",
"209 199 CURVE",
"241 245 OFFCURVE",
"274 292 OFFCURVE",
"309 336 CURVE",
"322 353 OFFCURVE",
"335 370 OFFCURVE",
"349 386 CURVE",
"351 387 OFFCURVE",
"353 387 OFFCURVE",
"353 389 CURVE",
"353 398 OFFCURVE",
"326 402 OFFCURVE",
"320 402 CURVE",
"317 402 OFFCURVE",
"314 402 OFFCURVE",
"312 400 CURVE",
"297 385 OFFCURVE",
"284 364 OFFCURVE",
"272 347 CURVE",
"244 308 OFFCURVE",
"218 269 OFFCURVE",
"193 229 CURVE",
"161 232 OFFCURVE",
"140 220 OFFCURVE",
"140 186 CURVE",
"140 174 OFFCURVE",
"142 162 OFFCURVE",
"146 151 CURVE",
"125 117 OFFCURVE",
"45 -23 OFFCURVE",
"45 -58 CURVE",
"45 -63 OFFCURVE",
"49 -67 OFFCURVE",
"54 -67 CURVE",
"62 -67 OFFCURVE",
"63 -56 OFFCURVE",
"65 -50 CURVE",
"83 3 OFFCURVE",
"129 74 OFFCURVE",
"159 122 CURVE",
"213 35 OFFCURVE",
"377 -31 OFFCURVE",
"477 -31 CURVE",
"483 -31 OFFCURVE",
"499 -32 OFFCURVE",
"499 -23 CURVE",
"499 -19 OFFCURVE",
"497 -17 OFFCURVE",
"493 -17 CURVE",
"480 -15 OFFCURVE",
"467 -14 OFFCURVE",
"453 -11 CURVE",
"388 3 OFFCURVE",
"315 42 OFFCURVE",
"266 88 CURVE",
"240 112 OFFCURVE",
"217 143 OFFCURVE",
"208 178 CURVE",
"253 187 OFFCURVE",
"298 199 OFFCURVE",
"343 211 CURVE",
"417 232 OFFCURVE",
"567 300 OFFCURVE",
"567 392 CURVE"
);
}
);
width = 469;
}
);
unicode = 0052;
},
{
color = 0;
glyphname = Racute;
lastChange = "2021-04-19 21:32:36 +0000";
layers = (
{
hints = (
{
horizontal = 1;
place = "{456, 46}";
type = Stem;
},
{
place = "{525, 41}";
type = Stem;
}
);
layerId = "D7866281-830A-4E76-BB32-392A4BC3306E";
paths = (
{
closed = 1;
nodes = (
"567 483 OFFCURVE",
"468 502 OFFCURVE",
"396 502 CURVE SMOOTH",
"314 502 OFFCURVE",
"233 485 OFFCURVE",
"154 469 CURVE SMOOTH",
"144 467 OFFCURVE",
"133 465 OFFCURVE",
"125 461 CURVE SMOOTH",
"110 455 OFFCURVE",
"103 443 OFFCURVE",
"103 427 CURVE SMOOTH",
"103 412 OFFCURVE",
"112 401 OFFCURVE",
"127 401 CURVE SMOOTH",
"133 401 OFFCURVE",
"138 402 OFFCURVE",
"143 404 CURVE SMOOTH",
"226 428 OFFCURVE",
"324 458 OFFCURVE",
"410 458 CURVE SMOOTH",
"448 458 OFFCURVE",
"526 451 OFFCURVE",
"526 398 CURVE SMOOTH",
"526 298 OFFCURVE",
"291 210 OFFCURVE",
"209 199 CURVE",
"241 245 OFFCURVE",
"274 292 OFFCURVE",
"309 336 CURVE SMOOTH",
"322 353 OFFCURVE",
"335 370 OFFCURVE",
"349 386 CURVE",
"351 387 OFFCURVE",
"353 387 OFFCURVE",
"353 389 CURVE SMOOTH",
"353 398 OFFCURVE",
"326 402 OFFCURVE",
"320 402 CURVE SMOOTH",
"317 402 OFFCURVE",
"314 402 OFFCURVE",
"312 400 CURVE SMOOTH",
"297 385 OFFCURVE",
"284 364 OFFCURVE",
"272 347 CURVE SMOOTH",
"244 308 OFFCURVE",
"218 269 OFFCURVE",
"193 229 CURVE",
"161 232 OFFCURVE",
"140 220 OFFCURVE",
"140 186 CURVE SMOOTH",
"140 174 OFFCURVE",
"142 162 OFFCURVE",
"146 151 CURVE",
"125 117 OFFCURVE",
"45 -23 OFFCURVE",
"45 -58 CURVE SMOOTH",
"45 -63 OFFCURVE",
"49 -67 OFFCURVE",
"54 -67 CURVE SMOOTH",
"62 -67 OFFCURVE",
"63 -56 OFFCURVE",
"65 -50 CURVE SMOOTH",
"83 3 OFFCURVE",
"129 74 OFFCURVE",
"159 122 CURVE",
"213 35 OFFCURVE",
"377 -31 OFFCURVE",
"477 -31 CURVE SMOOTH",
"483 -31 OFFCURVE",
"499 -32 OFFCURVE",
"499 -23 CURVE SMOOTH",
"499 -19 OFFCURVE",
"497 -17 OFFCURVE",
"493 -17 CURVE SMOOTH",
"480 -15 OFFCURVE",
"467 -14 OFFCURVE",
"453 -11 CURVE SMOOTH",
"388 3 OFFCURVE",
"315 42 OFFCURVE",
"266 88 CURVE SMOOTH",
"240 112 OFFCURVE",
"217 143 OFFCURVE",
"208 178 CURVE",
"253 187 OFFCURVE",
"298 199 OFFCURVE",
"343 211 CURVE SMOOTH",
"417 232 OFFCURVE",
"567 300 OFFCURVE",
"567 392 CURVE SMOOTH"
);
},
{
closed = 1;
nodes = (
"425 552 OFFCURVE",
"539 611 OFFCURVE",
"563 618 CURVE SMOOTH",
"569 620 OFFCURVE",
"582 624 OFFCURVE",
"582 631 CURVE SMOOTH",
"582 641 OFFCURVE",
"565 645 OFFCURVE",
"558 645 CURVE SMOOTH",
"537 645 OFFCURVE",
"416 574 OFFCURVE",
"416 557 CURVE SMOOTH",
"416 554 OFFCURVE",
"418 552 OFFCURVE",
"421 552 CURVE SMOOTH"
);
}
);
width = 469;
}
);
note = Racute;
unicode = 0154;
},
{
color = 0;
glyphname = Rcaron;
lastChange = "2021-04-19 21:32:36 +0000";
layers = (
{
background = {
hints = (
{
horizontal = 1;
place = "{456, 46}";
type = Stem;
},
{
place = "{525, 41}";
type = Stem;
}
);
paths = (
{
closed = 1;
nodes = (
"567 483 OFFCURVE",
"468 502 OFFCURVE",
"396 502 CURVE SMOOTH",
"314 502 OFFCURVE",
"233 485 OFFCURVE",
"154 469 CURVE SMOOTH",
"144 467 OFFCURVE",
"133 465 OFFCURVE",
"125 461 CURVE SMOOTH",
"110 455 OFFCURVE",
"103 443 OFFCURVE",
"103 427 CURVE SMOOTH",
"103 412 OFFCURVE",
"112 401 OFFCURVE",
"127 401 CURVE SMOOTH",
"133 401 OFFCURVE",
"138 402 OFFCURVE",
"143 404 CURVE SMOOTH",
"226 428 OFFCURVE",
"324 458 OFFCURVE",
"410 458 CURVE SMOOTH",
"448 458 OFFCURVE",
"526 451 OFFCURVE",
"526 398 CURVE SMOOTH",
"526 298 OFFCURVE",
"291 210 OFFCURVE",
"209 199 CURVE",
"241 245 OFFCURVE",
"274 292 OFFCURVE",
"309 336 CURVE SMOOTH",
"322 353 OFFCURVE",
"335 370 OFFCURVE",
"349 386 CURVE",
"351 387 OFFCURVE",
"353 387 OFFCURVE",
"353 389 CURVE SMOOTH",
"353 398 OFFCURVE",
"326 402 OFFCURVE",
"320 402 CURVE SMOOTH",
"317 402 OFFCURVE",
"314 402 OFFCURVE",
"312 400 CURVE SMOOTH",
"297 385 OFFCURVE",
"284 364 OFFCURVE",
"272 347 CURVE SMOOTH",
"244 308 OFFCURVE",
"218 269 OFFCURVE",
"193 229 CURVE",
"161 232 OFFCURVE",
"140 220 OFFCURVE",
"140 186 CURVE SMOOTH",
"140 174 OFFCURVE",
"142 162 OFFCURVE",
"146 151 CURVE",
"125 117 OFFCURVE",
"45 -23 OFFCURVE",
"45 -58 CURVE SMOOTH",
"45 -63 OFFCURVE",
"49 -67 OFFCURVE",
"54 -67 CURVE SMOOTH",
"62 -67 OFFCURVE",
"63 -56 OFFCURVE",
"65 -50 CURVE SMOOTH",
"83 3 OFFCURVE",
"129 74 OFFCURVE",
"159 122 CURVE",
"213 35 OFFCURVE",
"377 -31 OFFCURVE",
"477 -31 CURVE SMOOTH",
"483 -31 OFFCURVE",
"499 -32 OFFCURVE",
"499 -23 CURVE SMOOTH",
"499 -19 OFFCURVE",
"497 -17 OFFCURVE",
"493 -17 CURVE SMOOTH",
"480 -15 OFFCURVE",
"467 -14 OFFCURVE",
"453 -11 CURVE SMOOTH",
"388 3 OFFCURVE",
"315 42 OFFCURVE",
"266 88 CURVE SMOOTH",
"240 112 OFFCURVE",
"217 143 OFFCURVE",
"208 178 CURVE",
"253 187 OFFCURVE",
"298 199 OFFCURVE",
"343 211 CURVE SMOOTH",
"417 232 OFFCURVE",
"567 300 OFFCURVE",
"567 392 CURVE SMOOTH"
);
},
{
closed = 1;
nodes = (
"558 635 OFFCURVE",
"474 595 OFFCURVE",
"446 581 CURVE",
"437 589 OFFCURVE",
"384 643 OFFCURVE",
"374 643 CURVE SMOOTH",
"366 643 OFFCURVE",
"355 645 OFFCURVE",
"363 638 CURVE SMOOTH",
"385 619 OFFCURVE",
"412 580 OFFCURVE",
"424 555 CURVE SMOOTH",
"425 553 OFFCURVE",
"426 553 OFFCURVE",
"427 553 CURVE SMOOTH",
"440 553 OFFCURVE",
"542 613 OFFCURVE",
"563 624 CURVE SMOOTH",
"567 626 OFFCURVE",
"573 635 OFFCURVE",
"564 635 CURVE SMOOTH"
);
}
);
};
components = (
{
name = R;
},
{
name = caroncomb;
transform = "{1, 0, 0, 1, 266, -79}";
}
);
layerId = "D7866281-830A-4E76-BB32-392A4BC3306E";
width = 469;
}
);
note = Rcaron;
unicode = 0158;
},
{
color = 0;
glyphname = S;
lastChange = "2021-04-19 21:32:36 +0000";
layers = (
{
layerId = "D7866281-830A-4E76-BB32-392A4BC3306E";
paths = (
{
closed = 1;
nodes = (
"446 499 OFFCURVE",
"441 515 OFFCURVE",
"396 515 CURVE",
"322 515 OFFCURVE",
"156 450 OFFCURVE",
"129 375 CURVE",
"125 363 OFFCURVE",
"122 351 OFFCURVE",
"122 338 CURVE",
"122 262 OFFCURVE",
"221 228 OFFCURVE",
"221 137 CURVE",
"221 87 OFFCURVE",
"186 27 OFFCURVE",
"130 27 CURVE",
"80 27 OFFCURVE",
"49 67 OFFCURVE",
"40 113 CURVE",
"33 113 LINE",
"36 48 OFFCURVE",
"67 -12 OFFCURVE",
"140 -12 CURVE",
"204 -12 OFFCURVE",
"263 36 OFFCURVE",
"263 103 CURVE",
"263 191 OFFCURVE",
"168 245 OFFCURVE",
"168 316 CURVE",
"168 387 OFFCURVE",
"315 456 OFFCURVE",
"376 462 CURVE",
"348 442 OFFCURVE",
"317 407 OFFCURVE",
"310 374 CURVE",
"319 373 LINE",
"329 412 OFFCURVE",
"410 448 OFFCURVE",
"447 457 CURVE",
"449 457 OFFCURVE",
"457 458 OFFCURVE",
"456 461 CURVE"
);
}
);
width = 309;
}
);
unicode = 0053;
},
{
color = 0;
glyphname = Sacute;
lastChange = "2021-04-19 21:32:36 +0000";
layers = (
{
hints = (
{
horizontal = 1;
place = "{-12, 39}";
type = Stem;
},
{
horizontal = 1;
place = "{515, -20}";
target = down;
type = TopGhost;
},
{
place = "{121, 47}";
type = Stem;
},
{
place = "{221, 42}";
type = Stem;
}
);
layerId = "D7866281-830A-4E76-BB32-392A4BC3306E";
paths = (
{
closed = 1;
nodes = (
"446 499 OFFCURVE",
"441 515 OFFCURVE",
"396 515 CURVE SMOOTH",
"322 515 OFFCURVE",
"156 450 OFFCURVE",
"129 375 CURVE SMOOTH",
"125 363 OFFCURVE",
"122 351 OFFCURVE",
"122 338 CURVE SMOOTH",
"122 262 OFFCURVE",
"221 228 OFFCURVE",
"221 137 CURVE SMOOTH",
"221 87 OFFCURVE",
"186 27 OFFCURVE",
"130 27 CURVE SMOOTH",
"80 27 OFFCURVE",
"49 67 OFFCURVE",
"40 113 CURVE",
"33 113 LINE",
"36 48 OFFCURVE",
"67 -12 OFFCURVE",
"140 -12 CURVE SMOOTH",
"204 -12 OFFCURVE",
"263 36 OFFCURVE",
"263 103 CURVE SMOOTH",
"263 191 OFFCURVE",
"168 245 OFFCURVE",
"168 316 CURVE SMOOTH",
"168 387 OFFCURVE",
"315 456 OFFCURVE",
"376 462 CURVE",
"348 442 OFFCURVE",
"317 407 OFFCURVE",
"310 374 CURVE",
"319 373 LINE",
"329 412 OFFCURVE",
"410 448 OFFCURVE",
"447 457 CURVE",
"449 457 OFFCURVE",
"457 458 OFFCURVE",
"456 461 CURVE SMOOTH"
);
},
{
closed = 1;
nodes = (
"401 567 OFFCURVE",
"515 626 OFFCURVE",
"539 633 CURVE SMOOTH",
"545 635 OFFCURVE",
"558 639 OFFCURVE",
"558 646 CURVE SMOOTH",
"558 656 OFFCURVE",
"541 660 OFFCURVE",
"534 660 CURVE SMOOTH",
"513 660 OFFCURVE",
"392 589 OFFCURVE",
"392 572 CURVE SMOOTH",
"392 569 OFFCURVE",
"394 567 OFFCURVE",
"397 567 CURVE SMOOTH"
);
}
);
width = 309;
}
);
note = Sacute;
unicode = 015A;
},
{
color = 0;
glyphname = Scedilla;
lastChange = "2021-04-19 21:32:36 +0000";
layers = (
{
hints = (
{
horizontal = 1;
place = "{-12, 39}";
type = Stem;
},
{
horizontal = 1;
place = "{515, -20}";
target = down;
type = TopGhost;
},
{
place = "{121, 47}";
type = Stem;
},
{
place = "{221, 42}";
type = Stem;
},
{
horizontal = 1;
place = "{-216, 17}";
type = Stem;
},
{
place = "{41, 29}";
type = Stem;
},
{
place = "{71, 38}";
type = Stem;
}
);
layerId = "D7866281-830A-4E76-BB32-392A4BC3306E";
paths = (
{
closed = 1;
nodes = (
"446 499 OFFCURVE",
"441 515 OFFCURVE",
"396 515 CURVE SMOOTH",
"322 515 OFFCURVE",
"156 450 OFFCURVE",
"129 375 CURVE SMOOTH",
"125 363 OFFCURVE",
"122 351 OFFCURVE",
"122 338 CURVE SMOOTH",
"122 262 OFFCURVE",
"221 228 OFFCURVE",
"221 137 CURVE SMOOTH",
"221 87 OFFCURVE",
"186 27 OFFCURVE",
"130 27 CURVE SMOOTH",
"80 27 OFFCURVE",
"49 67 OFFCURVE",
"40 113 CURVE",
"33 113 LINE",
"36 48 OFFCURVE",
"67 -12 OFFCURVE",
"140 -12 CURVE SMOOTH",
"204 -12 OFFCURVE",
"263 36 OFFCURVE",
"263 103 CURVE SMOOTH",
"263 191 OFFCURVE",
"168 245 OFFCURVE",
"168 316 CURVE SMOOTH",
"168 387 OFFCURVE",
"315 456 OFFCURVE",
"376 462 CURVE",
"348 442 OFFCURVE",
"317 407 OFFCURVE",
"310 374 CURVE",
"319 373 LINE",
"329 412 OFFCURVE",
"410 448 OFFCURVE",
"447 457 CURVE",
"449 457 OFFCURVE",
"457 458 OFFCURVE",
"456 461 CURVE SMOOTH"
);
},
{
closed = 1;
nodes = (
"124 -8 OFFCURVE",
"115 -8 OFFCURVE",
"111 -8 CURVE SMOOTH",
"81 -8 OFFCURVE",
"41 -49 OFFCURVE",
"41 -79 CURVE SMOOTH",
"41 -105 OFFCURVE",
"71 -132 OFFCURVE",
"71 -153 CURVE SMOOTH",
"71 -154 OFFCURVE",
"71 -156 OFFCURVE",
"71 -157 CURVE SMOOTH",
"63 -188 OFFCURVE",
"50 -199 OFFCURVE",
"19 -199 CURVE SMOOTH",
"10 -199 OFFCURVE",
"-28 -196 OFFCURVE",
"-28 -208 CURVE SMOOTH",
"-28 -217 OFFCURVE",
"-5 -216 OFFCURVE",
"2 -216 CURVE SMOOTH",
"46 -216 OFFCURVE",
"95 -202 OFFCURVE",
"108 -155 CURVE SMOOTH",
"109 -152 OFFCURVE",
"110 -148 OFFCURVE",
"110 -145 CURVE SMOOTH",
"110 -113 OFFCURVE",
"70 -86 OFFCURVE",
"70 -66 CURVE SMOOTH",
"70 -45 OFFCURVE",
"102 -16 OFFCURVE",
"123 -14 CURVE"
);
}
);
width = 309;
}
);
note = Scedilla;
unicode = 015E;
},
{
color = 0;
glyphname = Scircumflex;
lastChange = "2021-04-19 21:32:36 +0000";
layers = (
{
hints = (
{
horizontal = 1;
place = "{-12, 39}";
type = Stem;
},
{
horizontal = 1;
place = "{515, -20}";
target = down;
type = TopGhost;
},
{
place = "{121, 47}";
type = Stem;
},
{
place = "{221, 42}";
type = Stem;
},
{
horizontal = 1;
place = "{674, -20}";
target = down;
type = TopGhost;
}
);
layerId = "D7866281-830A-4E76-BB32-392A4BC3306E";
paths = (
{
closed = 1;
nodes = (
"446 499 OFFCURVE",
"441 515 OFFCURVE",
"396 515 CURVE SMOOTH",
"322 515 OFFCURVE",
"156 450 OFFCURVE",
"129 375 CURVE SMOOTH",
"125 363 OFFCURVE",
"122 351 OFFCURVE",
"122 338 CURVE SMOOTH",
"122 262 OFFCURVE",
"221 228 OFFCURVE",
"221 137 CURVE SMOOTH",
"221 87 OFFCURVE",
"186 27 OFFCURVE",
"130 27 CURVE SMOOTH",
"80 27 OFFCURVE",
"49 67 OFFCURVE",
"40 113 CURVE",
"33 113 LINE",
"36 48 OFFCURVE",
"67 -12 OFFCURVE",
"140 -12 CURVE SMOOTH",
"204 -12 OFFCURVE",
"263 36 OFFCURVE",
"263 103 CURVE SMOOTH",
"263 191 OFFCURVE",
"168 245 OFFCURVE",
"168 316 CURVE SMOOTH",
"168 387 OFFCURVE",
"315 456 OFFCURVE",
"376 462 CURVE",
"348 442 OFFCURVE",
"317 407 OFFCURVE",
"310 374 CURVE",
"319 373 LINE",
"329 412 OFFCURVE",
"410 448 OFFCURVE",
"447 457 CURVE",
"449 457 OFFCURVE",
"457 458 OFFCURVE",
"456 461 CURVE SMOOTH"
);
},
{
closed = 1;
nodes = (
"530 578 OFFCURVE",
"528 579 OFFCURVE",
"527 580 CURVE SMOOTH",
"497 606 OFFCURVE",
"479 638 OFFCURVE",
"460 672 CURVE",
"459 673 OFFCURVE",
"458 674 OFFCURVE",
"456 674 CURVE SMOOTH",
"446 674 OFFCURVE",
"321 606 OFFCURVE",
"307 596 CURVE SMOOTH",
"303 593 OFFCURVE",
"301 586 OFFCURVE",
"301 582 CURVE SMOOTH",
"301 579 OFFCURVE",
"302 576 OFFCURVE",
"305 576 CURVE SMOOTH",
"314 576 OFFCURVE",
"420 629 OFFCURVE",
"435 637 CURVE",
"447 626 OFFCURVE",
"503 575 OFFCURVE",
"515 575 CURVE SMOOTH",
"524 574 LINE",
"524 574 OFFCURVE",
"530 574 OFFCURVE",
"530 576 CURVE SMOOTH"
);
}
);
width = 309;
}
);
note = Scircumflex;
unicode = 015C;
},
{
color = 0;
glyphname = Schwa;
lastChange = "2021-04-19 21:32:36 +0000";
layers = (
{
hints = (
{
horizontal = 1;
place = "{-1, 15}";
type = Stem;
},
{
place = "{11, 54}";
type = Stem;
},
{
place = "{236, 27}";
type = Stem;
}
);
layerId = "D7866281-830A-4E76-BB32-392A4BC3306E";
paths = (
{
closed = 1;
nodes = (
"167 367 OFFCURVE",
"187 368 OFFCURVE",
"207 392 CURVE SMOOTH",
"257 452 OFFCURVE",
"350 504 OFFCURVE",
"409 504 CURVE SMOOTH",
"444 504 OFFCURVE",
"503 501 OFFCURVE",
"503 446 CURVE SMOOTH",
"503 368 OFFCURVE",
"470 301 OFFCURVE",
"435 251 CURVE",
"377 277 OFFCURVE",
"245 253 OFFCURVE",
"216 245 CURVE SMOOTH",
"39 199 OFFCURVE",
"44 5 OFFCURVE",
"191 5 CURVE SMOOTH",
"267 5 OFFCURVE",
"449 109 OFFCURVE",
"522 290 CURVE SMOOTH",
"601 484 OFFCURVE",
"503 530 OFFCURVE",
"410 530 CURVE SMOOTH",
"312 530 OFFCURVE",
"228 456 OFFCURVE",
"184 392 CURVE SMOOTH"
);
},
{
closed = 1;
nodes = (
"382 190 OFFCURVE",
"253 31 OFFCURVE",
"164 31 CURVE SMOOTH",
"94 31 OFFCURVE",
"134 177 OFFCURVE",
"219 202 CURVE SMOOTH",
"247 210 OFFCURVE",
"336 245 OFFCURVE",
"417 227 CURVE"
);
}
);
width = 589;
}
);
unicode = 018F;
},
{
color = 0;
glyphname = T;
lastChange = "2021-04-19 21:32:36 +0000";
layers = (
{
layerId = "D7866281-830A-4E76-BB32-392A4BC3306E";
paths = (
{
closed = 1;
nodes = (
"547 464 OFFCURVE",
"450 481 OFFCURVE",
"424 484 CURVE",
"425 486 OFFCURVE",
"426 488 OFFCURVE",
"426 490 CURVE",
"426 497 OFFCURVE",
"419 498 OFFCURVE",
"414 498 CURVE",
"403 498 OFFCURVE",
"395 496 OFFCURVE",
"387 488 CURVE",
"360 491 OFFCURVE",
"332 492 OFFCURVE",
"304 492 CURVE",
"225 492 OFFCURVE",
"49 482 OFFCURVE",
"15 397 CURVE",
"13 390 OFFCURVE",
"11 384 OFFCURVE",
"11 377 CURVE",
"11 350 OFFCURVE",
"38 325 OFFCURVE",
"65 325 CURVE",
"66 325 OFFCURVE",
"71 325 OFFCURVE",
"71 327 CURVE",
"71 333 OFFCURVE",
"52 338 OFFCURVE",
"52 356 CURVE",
"52 365 OFFCURVE",
"57 373 OFFCURVE",
"63 379 CURVE",
"113 437 OFFCURVE",
"280 444 OFFCURVE",
"353 446 CURVE",
"303 377 OFFCURVE",
"111 71 OFFCURVE",
"111 -1 CURVE",
"111 -3 OFFCURVE",
"111 -11 OFFCURVE",
"115 -11 CURVE",
"119 -11 OFFCURVE",
"123 -3 OFFCURVE",
"124 0 CURVE",
"141 36 OFFCURVE",
"157 73 OFFCURVE",
"175 108 CURVE",
"238 227 OFFCURVE",
"316 338 OFFCURVE",
"397 446 CURVE",
"434 444 OFFCURVE",
"473 440 OFFCURVE",
"508 429 CURVE",
"517 426 OFFCURVE",
"530 422 OFFCURVE",
"536 415 CURVE",
"537 414 OFFCURVE",
"537 411 OFFCURVE",
"539 411 CURVE",
"545 411 OFFCURVE",
"547 422 OFFCURVE",
"547 426 CURVE"
);
}
);
width = 354;
}
);
unicode = 0054;
},
{
color = 0;
glyphname = Tbar;
lastChange = "2021-04-19 21:32:36 +0000";
layers = (
{
hints = (
{
horizontal = 1;
place = "{-11, 20}";
type = Stem;
},
{
horizontal = 1;
place = "{498, -20}";
target = down;
type = TopGhost;
},
{
place = "{11, 41}";
type = Stem;
},
{
horizontal = 1;
place = "{320, 31}";
type = Stem;
},
{
place = "{200, 184}";
type = Stem;
}
);
layerId = "D7866281-830A-4E76-BB32-392A4BC3306E";
paths = (
{
closed = 1;
nodes = (
"547 464 OFFCURVE",
"450 481 OFFCURVE",
"424 484 CURVE",
"425 486 OFFCURVE",
"426 488 OFFCURVE",
"426 490 CURVE SMOOTH",
"426 497 OFFCURVE",
"419 498 OFFCURVE",
"414 498 CURVE SMOOTH",
"403 498 OFFCURVE",
"395 496 OFFCURVE",
"387 488 CURVE",
"360 491 OFFCURVE",
"332 492 OFFCURVE",
"304 492 CURVE SMOOTH",
"225 492 OFFCURVE",
"49 482 OFFCURVE",
"15 397 CURVE",
"13 390 OFFCURVE",
"11 384 OFFCURVE",
"11 377 CURVE SMOOTH",
"11 350 OFFCURVE",
"38 325 OFFCURVE",
"65 325 CURVE SMOOTH",
"66 325 OFFCURVE",
"71 325 OFFCURVE",
"71 327 CURVE SMOOTH",
"71 333 OFFCURVE",
"52 338 OFFCURVE",
"52 356 CURVE SMOOTH",
"52 365 OFFCURVE",
"57 373 OFFCURVE",
"63 379 CURVE SMOOTH",
"113 437 OFFCURVE",
"280 444 OFFCURVE",
"353 446 CURVE",
"303 377 OFFCURVE",
"111 71 OFFCURVE",
"111 -1 CURVE SMOOTH",
"111 -3 OFFCURVE",
"111 -11 OFFCURVE",
"115 -11 CURVE SMOOTH",
"119 -11 OFFCURVE",
"123 -3 OFFCURVE",
"124 0 CURVE SMOOTH",
"141 36 OFFCURVE",
"157 73 OFFCURVE",
"175 108 CURVE SMOOTH",
"238 227 OFFCURVE",
"316 338 OFFCURVE",
"397 446 CURVE",
"434 444 OFFCURVE",
"473 440 OFFCURVE",
"508 429 CURVE SMOOTH",
"517 426 OFFCURVE",
"530 422 OFFCURVE",
"536 415 CURVE SMOOTH",
"537 414 OFFCURVE",
"537 411 OFFCURVE",
"539 411 CURVE SMOOTH",
"545 411 OFFCURVE",
"547 422 OFFCURVE",
"547 426 CURVE SMOOTH"
);
},
{
closed = 1;
nodes = (
"336 351 LINE",
"217 350 LINE SMOOTH",
"209 350 OFFCURVE",
"200 341 OFFCURVE",
"200 333 CURVE SMOOTH",
"200 321 OFFCURVE",
"214 320 OFFCURVE",
"223 320 CURVE SMOOTH",
"247 320 OFFCURVE",
"384 328 OFFCURVE",
"384 348 CURVE SMOOTH",
"384 351 OFFCURVE",
"379 351 OFFCURVE",
"378 351 CURVE SMOOTH"
);
}
);
width = 354;
}
);
note = Tbar;
unicode = 0166;
},
{
color = 0;
glyphname = U;
lastChange = "2021-04-19 21:32:36 +0000";
layers = (
{
layerId = "D7866281-830A-4E76-BB32-392A4BC3306E";
paths = (
{
closed = 1;
nodes = (
"378 35 OFFCURVE",
"394 96 OFFCURVE",
"410 140 CURVE",
"460 286 OFFCURVE",
"536 401 OFFCURVE",
"601 500 CURVE",
"602 501 OFFCURVE",
"602 503 OFFCURVE",
"602 504 CURVE",
"602 509 OFFCURVE",
"598 513 OFFCURVE",
"593 513 CURVE",
"577 513 OFFCURVE",
"545 459 OFFCURVE",
"536 447 CURVE",
"417 280 OFFCURVE",
"343 147 OFFCURVE",
"160 41 CURVE",
"146 33 OFFCURVE",
"123 21 OFFCURVE",
"106 21 CURVE",
"91 21 OFFCURVE",
"85 31 OFFCURVE",
"85 45 CURVE",
"85 108 OFFCURVE",
"241 398 OFFCURVE",
"281 467 CURVE",
"283 471 OFFCURVE",
"284 475 OFFCURVE",
"284 478 CURVE",
"284 484 OFFCURVE",
"280 487 OFFCURVE",
"274 487 CURVE",
"264 487 OFFCURVE",
"253 480 OFFCURVE",
"248 472 CURVE",
"240 460 OFFCURVE",
"233 447 OFFCURVE",
"225 435 CURVE",
"206 404 OFFCURVE",
"200 398 OFFCURVE",
"181 368 CURVE",
"134 296 OFFCURVE",
"84 224 OFFCURVE",
"45 148 CURVE",
"30 120 OFFCURVE",
"16 85 OFFCURVE",
"16 53 CURVE",
"16 18 OFFCURVE",
"35 -3 OFFCURVE",
"71 -3 CURVE",
"105 -3 OFFCURVE",
"142 15 OFFCURVE",
"170 31 CURVE",
"248 76 OFFCURVE",
"309 124 OFFCURVE",
"368 192 CURVE",
"360 176 OFFCURVE",
"352 161 OFFCURVE",
"346 144 CURVE",
"331 104 OFFCURVE",
"317 55 OFFCURVE",
"317 12 CURVE",
"317 -49 OFFCURVE",
"343 -90 OFFCURVE",
"407 -90 CURVE",
"421 -90 OFFCURVE",
"460 -82 OFFCURVE",
"460 -64 CURVE",
"460 -62 OFFCURVE",
"459 -60 OFFCURVE",
"458 -60 CURVE",
"453 -60 OFFCURVE",
"437 -79 OFFCURVE",
"418 -79 CURVE",
"385 -79 OFFCURVE",
"378 -36 OFFCURVE",
"378 -11 CURVE"
);
}
);
width = 467;
}
);
unicode = 0055;
},
{
color = 0;
glyphname = Uacute;
lastChange = "2021-04-19 21:32:36 +0000";
layers = (
{
layerId = "D7866281-830A-4E76-BB32-392A4BC3306E";
paths = (
{
closed = 1;
nodes = (
"418 516 OFFCURVE",
"532 575 OFFCURVE",
"556 582 CURVE",
"562 584 OFFCURVE",
"575 587 OFFCURVE",
"575 595 CURVE",
"575 605 OFFCURVE",
"558 609 OFFCURVE",
"551 609 CURVE",
"530 609 OFFCURVE",
"409 538 OFFCURVE",
"409 521 CURVE",
"409 518 OFFCURVE",
"411 516 OFFCURVE",
"414 516 CURVE"
);
},
{
closed = 1;
nodes = (
"378 35 OFFCURVE",
"394 96 OFFCURVE",
"410 140 CURVE",
"460 286 OFFCURVE",
"536 401 OFFCURVE",
"601 500 CURVE",
"602 501 OFFCURVE",
"602 503 OFFCURVE",
"602 504 CURVE",
"602 509 OFFCURVE",
"598 513 OFFCURVE",
"593 513 CURVE",
"577 513 OFFCURVE",
"545 459 OFFCURVE",
"536 447 CURVE",
"417 280 OFFCURVE",
"343 147 OFFCURVE",
"160 41 CURVE",
"146 33 OFFCURVE",
"123 21 OFFCURVE",
"106 21 CURVE",
"91 21 OFFCURVE",
"85 31 OFFCURVE",
"85 45 CURVE",
"85 108 OFFCURVE",
"241 398 OFFCURVE",
"281 467 CURVE",
"283 471 OFFCURVE",
"284 475 OFFCURVE",
"284 478 CURVE",
"284 484 OFFCURVE",
"280 487 OFFCURVE",
"274 487 CURVE",
"264 487 OFFCURVE",
"253 480 OFFCURVE",
"248 472 CURVE",
"240 460 OFFCURVE",
"233 447 OFFCURVE",
"225 435 CURVE",
"206 404 OFFCURVE",
"200 398 OFFCURVE",
"181 368 CURVE",
"134 296 OFFCURVE",
"84 224 OFFCURVE",
"45 148 CURVE",
"30 120 OFFCURVE",
"16 85 OFFCURVE",
"16 53 CURVE",
"16 18 OFFCURVE",
"35 -3 OFFCURVE",
"71 -3 CURVE",
"105 -3 OFFCURVE",
"142 15 OFFCURVE",
"170 31 CURVE",
"248 76 OFFCURVE",
"309 124 OFFCURVE",
"368 192 CURVE",
"360 176 OFFCURVE",
"352 161 OFFCURVE",
"346 144 CURVE",
"331 104 OFFCURVE",
"317 55 OFFCURVE",
"317 12 CURVE",
"317 -49 OFFCURVE",
"343 -90 OFFCURVE",
"407 -90 CURVE",
"421 -90 OFFCURVE",
"460 -82 OFFCURVE",
"460 -64 CURVE",
"460 -62 OFFCURVE",
"459 -60 OFFCURVE",
"458 -60 CURVE",
"453 -60 OFFCURVE",
"437 -79 OFFCURVE",
"418 -79 CURVE",
"385 -79 OFFCURVE",
"378 -36 OFFCURVE",
"378 -11 CURVE"
);
}
);
width = 492;
}
);
unicode = 00DA;
},
{
color = 0;
glyphname = Ubreve;
lastChange = "2021-04-19 21:32:36 +0000";
layers = (
{
hints = (
{
horizontal = 1;
place = "{-90, 11}";
type = Stem;
},
{
horizontal = 1;
place = "{-3, 24}";
type = Stem;
},
{
horizontal = 1;
place = "{513, -20}";
target = down;
type = TopGhost;
},
{
place = "{16, 69}";
type = Stem;
},
{
place = "{317, 61}";
type = Stem;
},
{
horizontal = 1;
place = "{564, 31}";
type = Stem;
},
{
place = "{397, 33}";
type = Stem;
}
);
layerId = "D7866281-830A-4E76-BB32-392A4BC3306E";
paths = (
{
closed = 1;
nodes = (
"378 35 OFFCURVE",
"394 96 OFFCURVE",
"410 140 CURVE SMOOTH",
"460 286 OFFCURVE",
"536 401 OFFCURVE",
"601 500 CURVE SMOOTH",
"602 501 OFFCURVE",
"602 503 OFFCURVE",
"602 504 CURVE SMOOTH",
"602 509 OFFCURVE",
"598 513 OFFCURVE",
"593 513 CURVE SMOOTH",
"577 513 OFFCURVE",
"545 459 OFFCURVE",
"536 447 CURVE SMOOTH",
"417 280 OFFCURVE",
"343 147 OFFCURVE",
"160 41 CURVE SMOOTH",
"146 33 OFFCURVE",
"123 21 OFFCURVE",
"106 21 CURVE SMOOTH",
"91 21 OFFCURVE",
"85 31 OFFCURVE",
"85 45 CURVE SMOOTH",
"85 108 OFFCURVE",
"241 398 OFFCURVE",
"281 467 CURVE SMOOTH",
"283 471 OFFCURVE",
"284 475 OFFCURVE",
"284 478 CURVE SMOOTH",
"284 484 OFFCURVE",
"280 487 OFFCURVE",
"274 487 CURVE SMOOTH",
"264 487 OFFCURVE",
"253 480 OFFCURVE",
"248 472 CURVE SMOOTH",
"240 460 OFFCURVE",
"233 447 OFFCURVE",
"225 435 CURVE SMOOTH",
"206 404 OFFCURVE",
"200 398 OFFCURVE",
"181 368 CURVE SMOOTH",
"134 296 OFFCURVE",
"84 224 OFFCURVE",
"45 148 CURVE SMOOTH",
"30 120 OFFCURVE",
"16 85 OFFCURVE",
"16 53 CURVE SMOOTH",
"16 18 OFFCURVE",
"35 -3 OFFCURVE",
"71 -3 CURVE SMOOTH",
"105 -3 OFFCURVE",
"142 15 OFFCURVE",
"170 31 CURVE SMOOTH",
"248 76 OFFCURVE",
"309 124 OFFCURVE",
"368 192 CURVE",
"360 176 OFFCURVE",
"352 161 OFFCURVE",
"346 144 CURVE SMOOTH",
"331 104 OFFCURVE",
"317 55 OFFCURVE",
"317 12 CURVE SMOOTH",
"317 -49 OFFCURVE",
"343 -90 OFFCURVE",
"407 -90 CURVE SMOOTH",
"421 -90 OFFCURVE",
"460 -82 OFFCURVE",
"460 -64 CURVE SMOOTH",
"460 -62 OFFCURVE",
"459 -60 OFFCURVE",
"458 -60 CURVE SMOOTH",
"453 -60 OFFCURVE",
"437 -79 OFFCURVE",
"418 -79 CURVE SMOOTH",
"385 -79 OFFCURVE",
"378 -36 OFFCURVE",
"378 -11 CURVE SMOOTH"
);
},
{
closed = 1;
nodes = (
"601 626 OFFCURVE",
"593 631 OFFCURVE",
"583 625 CURVE SMOOTH",
"549 604 OFFCURVE",
"433 565 OFFCURVE",
"430 632 CURVE SMOOTH",
"429 641 OFFCURVE",
"396 615 OFFCURVE",
"397 606 CURVE SMOOTH",
"400 523 OFFCURVE",
"543 581 OFFCURVE",
"592 619 CURVE SMOOTH"
);
}
);
width = 467;
}
);
note = Ubreve;
unicode = 016C;
},
{
color = 0;
glyphname = Uhungarumlaut;
lastChange = "2021-04-19 21:32:36 +0000";
layers = (
{
hints = (
{
horizontal = 1;
place = "{-90, 11}";
type = Stem;
},
{
horizontal = 1;
place = "{-3, 24}";
type = Stem;
},
{
horizontal = 1;
place = "{513, -20}";
target = down;
type = TopGhost;
},
{
place = "{16, 69}";
type = Stem;
},
{
place = "{317, 61}";
type = Stem;
}
);
layerId = "D7866281-830A-4E76-BB32-392A4BC3306E";
paths = (
{
closed = 1;
nodes = (
"378 35 OFFCURVE",
"394 96 OFFCURVE",
"410 140 CURVE SMOOTH",
"460 286 OFFCURVE",
"536 401 OFFCURVE",
"601 500 CURVE SMOOTH",
"602 501 OFFCURVE",
"602 503 OFFCURVE",
"602 504 CURVE SMOOTH",
"602 509 OFFCURVE",
"598 513 OFFCURVE",
"593 513 CURVE SMOOTH",
"577 513 OFFCURVE",
"545 459 OFFCURVE",
"536 447 CURVE SMOOTH",
"417 280 OFFCURVE",
"343 147 OFFCURVE",
"160 41 CURVE SMOOTH",
"146 33 OFFCURVE",
"123 21 OFFCURVE",
"106 21 CURVE SMOOTH",
"91 21 OFFCURVE",
"85 31 OFFCURVE",
"85 45 CURVE SMOOTH",
"85 108 OFFCURVE",
"241 398 OFFCURVE",
"281 467 CURVE SMOOTH",
"283 471 OFFCURVE",
"284 475 OFFCURVE",
"284 478 CURVE SMOOTH",
"284 484 OFFCURVE",
"280 487 OFFCURVE",
"274 487 CURVE SMOOTH",
"264 487 OFFCURVE",
"253 480 OFFCURVE",
"248 472 CURVE SMOOTH",
"240 460 OFFCURVE",
"233 447 OFFCURVE",
"225 435 CURVE SMOOTH",
"206 404 OFFCURVE",
"200 398 OFFCURVE",
"181 368 CURVE SMOOTH",
"134 296 OFFCURVE",
"84 224 OFFCURVE",
"45 148 CURVE SMOOTH",
"30 120 OFFCURVE",
"16 85 OFFCURVE",
"16 53 CURVE SMOOTH",
"16 18 OFFCURVE",
"35 -3 OFFCURVE",
"71 -3 CURVE SMOOTH",
"105 -3 OFFCURVE",
"142 15 OFFCURVE",
"170 31 CURVE SMOOTH",
"248 76 OFFCURVE",
"309 124 OFFCURVE",
"368 192 CURVE",
"360 176 OFFCURVE",
"352 161 OFFCURVE",
"346 144 CURVE SMOOTH",
"331 104 OFFCURVE",
"317 55 OFFCURVE",
"317 12 CURVE SMOOTH",
"317 -49 OFFCURVE",
"343 -90 OFFCURVE",
"407 -90 CURVE SMOOTH",
"421 -90 OFFCURVE",
"460 -82 OFFCURVE",
"460 -64 CURVE SMOOTH",
"460 -62 OFFCURVE",
"459 -60 OFFCURVE",
"458 -60 CURVE SMOOTH",
"453 -60 OFFCURVE",
"437 -79 OFFCURVE",
"418 -79 CURVE SMOOTH",
"385 -79 OFFCURVE",
"378 -36 OFFCURVE",
"378 -11 CURVE SMOOTH"
);
},
{
closed = 1;
nodes = (
"378 528 OFFCURVE",
"415 633 OFFCURVE",
"428 652 CURVE SMOOTH",
"431 656 OFFCURVE",
"437 666 OFFCURVE",
"431 672 CURVE SMOOTH",
"422 680 OFFCURVE",
"406 674 OFFCURVE",
"400 670 CURVE SMOOTH",
"384 659 OFFCURVE",
"351 541 OFFCURVE",
"366 528 CURVE SMOOTH",
"369 525 OFFCURVE",
"373 525 OFFCURVE",
"375 526 CURVE SMOOTH"
);
},
{
closed = 1;
nodes = (
"485 529 OFFCURVE",
"522 634 OFFCURVE",
"535 652 CURVE SMOOTH",
"538 657 OFFCURVE",
"544 666 OFFCURVE",
"538 672 CURVE SMOOTH",
"529 680 OFFCURVE",
"513 674 OFFCURVE",
"507 670 CURVE SMOOTH",
"491 660 OFFCURVE",
"459 541 OFFCURVE",
"473 528 CURVE SMOOTH",
"477 525 OFFCURVE",
"480 525 OFFCURVE",
"482 526 CURVE"
);
}
);
width = 467;
}
);
note = Uhungarumlaut;
unicode = 0170;
},
{
color = 0;
glyphname = Umacron;
lastChange = "2021-04-19 21:32:36 +0000";
layers = (
{
hints = (
{
horizontal = 1;
place = "{-90, 11}";
type = Stem;
},
{
horizontal = 1;
place = "{-3, 24}";
type = Stem;
},
{
horizontal = 1;
place = "{513, -20}";
target = down;
type = TopGhost;
},
{
place = "{16, 69}";
type = Stem;
},
{
place = "{317, 61}";
type = Stem;
},
{
horizontal = 1;
place = "{558, 31}";
type = Stem;
},
{
place = "{367, 184}";
type = Stem;
}
);
layerId = "D7866281-830A-4E76-BB32-392A4BC3306E";
paths = (
{
closed = 1;
nodes = (
"378 35 OFFCURVE",
"394 96 OFFCURVE",
"410 140 CURVE SMOOTH",
"460 286 OFFCURVE",
"536 401 OFFCURVE",
"601 500 CURVE SMOOTH",
"602 501 OFFCURVE",
"602 503 OFFCURVE",
"602 504 CURVE SMOOTH",
"602 509 OFFCURVE",
"598 513 OFFCURVE",
"593 513 CURVE SMOOTH",
"577 513 OFFCURVE",
"545 459 OFFCURVE",
"536 447 CURVE SMOOTH",
"417 280 OFFCURVE",
"343 147 OFFCURVE",
"160 41 CURVE SMOOTH",
"146 33 OFFCURVE",
"123 21 OFFCURVE",
"106 21 CURVE SMOOTH",
"91 21 OFFCURVE",
"85 31 OFFCURVE",
"85 45 CURVE SMOOTH",
"85 108 OFFCURVE",
"241 398 OFFCURVE",
"281 467 CURVE SMOOTH",
"283 471 OFFCURVE",
"284 475 OFFCURVE",
"284 478 CURVE SMOOTH",
"284 484 OFFCURVE",
"280 487 OFFCURVE",
"274 487 CURVE SMOOTH",
"264 487 OFFCURVE",
"253 480 OFFCURVE",
"248 472 CURVE SMOOTH",
"240 460 OFFCURVE",
"233 447 OFFCURVE",
"225 435 CURVE SMOOTH",
"206 404 OFFCURVE",
"200 398 OFFCURVE",
"181 368 CURVE SMOOTH",
"134 296 OFFCURVE",
"84 224 OFFCURVE",
"45 148 CURVE SMOOTH",
"30 120 OFFCURVE",
"16 85 OFFCURVE",
"16 53 CURVE SMOOTH",
"16 18 OFFCURVE",
"35 -3 OFFCURVE",
"71 -3 CURVE SMOOTH",
"105 -3 OFFCURVE",
"142 15 OFFCURVE",
"170 31 CURVE SMOOTH",
"248 76 OFFCURVE",
"309 124 OFFCURVE",
"368 192 CURVE",
"360 176 OFFCURVE",
"352 161 OFFCURVE",
"346 144 CURVE SMOOTH",
"331 104 OFFCURVE",
"317 55 OFFCURVE",
"317 12 CURVE SMOOTH",
"317 -49 OFFCURVE",
"343 -90 OFFCURVE",
"407 -90 CURVE SMOOTH",
"421 -90 OFFCURVE",
"460 -82 OFFCURVE",
"460 -64 CURVE SMOOTH",
"460 -62 OFFCURVE",
"459 -60 OFFCURVE",
"458 -60 CURVE SMOOTH",
"453 -60 OFFCURVE",
"437 -79 OFFCURVE",
"418 -79 CURVE SMOOTH",
"385 -79 OFFCURVE",
"378 -36 OFFCURVE",
"378 -11 CURVE SMOOTH"
);
},
{
closed = 1;
nodes = (
"503 589 LINE",
"384 588 LINE SMOOTH",
"376 588 OFFCURVE",
"367 579 OFFCURVE",
"367 571 CURVE SMOOTH",
"367 559 OFFCURVE",
"381 558 OFFCURVE",
"390 558 CURVE SMOOTH",
"414 558 OFFCURVE",
"551 566 OFFCURVE",
"551 586 CURVE SMOOTH",
"551 589 OFFCURVE",
"546 589 OFFCURVE",
"545 589 CURVE SMOOTH"
);
}
);
width = 467;
}
);
note = Umacron;
unicode = 016A;
},
{
color = 0;
glyphname = Uogonek;
lastChange = "2021-04-19 21:32:36 +0000";
layers = (
{
hints = (
{
horizontal = 1;
place = "{-90, 11}";
type = Stem;
},
{
horizontal = 1;
place = "{-3, 24}";
type = Stem;
},
{
horizontal = 1;
place = "{513, -20}";
target = down;
type = TopGhost;
},
{
place = "{16, 69}";
type = Stem;
},
{
place = "{317, 61}";
type = Stem;
},
{
horizontal = 1;
place = "{-22, 24}";
type = Stem;
},
{
place = "{66, 44}";
type = Stem;
},
{
place = "{236, 55}";
type = Stem;
}
);
layerId = "D7866281-830A-4E76-BB32-392A4BC3306E";
paths = (
{
closed = 1;
nodes = (
"378 35 OFFCURVE",
"394 96 OFFCURVE",
"410 140 CURVE SMOOTH",
"460 286 OFFCURVE",
"536 401 OFFCURVE",
"601 500 CURVE SMOOTH",
"602 501 OFFCURVE",
"602 503 OFFCURVE",
"602 504 CURVE SMOOTH",
"602 509 OFFCURVE",
"598 513 OFFCURVE",
"593 513 CURVE SMOOTH",
"577 513 OFFCURVE",
"545 459 OFFCURVE",
"536 447 CURVE SMOOTH",
"417 280 OFFCURVE",
"343 147 OFFCURVE",
"160 41 CURVE SMOOTH",
"146 33 OFFCURVE",
"123 21 OFFCURVE",
"106 21 CURVE SMOOTH",
"91 21 OFFCURVE",
"85 31 OFFCURVE",
"85 45 CURVE SMOOTH",
"85 108 OFFCURVE",
"241 398 OFFCURVE",
"281 467 CURVE SMOOTH",
"283 471 OFFCURVE",
"284 475 OFFCURVE",
"284 478 CURVE SMOOTH",
"284 484 OFFCURVE",
"280 487 OFFCURVE",
"274 487 CURVE SMOOTH",
"264 487 OFFCURVE",
"253 480 OFFCURVE",
"248 472 CURVE SMOOTH",
"240 460 OFFCURVE",
"233 447 OFFCURVE",
"225 435 CURVE SMOOTH",
"206 404 OFFCURVE",
"200 398 OFFCURVE",
"181 368 CURVE SMOOTH",
"134 296 OFFCURVE",
"84 224 OFFCURVE",
"45 148 CURVE SMOOTH",
"30 120 OFFCURVE",
"16 85 OFFCURVE",
"16 53 CURVE SMOOTH",
"16 18 OFFCURVE",
"35 -3 OFFCURVE",
"71 -3 CURVE SMOOTH",
"105 -3 OFFCURVE",
"142 15 OFFCURVE",
"170 31 CURVE SMOOTH",
"248 76 OFFCURVE",
"309 124 OFFCURVE",
"368 192 CURVE",
"360 176 OFFCURVE",
"352 161 OFFCURVE",
"346 144 CURVE SMOOTH",
"331 104 OFFCURVE",
"317 55 OFFCURVE",
"317 12 CURVE SMOOTH",
"317 -49 OFFCURVE",
"343 -90 OFFCURVE",
"407 -90 CURVE SMOOTH",
"421 -90 OFFCURVE",
"460 -82 OFFCURVE",
"460 -64 CURVE SMOOTH",
"460 -62 OFFCURVE",
"459 -60 OFFCURVE",
"458 -60 CURVE SMOOTH",
"453 -60 OFFCURVE",
"437 -79 OFFCURVE",
"418 -79 CURVE SMOOTH",
"385 -79 OFFCURVE",
"378 -36 OFFCURVE",
"378 -11 CURVE SMOOTH"
);
},
{
closed = 1;
nodes = (
"351 -208 OFFCURVE",
"321 -236 OFFCURVE",
"308 -245 CURVE SMOOTH",
"269 -272 OFFCURVE",
"243 -237 OFFCURVE",
"266 -192 CURVE SMOOTH",
"287 -152 OFFCURVE",
"314 -116 OFFCURVE",
"357 -83 CURVE SMOOTH",
"388 -59 OFFCURVE",
"360 -62 OFFCURVE",
"351 -67 CURVE SMOOTH",
"290 -101 OFFCURVE",
"218 -175 OFFCURVE",
"221 -228 CURVE SMOOTH",
"224 -281 OFFCURVE",
"285 -281 OFFCURVE",
"313 -260 CURVE SMOOTH",
"341 -239 OFFCURVE",
"360 -210 OFFCURVE",
"365 -202 CURVE SMOOTH",
"371 -192 OFFCURVE",
"369 -182 OFFCURVE",
"360 -195 CURVE SMOOTH"
);
}
);
width = 467;
}
);
note = Uogonek;
unicode = 0172;
},
{
color = 0;
glyphname = Uring;
lastChange = "2021-04-19 21:32:36 +0000";
layers = (
{
hints = (
{
horizontal = 1;
place = "{-90, 11}";
type = Stem;
},
{
horizontal = 1;
place = "{-3, 24}";
type = Stem;
},
{
horizontal = 1;
place = "{513, -20}";
target = down;
type = TopGhost;
},
{
place = "{16, 69}";
type = Stem;
},
{
place = "{317, 61}";
type = Stem;
},
{
horizontal = 1;
place = "{516, 20}";
type = Stem;
},
{
horizontal = 1;
place = "{635, 25}";
type = Stem;
},
{
place = "{374, 21}";
type = Stem;
},
{
place = "{485, 25}";
type = Stem;
}
);
layerId = "D7866281-830A-4E76-BB32-392A4BC3306E";
paths = (
{
closed = 1;
nodes = (
"378 35 OFFCURVE",
"394 96 OFFCURVE",
"410 140 CURVE SMOOTH",
"460 286 OFFCURVE",
"536 401 OFFCURVE",
"601 500 CURVE SMOOTH",
"602 501 OFFCURVE",
"602 503 OFFCURVE",
"602 504 CURVE SMOOTH",
"602 509 OFFCURVE",
"598 513 OFFCURVE",
"593 513 CURVE SMOOTH",
"577 513 OFFCURVE",
"545 459 OFFCURVE",
"536 447 CURVE SMOOTH",
"417 280 OFFCURVE",
"343 147 OFFCURVE",
"160 41 CURVE SMOOTH",
"146 33 OFFCURVE",
"123 21 OFFCURVE",
"106 21 CURVE SMOOTH",
"91 21 OFFCURVE",
"85 31 OFFCURVE",
"85 45 CURVE SMOOTH",
"85 108 OFFCURVE",
"241 398 OFFCURVE",
"281 467 CURVE SMOOTH",
"283 471 OFFCURVE",
"284 475 OFFCURVE",
"284 478 CURVE SMOOTH",
"284 484 OFFCURVE",
"280 487 OFFCURVE",
"274 487 CURVE SMOOTH",
"264 487 OFFCURVE",
"253 480 OFFCURVE",
"248 472 CURVE SMOOTH",
"240 460 OFFCURVE",
"233 447 OFFCURVE",
"225 435 CURVE SMOOTH",
"206 404 OFFCURVE",
"200 398 OFFCURVE",
"181 368 CURVE SMOOTH",
"134 296 OFFCURVE",
"84 224 OFFCURVE",
"45 148 CURVE SMOOTH",
"30 120 OFFCURVE",
"16 85 OFFCURVE",
"16 53 CURVE SMOOTH",
"16 18 OFFCURVE",
"35 -3 OFFCURVE",
"71 -3 CURVE SMOOTH",
"105 -3 OFFCURVE",
"142 15 OFFCURVE",
"170 31 CURVE SMOOTH",
"248 76 OFFCURVE",
"309 124 OFFCURVE",
"368 192 CURVE",
"360 176 OFFCURVE",
"352 161 OFFCURVE",
"346 144 CURVE SMOOTH",
"331 104 OFFCURVE",
"317 55 OFFCURVE",
"317 12 CURVE SMOOTH",
"317 -49 OFFCURVE",
"343 -90 OFFCURVE",
"407 -90 CURVE SMOOTH",
"421 -90 OFFCURVE",
"460 -82 OFFCURVE",
"460 -64 CURVE SMOOTH",
"460 -62 OFFCURVE",
"459 -60 OFFCURVE",
"458 -60 CURVE SMOOTH",
"453 -60 OFFCURVE",
"437 -79 OFFCURVE",
"418 -79 CURVE SMOOTH",
"385 -79 OFFCURVE",
"378 -36 OFFCURVE",
"378 -11 CURVE SMOOTH"
);
},
{
closed = 1;
nodes = (
"511 636 OFFCURVE",
"491 660 OFFCURVE",
"460 660 CURVE SMOOTH",
"415 660 OFFCURVE",
"374 613 OFFCURVE",
"374 569 CURVE SMOOTH",
"374 539 OFFCURVE",
"394 516 OFFCURVE",
"425 516 CURVE SMOOTH",
"470 516 OFFCURVE",
"511 562 OFFCURVE",
"511 606 CURVE SMOOTH"
);
},
{
closed = 1;
nodes = (
"486 568 OFFCURVE",
"458 535 OFFCURVE",
"425 535 CURVE SMOOTH",
"405 535 OFFCURVE",
"396 552 OFFCURVE",
"396 570 CURVE SMOOTH",
"396 602 OFFCURVE",
"424 634 OFFCURVE",
"456 634 CURVE SMOOTH",
"476 634 OFFCURVE",
"486 618 OFFCURVE",
"486 600 CURVE SMOOTH"
);
}
);
width = 467;
}
);
note = Uring;
unicode = 016E;
},
{
color = 0;
glyphname = Utilde;
lastChange = "2021-04-19 21:32:36 +0000";
layers = (
{
hints = (
{
horizontal = 1;
place = "{-90, 11}";
type = Stem;
},
{
horizontal = 1;
place = "{-3, 24}";
type = Stem;
},
{
horizontal = 1;
place = "{513, -20}";
target = down;
type = TopGhost;
},
{
place = "{16, 69}";
type = Stem;
},
{
place = "{317, 61}";
type = Stem;
},
{
horizontal = 1;
place = "{592, 22}";
type = Stem;
}
);
layerId = "D7866281-830A-4E76-BB32-392A4BC3306E";
paths = (
{
closed = 1;
nodes = (
"378 35 OFFCURVE",
"394 96 OFFCURVE",
"410 140 CURVE SMOOTH",
"460 286 OFFCURVE",
"536 401 OFFCURVE",
"601 500 CURVE SMOOTH",
"602 501 OFFCURVE",
"602 503 OFFCURVE",
"602 504 CURVE SMOOTH",
"602 509 OFFCURVE",
"598 513 OFFCURVE",
"593 513 CURVE SMOOTH",
"577 513 OFFCURVE",
"545 459 OFFCURVE",
"536 447 CURVE SMOOTH",
"417 280 OFFCURVE",
"343 147 OFFCURVE",
"160 41 CURVE SMOOTH",
"146 33 OFFCURVE",
"123 21 OFFCURVE",
"106 21 CURVE SMOOTH",
"91 21 OFFCURVE",
"85 31 OFFCURVE",
"85 45 CURVE SMOOTH",
"85 108 OFFCURVE",
"241 398 OFFCURVE",
"281 467 CURVE SMOOTH",
"283 471 OFFCURVE",
"284 475 OFFCURVE",
"284 478 CURVE SMOOTH",
"284 484 OFFCURVE",
"280 487 OFFCURVE",
"274 487 CURVE SMOOTH",
"264 487 OFFCURVE",
"253 480 OFFCURVE",
"248 472 CURVE SMOOTH",
"240 460 OFFCURVE",
"233 447 OFFCURVE",
"225 435 CURVE SMOOTH",
"206 404 OFFCURVE",
"200 398 OFFCURVE",
"181 368 CURVE SMOOTH",
"134 296 OFFCURVE",
"84 224 OFFCURVE",
"45 148 CURVE SMOOTH",
"30 120 OFFCURVE",
"16 85 OFFCURVE",
"16 53 CURVE SMOOTH",
"16 18 OFFCURVE",
"35 -3 OFFCURVE",
"71 -3 CURVE SMOOTH",
"105 -3 OFFCURVE",
"142 15 OFFCURVE",
"170 31 CURVE SMOOTH",
"248 76 OFFCURVE",
"309 124 OFFCURVE",
"368 192 CURVE",
"360 176 OFFCURVE",
"352 161 OFFCURVE",
"346 144 CURVE SMOOTH",
"331 104 OFFCURVE",
"317 55 OFFCURVE",
"317 12 CURVE SMOOTH",
"317 -49 OFFCURVE",
"343 -90 OFFCURVE",
"407 -90 CURVE SMOOTH",
"421 -90 OFFCURVE",
"460 -82 OFFCURVE",
"460 -64 CURVE SMOOTH",
"460 -62 OFFCURVE",
"459 -60 OFFCURVE",
"458 -60 CURVE SMOOTH",
"453 -60 OFFCURVE",
"437 -79 OFFCURVE",
"418 -79 CURVE SMOOTH",
"385 -79 OFFCURVE",
"378 -36 OFFCURVE",
"378 -11 CURVE SMOOTH"
);
},
{
closed = 1;
nodes = (
"549 579 OFFCURVE",
"565 609 OFFCURVE",
"561 619 CURVE",
"561 621 OFFCURVE",
"560 621 OFFCURVE",
"559 621 CURVE SMOOTH",
"554 621 OFFCURVE",
"546 604 OFFCURVE",
"532 604 CURVE SMOOTH",
"512 602 OFFCURVE",
"451 615 OFFCURVE",
"431 614 CURVE SMOOTH",
"404 612 OFFCURVE",
"392 584 OFFCURVE",
"397 571 CURVE",
"398 570 OFFCURVE",
"398 570 OFFCURVE",
"399 570 CURVE SMOOTH",
"407 570 OFFCURVE",
"402 591 OFFCURVE",
"418 592 CURVE SMOOTH",
"439 593 OFFCURVE",
"501 576 OFFCURVE",
"522 577 CURVE SMOOTH"
);
}
);
width = 467;
}
);
note = Utilde;
unicode = 0168;
},
{
color = 0;
glyphname = V;
lastChange = "2021-04-19 21:32:36 +0000";
layers = (
{
layerId = "D7866281-830A-4E76-BB32-392A4BC3306E";
paths = (
{
closed = 1;
nodes = (
"205 -3 OFFCURVE",
"523 383 OFFCURVE",
"605 504 CURVE",
"607 507 OFFCURVE",
"608 510 OFFCURVE",
"608 514 CURVE",
"608 524 OFFCURVE",
"597 528 OFFCURVE",
"588 528 CURVE",
"579 528 OFFCURVE",
"573 524 OFFCURVE",
"566 517 CURVE",
"551 501 OFFCURVE",
"526 458 OFFCURVE",
"511 437 CURVE",
"410 295 OFFCURVE",
"297 158 OFFCURVE",
"156 55 CURVE",
"139 42 OFFCURVE",
"100 25 OFFCURVE",
"79 25 CURVE",
"68 25 OFFCURVE",
"61 29 OFFCURVE",
"61 41 CURVE",
"61 95 OFFCURVE",
"293 399 OFFCURVE",
"293 466 CURVE",
"293 490 OFFCURVE",
"276 506 OFFCURVE",
"252 506 CURVE",
"244 506 OFFCURVE",
"236 504 OFFCURVE",
"228 500 CURVE",
"229 498 OFFCURVE",
"229 496 OFFCURVE",
"229 495 CURVE",
"229 462 OFFCURVE",
"74 199 OFFCURVE",
"44 151 CURVE",
"26 121 OFFCURVE",
"7 83 OFFCURVE",
"7 48 CURVE",
"7 16 OFFCURVE",
"24 -3 OFFCURVE",
"56 -3 CURVE"
);
}
);
width = 354;
}
);
unicode = 0056;
},
{
color = 0;
glyphname = W;
lastChange = "2021-04-19 21:32:36 +0000";
layers = (
{
layerId = "D7866281-830A-4E76-BB32-392A4BC3306E";
paths = (
{
closed = 1;
nodes = (
"533 -7 OFFCURVE",
"738 207 OFFCURVE",
"793 341 CURVE",
"806 372 OFFCURVE",
"817 413 OFFCURVE",
"817 447 CURVE",
"817 476 OFFCURVE",
"808 508 OFFCURVE",
"773 508 CURVE",
"768 508 OFFCURVE",
"748 506 OFFCURVE",
"748 500 CURVE",
"748 497 OFFCURVE",
"754 495 OFFCURVE",
"756 494 CURVE",
"775 483 OFFCURVE",
"778 464 OFFCURVE",
"778 443 CURVE",
"778 389 OFFCURVE",
"749 324 OFFCURVE",
"720 279 CURVE",
"668 198 OFFCURVE",
"524 23 OFFCURVE",
"418 23 CURVE",
"393 23 OFFCURVE",
"385 42 OFFCURVE",
"385 64 CURVE",
"385 117 OFFCURVE",
"428 201 OFFCURVE",
"453 246 CURVE",
"468 272 OFFCURVE",
"484 298 OFFCURVE",
"501 323 CURVE",
"518 347 OFFCURVE",
"586 438 OFFCURVE",
"586 464 CURVE",
"586 489 OFFCURVE",
"554 498 OFFCURVE",
"534 498 CURVE",
"525 476 OFFCURVE",
"510 455 OFFCURVE",
"498 435 CURVE",
"470 390 OFFCURVE",
"441 345 OFFCURVE",
"410 302 CURVE",
"343 209 OFFCURVE",
"245 96 OFFCURVE",
"146 39 CURVE",
"132 31 OFFCURVE",
"111 21 OFFCURVE",
"95 21 CURVE",
"79 21 OFFCURVE",
"73 32 OFFCURVE",
"73 47 CURVE",
"73 156 OFFCURVE",
"269 391 OFFCURVE",
"342 476 CURVE",
"344 479 OFFCURVE",
"346 483 OFFCURVE",
"346 487 CURVE",
"346 504 OFFCURVE",
"317 512 OFFCURVE",
"304 512 CURVE",
"293 512 OFFCURVE",
"286 509 OFFCURVE",
"278 502 CURVE",
"258 486 OFFCURVE",
"240 462 OFFCURVE",
"224 442 CURVE",
"162 363 OFFCURVE",
"10 146 OFFCURVE",
"10 47 CURVE",
"10 12 OFFCURVE",
"28 -7 OFFCURVE",
"63 -7 CURVE",
"95 -7 OFFCURVE",
"136 9 OFFCURVE",
"164 25 CURVE",
"224 60 OFFCURVE",
"327 163 OFFCURVE",
"371 221 CURVE",
"349 176 OFFCURVE",
"326 110 OFFCURVE",
"326 60 CURVE",
"326 23 OFFCURVE",
"339 -7 OFFCURVE",
"380 -7 CURVE"
);
}
);
width = 705;
}
);
unicode = 0057;
},
{
color = 0;
glyphname = X;
lastChange = "2021-04-19 21:32:36 +0000";
layers = (
{
layerId = "D7866281-830A-4E76-BB32-392A4BC3306E";
paths = (
{
closed = 1;
nodes = (
"537 572 OFFCURVE",
"529 596 OFFCURVE",
"495 547 CURVE",
"465 506 OFFCURVE",
"433 466 OFFCURVE",
"400 427 CURVE",
"340 354 OFFCURVE",
"278 284 OFFCURVE",
"214 215 CURVE",
"202 271 OFFCURVE",
"200 371 OFFCURVE",
"200 428 CURVE",
"200 445 OFFCURVE",
"200 462 OFFCURVE",
"201 479 CURVE",
"206 547 OFFCURVE",
"125 478 OFFCURVE",
"124 455 CURVE",
"124 448 OFFCURVE",
"124 441 OFFCURVE",
"124 435 CURVE",
"124 350 OFFCURVE",
"141 253 OFFCURVE",
"167 172 CURVE",
"111 114 OFFCURVE",
"57 55 OFFCURVE",
"0 0 CURVE",
"-18 -21 OFFCURVE",
"43 0 OFFCURVE",
"43 0 CURVE",
"88 47 OFFCURVE",
"132 94 OFFCURVE",
"176 142 CURVE",
"193 94 OFFCURVE",
"242 -6 OFFCURVE",
"278 -37 CURVE",
"314 -67 OFFCURVE",
"329 -50 OFFCURVE",
"297 -12 CURVE",
"270 21 OFFCURVE",
"230 127 OFFCURVE",
"218 182 CURVE",
"279 250 OFFCURVE",
"339 319 OFFCURVE",
"398 389 CURVE",
"436 436 OFFCURVE",
"475 484 OFFCURVE",
"510 534 CURVE"
);
}
);
width = 316;
}
);
unicode = 0058;
},
{
color = 0;
glyphname = Y;
lastChange = "2021-04-19 21:32:36 +0000";
layers = (
{
layerId = "D7866281-830A-4E76-BB32-392A4BC3306E";
paths = (
{
closed = 1;
nodes = (
"295 -191 OFFCURVE",
"398 24 OFFCURVE",
"454 201 CURVE",
"481 286 OFFCURVE",
"529 427 OFFCURVE",
"583 496 CURVE",
"586 499 OFFCURVE",
"588 502 OFFCURVE",
"588 507 CURVE",
"588 513 OFFCURVE",
"582 516 OFFCURVE",
"577 516 CURVE",
"569 516 OFFCURVE",
"564 512 OFFCURVE",
"561 506 CURVE",
"536 471 OFFCURVE",
"513 435 OFFCURVE",
"488 400 CURVE",
"413 298 OFFCURVE",
"329 201 OFFCURVE",
"234 117 CURVE",
"204 92 OFFCURVE",
"129 26 OFFCURVE",
"92 26 CURVE",
"81 26 OFFCURVE",
"74 31 OFFCURVE",
"74 43 CURVE",
"74 94 OFFCURVE",
"280 381 OFFCURVE",
"280 450 CURVE",
"280 473 OFFCURVE",
"266 488 OFFCURVE",
"243 488 CURVE",
"235 488 OFFCURVE",
"227 486 OFFCURVE",
"220 482 CURVE",
"221 480 OFFCURVE",
"221 479 OFFCURVE",
"221 477 CURVE",
"221 443 OFFCURVE",
"73 200 OFFCURVE",
"44 151 CURVE",
"27 123 OFFCURVE",
"10 89 OFFCURVE",
"10 55 CURVE",
"10 21 OFFCURVE",
"30 0 OFFCURVE",
"65 0 CURVE",
"68 0 OFFCURVE",
"71 0 OFFCURVE",
"73 0 CURVE",
"199 14 OFFCURVE",
"381 230 OFFCURVE",
"463 323 CURVE",
"390 173 OFFCURVE",
"328 7 OFFCURVE",
"198 -103 CURVE",
"160 -135 OFFCURVE",
"115 -167 OFFCURVE",
"63 -167 CURVE",
"45 -167 OFFCURVE",
"18 -153 OFFCURVE",
"10 -136 CURVE",
"8 -132 OFFCURVE",
"8 -129 OFFCURVE",
"7 -125 CURVE",
"6 -121 OFFCURVE",
"4 -114 OFFCURVE",
"-2 -114 CURVE",
"-9 -114 OFFCURVE",
"-11 -124 OFFCURVE",
"-11 -129 CURVE",
"-11 -176 OFFCURVE",
"41 -191 OFFCURVE",
"79 -191 CURVE"
);
}
);
width = 447;
}
);
unicode = 0059;
},
{
color = 0;
glyphname = Ydieresis;
lastChange = "2021-04-19 21:32:36 +0000";
layers = (
{
hints = (
{
horizontal = 1;
place = "{-201, 25}";
type = Stem;
},
{
horizontal = 1;
place = "{556, 67}";
type = Stem;
},
{
place = "{10, 67}";
type = Stem;
},
{
place = "{232, 63}";
type = Stem;
}
);
layerId = "D7866281-830A-4E76-BB32-392A4BC3306E";
paths = (
{
closed = 1;
nodes = (
"537 615 LINE",
"537 620 OFFCURVE",
"532 623 OFFCURVE",
"528 623 CURVE SMOOTH",
"516 623 OFFCURVE",
"473 598 OFFCURVE",
"473 584 CURVE SMOOTH",
"473 572 OFFCURVE",
"504 555 OFFCURVE",
"514 555 CURVE SMOOTH",
"527 555 OFFCURVE",
"516 590 OFFCURVE",
"536 612 CURVE"
);
},
{
closed = 1;
nodes = (
"419 615 LINE",
"419 620 OFFCURVE",
"414 623 OFFCURVE",
"410 623 CURVE SMOOTH",
"398 623 OFFCURVE",
"355 598 OFFCURVE",
"355 584 CURVE SMOOTH",
"355 572 OFFCURVE",
"386 555 OFFCURVE",
"396 555 CURVE SMOOTH",
"409 555 OFFCURVE",
"398 590 OFFCURVE",
"418 612 CURVE"
);
},
{
closed = 1;
nodes = (
"575 514 LINE",
"486 368 OFFCURVE",
"375 236 OFFCURVE",
"246 124 CURVE SMOOTH",
"215 97 OFFCURVE",
"136 27 OFFCURVE",
"97 27 CURVE SMOOTH",
"85 27 OFFCURVE",
"78 33 OFFCURVE",
"78 45 CURVE SMOOTH",
"78 98 OFFCURVE",
"295 401 OFFCURVE",
"295 474 CURVE SMOOTH",
"295 498 OFFCURVE",
"280 514 OFFCURVE",
"256 514 CURVE SMOOTH",
"248 514 OFFCURVE",
"239 512 OFFCURVE",
"231 508 CURVE",
"232 506 OFFCURVE",
"232 504 OFFCURVE",
"232 502 CURVE SMOOTH",
"232 466 OFFCURVE",
"77 211 OFFCURVE",
"46 159 CURVE SMOOTH",
"29 129 OFFCURVE",
"11 94 OFFCURVE",
"11 58 CURVE SMOOTH",
"11 22 OFFCURVE",
"32 0 OFFCURVE",
"69 0 CURVE SMOOTH",
"72 0 OFFCURVE",
"74 0 OFFCURVE",
"77 0 CURVE SMOOTH",
"211 16 OFFCURVE",
"400 241 OFFCURVE",
"487 340 CURVE",
"411 183 OFFCURVE",
"345 7 OFFCURVE",
"208 -109 CURVE SMOOTH",
"168 -142 OFFCURVE",
"121 -176 OFFCURVE",
"67 -176 CURVE SMOOTH",
"43 -176 OFFCURVE",
"12 -156 OFFCURVE",
"7 -132 CURVE",
"-12 -141 LINE",
"1 -185 OFFCURVE",
"41 -201 OFFCURVE",
"83 -201 CURVE SMOOTH",
"310 -201 OFFCURVE",
"419 25 OFFCURVE",
"478 211 CURVE SMOOTH",
"502 286 OFFCURVE",
"547 450 OFFCURVE",
"599 503 CURVE"
);
}
);
width = 461;
}
);
note = Ydieresis;
unicode = 0178;
},
{
color = 0;
glyphname = Z;
lastChange = "2021-04-19 21:32:36 +0000";
layers = (
{
layerId = "D7866281-830A-4E76-BB32-392A4BC3306E";
paths = (
{
closed = 1;
nodes = (
"540 477 OFFCURVE",
"468 479 OFFCURVE",
"453 479 CURVE",
"392 479 OFFCURVE",
"332 467 OFFCURVE",
"271 467 CURVE",
"258 467 OFFCURVE",
"226 465 OFFCURVE",
"226 484 CURVE",
"226 487 OFFCURVE",
"226 490 OFFCURVE",
"228 493 CURVE",
"199 492 OFFCURVE",
"143 462 OFFCURVE",
"143 428 CURVE",
"143 406 OFFCURVE",
"178 404 OFFCURVE",
"194 404 CURVE",
"238 404 OFFCURVE",
"292 417 OFFCURVE",
"335 430 CURVE",
"372 442 OFFCURVE",
"452 462 OFFCURVE",
"490 462 CURVE",
"493 462 OFFCURVE",
"497 462 OFFCURVE",
"501 460 CURVE",
"460 453 OFFCURVE",
"129 116 OFFCURVE",
"75 60 CURVE",
"66 65 OFFCURVE",
"57 65 OFFCURVE",
"48 65 CURVE",
"22 65 OFFCURVE",
"-10 29 OFFCURVE",
"-10 4 CURVE",
"-10 -7 OFFCURVE",
"-2 -12 OFFCURVE",
"9 -12 CURVE",
"25 -12 OFFCURVE",
"62 19 OFFCURVE",
"77 29 CURVE",
"145 11 OFFCURVE",
"213 -12 OFFCURVE",
"284 -12 CURVE",
"306 -12 OFFCURVE",
"332 -10 OFFCURVE",
"350 5 CURVE",
"377 28 OFFCURVE",
"394 78 OFFCURVE",
"417 100 CURVE",
"419 102 OFFCURVE",
"422 104 OFFCURVE",
"422 107 CURVE",
"422 110 OFFCURVE",
"418 112 OFFCURVE",
"415 112 CURVE",
"411 112 OFFCURVE",
"408 109 OFFCURVE",
"405 106 CURVE",
"367 65 OFFCURVE",
"345 57 OFFCURVE",
"288 52 CURVE",
"261 49 OFFCURVE",
"234 48 OFFCURVE",
"206 48 CURVE",
"173 48 OFFCURVE",
"136 48 OFFCURVE",
"104 57 CURVE",
"200 154 OFFCURVE",
"408 394 OFFCURVE",
"516 450 CURVE",
"520 447 OFFCURVE",
"527 437 OFFCURVE",
"532 437 CURVE",
"538 437 OFFCURVE",
"540 448 OFFCURVE",
"540 452 CURVE"
);
}
);
width = 419;
}
);
unicode = 005A;
},
{
color = 0;
glyphname = Zacute;
lastChange = "2021-04-19 21:32:36 +0000";
layers = (
{
hints = (
{
horizontal = 1;
place = "{-12, 61}";
type = Stem;
},
{
horizontal = 1;
place = "{462, 17}";
type = Stem;
}
);
layerId = "D7866281-830A-4E76-BB32-392A4BC3306E";
paths = (
{
closed = 1;
nodes = (
"540 477 OFFCURVE",
"468 479 OFFCURVE",
"453 479 CURVE SMOOTH",
"392 479 OFFCURVE",
"332 467 OFFCURVE",
"271 467 CURVE SMOOTH",
"258 467 OFFCURVE",
"226 465 OFFCURVE",
"226 484 CURVE SMOOTH",
"226 487 OFFCURVE",
"226 490 OFFCURVE",
"228 493 CURVE",
"199 492 OFFCURVE",
"143 462 OFFCURVE",
"143 428 CURVE SMOOTH",
"143 406 OFFCURVE",
"178 404 OFFCURVE",
"194 404 CURVE SMOOTH",
"238 404 OFFCURVE",
"292 417 OFFCURVE",
"335 430 CURVE SMOOTH",
"372 442 OFFCURVE",
"452 462 OFFCURVE",
"490 462 CURVE SMOOTH",
"493 462 OFFCURVE",
"497 462 OFFCURVE",
"501 460 CURVE",
"460 453 OFFCURVE",
"129 116 OFFCURVE",
"75 60 CURVE",
"66 65 OFFCURVE",
"57 65 OFFCURVE",
"48 65 CURVE SMOOTH",
"22 65 OFFCURVE",
"-10 29 OFFCURVE",
"-10 4 CURVE SMOOTH",
"-10 -7 OFFCURVE",
"-2 -12 OFFCURVE",
"9 -12 CURVE SMOOTH",
"25 -12 OFFCURVE",
"62 19 OFFCURVE",
"77 29 CURVE",
"145 11 OFFCURVE",
"213 -12 OFFCURVE",
"284 -12 CURVE SMOOTH",
"306 -12 OFFCURVE",
"332 -10 OFFCURVE",
"350 5 CURVE SMOOTH",
"377 28 OFFCURVE",
"394 78 OFFCURVE",
"417 100 CURVE SMOOTH",
"419 102 OFFCURVE",
"422 104 OFFCURVE",
"422 107 CURVE SMOOTH",
"422 110 OFFCURVE",
"418 112 OFFCURVE",
"415 112 CURVE SMOOTH",
"411 112 OFFCURVE",
"408 109 OFFCURVE",
"405 106 CURVE SMOOTH",
"367 65 OFFCURVE",
"345 57 OFFCURVE",
"288 52 CURVE SMOOTH",
"261 49 OFFCURVE",
"234 48 OFFCURVE",
"206 48 CURVE SMOOTH",
"173 48 OFFCURVE",
"136 48 OFFCURVE",
"104 57 CURVE",
"200 154 OFFCURVE",
"408 394 OFFCURVE",
"516 450 CURVE",
"520 447 OFFCURVE",
"527 437 OFFCURVE",
"532 437 CURVE SMOOTH",
"538 437 OFFCURVE",
"540 448 OFFCURVE",
"540 452 CURVE SMOOTH"
);
},
{
closed = 1;
nodes = (
"366 530 OFFCURVE",
"480 589 OFFCURVE",
"504 596 CURVE SMOOTH",
"510 598 OFFCURVE",
"523 602 OFFCURVE",
"523 609 CURVE SMOOTH",
"523 619 OFFCURVE",
"506 623 OFFCURVE",
"499 623 CURVE SMOOTH",
"478 623 OFFCURVE",
"357 552 OFFCURVE",
"357 535 CURVE SMOOTH",
"357 532 OFFCURVE",
"359 530 OFFCURVE",
"362 530 CURVE SMOOTH"
);
}
);
width = 419;
}
);
note = Zacute;
unicode = 0179;
},
{
color = 0;
glyphname = Zdotaccent;
lastChange = "2021-04-19 21:32:36 +0000";
layers = (
{
hints = (
{
horizontal = 1;
place = "{-12, 61}";
type = Stem;
},
{
horizontal = 1;
place = "{462, 17}";
type = Stem;
},
{
horizontal = 1;
place = "{550, 84}";
type = Stem;
}
);
layerId = "D7866281-830A-4E76-BB32-392A4BC3306E";
paths = (
{
closed = 1;
nodes = (
"540 477 OFFCURVE",
"468 479 OFFCURVE",
"453 479 CURVE SMOOTH",
"392 479 OFFCURVE",
"332 467 OFFCURVE",
"271 467 CURVE SMOOTH",
"258 467 OFFCURVE",
"226 465 OFFCURVE",
"226 484 CURVE SMOOTH",
"226 487 OFFCURVE",
"226 490 OFFCURVE",
"228 493 CURVE",
"199 492 OFFCURVE",
"143 462 OFFCURVE",
"143 428 CURVE SMOOTH",
"143 406 OFFCURVE",
"178 404 OFFCURVE",
"194 404 CURVE SMOOTH",
"238 404 OFFCURVE",
"292 417 OFFCURVE",
"335 430 CURVE SMOOTH",
"372 442 OFFCURVE",
"452 462 OFFCURVE",
"490 462 CURVE SMOOTH",
"493 462 OFFCURVE",
"497 462 OFFCURVE",
"501 460 CURVE",
"460 453 OFFCURVE",
"129 116 OFFCURVE",
"75 60 CURVE",
"66 65 OFFCURVE",
"57 65 OFFCURVE",
"48 65 CURVE SMOOTH",
"22 65 OFFCURVE",
"-10 29 OFFCURVE",
"-10 4 CURVE SMOOTH",
"-10 -7 OFFCURVE",
"-2 -12 OFFCURVE",
"9 -12 CURVE SMOOTH",
"25 -12 OFFCURVE",
"62 19 OFFCURVE",
"77 29 CURVE",
"145 11 OFFCURVE",
"213 -12 OFFCURVE",
"284 -12 CURVE SMOOTH",
"306 -12 OFFCURVE",
"332 -10 OFFCURVE",
"350 5 CURVE SMOOTH",
"377 28 OFFCURVE",
"394 78 OFFCURVE",
"417 100 CURVE SMOOTH",
"419 102 OFFCURVE",
"422 104 OFFCURVE",
"422 107 CURVE SMOOTH",
"422 110 OFFCURVE",
"418 112 OFFCURVE",
"415 112 CURVE SMOOTH",
"411 112 OFFCURVE",
"408 109 OFFCURVE",
"405 106 CURVE SMOOTH",
"367 65 OFFCURVE",
"345 57 OFFCURVE",
"288 52 CURVE SMOOTH",
"261 49 OFFCURVE",
"234 48 OFFCURVE",
"206 48 CURVE SMOOTH",
"173 48 OFFCURVE",
"136 48 OFFCURVE",
"104 57 CURVE",
"200 154 OFFCURVE",
"408 394 OFFCURVE",
"516 450 CURVE",
"520 447 OFFCURVE",
"527 437 OFFCURVE",
"532 437 CURVE SMOOTH",
"538 437 OFFCURVE",
"540 448 OFFCURVE",
"540 452 CURVE SMOOTH"
);
},
{
closed = 1;
nodes = (
"435 550 OFFCURVE",
"430 579 OFFCURVE",
"433 588 CURVE SMOOTH",
"436 602 OFFCURVE",
"440 609 OFFCURVE",
"449 620 CURVE SMOOTH",
"450 621 OFFCURVE",
"450 623 OFFCURVE",
"450 624 CURVE SMOOTH",
"450 630 OFFCURVE",
"444 633 OFFCURVE",
"439 633 CURVE SMOOTH",
"424 633 OFFCURVE",
"371 603 OFFCURVE",
"371 585 CURVE SMOOTH",
"371 570 OFFCURVE",
"409 550 OFFCURVE",
"422 550 CURVE SMOOTH"
);
}
);
width = 419;
}
);
note = Zdotaccent;
unicode = 017B;
},
{
color = 6;
glyphname = A.001;
lastChange = "2021-04-19 22:33:14 +0000";
layers = (
{
layerId = "D7866281-830A-4E76-BB32-392A4BC3306E";
paths = (
{
closed = 1;
nodes = (
"337 22 OFFCURVE",
"410 91 OFFCURVE",
"480 168 CURVE",
"504 166 OFFCURVE",
"645 145 OFFCURVE",
"650 133 CURVE",
"651 127 OFFCURVE",
"656 126 OFFCURVE",
"655 135 CURVE SMOOTH",
"650 169 OFFCURVE",
"576 202 OFFCURVE",
"523 217 CURVE",
"600 305 OFFCURVE",
"667 397 OFFCURVE",
"765 461 CURVE SMOOTH",
"799 483 OFFCURVE",
"873 513 OFFCURVE",
"836 436 CURVE SMOOTH",
"785 328 OFFCURVE",
"719 227 OFFCURVE",
"661 122 CURVE SMOOTH",
"635 73 OFFCURVE",
"625 48 OFFCURVE",
"629 26 CURVE SMOOTH",
"636 -24 OFFCURVE",
"691 0 OFFCURVE",
"691 0 CURVE",
"686 15 OFFCURVE",
"713 65 OFFCURVE",
"738 111 CURVE SMOOTH",
"776 180 OFFCURVE",
"852 313 OFFCURVE",
"884 363 CURVE SMOOTH",
"980 510 OFFCURVE",
"866 542 OFFCURVE",
"759 477 CURVE SMOOTH",
"665 420 OFFCURVE",
"583 306 OFFCURVE",
"511 222 CURVE",
"432 243 OFFCURVE",
"302 241 OFFCURVE",
"218 224 CURVE SMOOTH",
"11 182 OFFCURVE",
"-44 63 OFFCURVE",
"30 -2 CURVE SMOOTH",
"59 -27 OFFCURVE",
"151 -51 OFFCURVE",
"253 -11 CURVE SMOOTH"
);
},
{
closed = 1;
nodes = (
"20 37 OFFCURVE",
"64 114 OFFCURVE",
"248 151 CURVE SMOOTH",
"316 165 OFFCURVE",
"397 173 OFFCURVE",
"465 169 CURVE",
"396 92 OFFCURVE",
"324 25 OFFCURVE",
"250 -1 CURVE SMOOTH",
"166 -31 OFFCURVE",
"88 -21 OFFCURVE",
"66 -2 CURVE SMOOTH"
);
}
);
width = 817;
}
);
},
{
color = 6;
glyphname = Aacute.001;
lastChange = "2021-04-19 22:33:14 +0000";
layers = (
{
layerId = "D7866281-830A-4E76-BB32-392A4BC3306E";
paths = (
{
closed = 1;
nodes = (
"337 22 OFFCURVE",
"410 91 OFFCURVE",
"480 168 CURVE",
"504 166 OFFCURVE",
"645 145 OFFCURVE",
"650 133 CURVE",
"651 127 OFFCURVE",
"656 126 OFFCURVE",
"655 135 CURVE SMOOTH",
"650 169 OFFCURVE",
"576 202 OFFCURVE",
"523 217 CURVE",
"600 305 OFFCURVE",
"667 397 OFFCURVE",
"765 461 CURVE SMOOTH",
"799 483 OFFCURVE",
"873 513 OFFCURVE",
"836 436 CURVE SMOOTH",
"785 328 OFFCURVE",
"719 227 OFFCURVE",
"661 122 CURVE SMOOTH",
"635 73 OFFCURVE",
"625 48 OFFCURVE",
"629 26 CURVE SMOOTH",
"636 -24 OFFCURVE",
"691 0 OFFCURVE",
"691 0 CURVE",
"686 15 OFFCURVE",
"713 65 OFFCURVE",
"738 111 CURVE SMOOTH",
"776 180 OFFCURVE",
"852 313 OFFCURVE",
"884 363 CURVE SMOOTH",
"980 510 OFFCURVE",
"866 542 OFFCURVE",
"759 477 CURVE SMOOTH",
"665 420 OFFCURVE",
"583 306 OFFCURVE",
"511 222 CURVE",
"432 243 OFFCURVE",
"302 241 OFFCURVE",
"218 224 CURVE SMOOTH",
"11 182 OFFCURVE",
"-44 63 OFFCURVE",
"30 -2 CURVE SMOOTH",
"59 -27 OFFCURVE",
"151 -51 OFFCURVE",
"253 -11 CURVE SMOOTH"
);
},
{
closed = 1;
nodes = (
"20 37 OFFCURVE",
"64 114 OFFCURVE",
"248 151 CURVE SMOOTH",
"316 165 OFFCURVE",
"397 173 OFFCURVE",
"465 169 CURVE",
"396 92 OFFCURVE",
"324 25 OFFCURVE",
"250 -1 CURVE SMOOTH",
"166 -31 OFFCURVE",
"88 -21 OFFCURVE",
"66 -2 CURVE SMOOTH"
);
},
{
closed = 1;
nodes = (
"877 556 OFFCURVE",
"977 613 OFFCURVE",
"1012 622 CURVE SMOOTH",
"1053 633 OFFCURVE",
"1018 655 OFFCURVE",
"996 647 CURVE SMOOTH",
"943 626 OFFCURVE",
"890 587 OFFCURVE",
"867 566 CURVE",
"864 562 OFFCURVE",
"864 556 OFFCURVE",
"870 556 CURVE SMOOTH"
);
}
);
width = 817;
}
);
},
{
color = 6;
glyphname = Abreve.001;
lastChange = "2021-04-19 22:33:14 +0000";
layers = (
{
hints = (
{
horizontal = 1;
place = "{486, 23}";
type = Stem;
},
{
place = "{22, 32}";
type = Stem;
},
{
place = "{362, 55}";
type = Stem;
},
{
place = "{581, 62}";
type = Stem;
},
{
horizontal = 1;
place = "{562, 31}";
type = Stem;
},
{
place = "{552, 33}";
type = Stem;
},
{
horizontal = 1;
place = "{215, -44}";
type = Stem;
},
{
horizontal = 1;
place = "{310, -20}";
target = down;
type = TopGhost;
},
{
horizontal = 1;
place = "{383, -47}";
type = Stem;
}
);
layerId = "D7866281-830A-4E76-BB32-392A4BC3306E";
paths = (
{
closed = 1;
nodes = (
"337 22 OFFCURVE",
"410 91 OFFCURVE",
"480 168 CURVE",
"504 166 OFFCURVE",
"645 145 OFFCURVE",
"650 133 CURVE",
"651 127 OFFCURVE",
"656 126 OFFCURVE",
"655 135 CURVE SMOOTH",
"650 169 OFFCURVE",
"576 202 OFFCURVE",
"523 217 CURVE",
"600 305 OFFCURVE",
"667 397 OFFCURVE",
"765 461 CURVE SMOOTH",
"799 483 OFFCURVE",
"873 513 OFFCURVE",
"836 436 CURVE SMOOTH",
"785 328 OFFCURVE",
"719 227 OFFCURVE",
"661 122 CURVE SMOOTH",
"635 73 OFFCURVE",
"625 48 OFFCURVE",
"629 26 CURVE SMOOTH",
"636 -24 OFFCURVE",
"691 0 OFFCURVE",
"691 0 CURVE",
"686 15 OFFCURVE",
"713 65 OFFCURVE",
"738 111 CURVE SMOOTH",
"776 180 OFFCURVE",
"852 313 OFFCURVE",
"884 363 CURVE SMOOTH",
"980 510 OFFCURVE",
"866 542 OFFCURVE",
"759 477 CURVE SMOOTH",
"665 420 OFFCURVE",
"583 306 OFFCURVE",
"511 222 CURVE",
"432 243 OFFCURVE",
"302 241 OFFCURVE",
"218 224 CURVE SMOOTH",
"11 182 OFFCURVE",
"-44 63 OFFCURVE",
"30 -2 CURVE SMOOTH",
"59 -27 OFFCURVE",
"151 -51 OFFCURVE",
"253 -11 CURVE SMOOTH"
);
},
{
closed = 1;
nodes = (
"20 37 OFFCURVE",
"64 114 OFFCURVE",
"248 151 CURVE SMOOTH",
"316 165 OFFCURVE",
"397 173 OFFCURVE",
"465 169 CURVE",
"396 92 OFFCURVE",
"324 25 OFFCURVE",
"250 -1 CURVE SMOOTH",
"166 -31 OFFCURVE",
"88 -21 OFFCURVE",
"66 -2 CURVE SMOOTH"
);
},
{
closed = 1;
nodes = (
"932 544 OFFCURVE",
"970 571 OFFCURVE",
"986 612 CURVE SMOOTH",
"989 619 OFFCURVE",
"976 623 OFFCURVE",
"968 614 CURVE SMOOTH",
"917 556 OFFCURVE",
"856 566 OFFCURVE",
"844 614 CURVE SMOOTH",
"840 627 OFFCURVE",
"829 622 OFFCURVE",
"828 610 CURVE",
"817 572 OFFCURVE",
"847 544 OFFCURVE",
"888 544 CURVE SMOOTH"
);
}
);
width = 817;
}
);
note = Abreve;
},
{
color = 6;
glyphname = Abreveacute.001;
lastChange = "2021-04-19 22:33:14 +0000";
layers = (
{
hints = (
{
horizontal = 1;
place = "{280, 22}";
type = Stem;
},
{
horizontal = 1;
place = "{375, -20}";
target = down;
type = TopGhost;
},
{
horizontal = 1;
place = "{175, 21}";
target = up;
type = BottomGhost;
},
{
horizontal = 1;
place = "{278, -20}";
target = down;
type = TopGhost;
},
{
horizontal = 1;
place = "{280, 22}";
type = Stem;
},
{
horizontal = 1;
place = "{375, -20}";
target = down;
type = TopGhost;
},
{
horizontal = 1;
place = "{448, 19}";
type = Stem;
},
{
horizontal = 1;
place = "{256, 21}";
target = up;
type = BottomGhost;
},
{
horizontal = 1;
place = "{359, -20}";
target = down;
type = TopGhost;
},
{
horizontal = 1;
place = "{642.95, 100.3}";
type = Stem;
},
{
place = "{882.35, 133.45}";
type = Stem;
}
);
layerId = "D7866281-830A-4E76-BB32-392A4BC3306E";
paths = (
{
closed = 1;
nodes = (
"337 22 OFFCURVE",
"410 91 OFFCURVE",
"480 168 CURVE",
"504 166 OFFCURVE",
"645 145 OFFCURVE",
"650 133 CURVE",
"651 127 OFFCURVE",
"656 126 OFFCURVE",
"655 135 CURVE SMOOTH",
"650 169 OFFCURVE",
"576 202 OFFCURVE",
"523 217 CURVE",
"600 305 OFFCURVE",
"667 397 OFFCURVE",
"765 461 CURVE SMOOTH",
"799 483 OFFCURVE",
"873 513 OFFCURVE",
"836 436 CURVE SMOOTH",
"785 328 OFFCURVE",
"719 227 OFFCURVE",
"661 122 CURVE SMOOTH",
"635 73 OFFCURVE",
"625 48 OFFCURVE",
"629 26 CURVE SMOOTH",
"636 -24 OFFCURVE",
"691 0 OFFCURVE",
"691 0 CURVE",
"686 15 OFFCURVE",
"713 65 OFFCURVE",
"738 111 CURVE SMOOTH",
"776 180 OFFCURVE",
"852 313 OFFCURVE",
"884 363 CURVE SMOOTH",
"980 510 OFFCURVE",
"866 542 OFFCURVE",
"759 477 CURVE SMOOTH",
"665 420 OFFCURVE",
"583 306 OFFCURVE",
"511 222 CURVE",
"432 243 OFFCURVE",
"302 241 OFFCURVE",
"218 224 CURVE SMOOTH",
"11 182 OFFCURVE",
"-44 63 OFFCURVE",
"30 -2 CURVE SMOOTH",
"59 -27 OFFCURVE",
"151 -51 OFFCURVE",
"253 -11 CURVE SMOOTH"
);
},
{
closed = 1;
nodes = (
"20 37 OFFCURVE",
"64 114 OFFCURVE",
"248 151 CURVE SMOOTH",
"316 165 OFFCURVE",
"397 173 OFFCURVE",
"465 169 CURVE",
"396 92 OFFCURVE",
"324 25 OFFCURVE",
"250 -1 CURVE SMOOTH",
"166 -31 OFFCURVE",
"88 -21 OFFCURVE",
"66 -2 CURVE SMOOTH"
);
},
{
closed = 1;
nodes = (
"939 543 OFFCURVE",
"974 570 OFFCURVE",
"986 611 CURVE SMOOTH",
"988 618 OFFCURVE",
"975 622 OFFCURVE",
"968 613 CURVE SMOOTH",
"923 555 OFFCURVE",
"861 565 OFFCURVE",
"844 613 CURVE",
"838 626 OFFCURVE",
"828 621 OFFCURVE",
"828 609 CURVE",
"821 571 OFFCURVE",
"854 543 OFFCURVE",
"895 543 CURVE SMOOTH"
);
},
{
closed = 1;
nodes = (
"887 623 OFFCURVE",
"889 624 OFFCURVE",
"911 636 CURVE SMOOTH",
"930 646 OFFCURVE",
"1006 709 OFFCURVE",
"1006 719 CURVE",
"1002 720 LINE SMOOTH",
"982 725 OFFCURVE",
"973 730 OFFCURVE",
"964 722 CURVE SMOOTH",
"941 703 OFFCURVE",
"908 658 OFFCURVE",
"883 634 CURVE SMOOTH",
"866 617 OFFCURVE",
"878 619 OFFCURVE",
"882 621 CURVE SMOOTH"
);
}
);
width = 817;
}
);
},
{
color = 6;
glyphname = Abrevedotbelow.001;
lastChange = "2021-04-19 22:33:14 +0000";
layers = (
{
hints = (
{
horizontal = 1;
place = "{-155.366, 21}";
target = up;
type = BottomGhost;
},
{
horizontal = 1;
place = "{-95.851, -20}";
target = down;
type = TopGhost;
},
{
horizontal = 1;
place = "{-114.1, 66.6}";
type = Stem;
},
{
place = "{422.9, 60.3}";
type = Stem;
},
{
place = "{440.9, 67.5}";
type = Stem;
},
{
horizontal = 1;
place = "{219, -44}";
type = Stem;
},
{
horizontal = 1;
place = "{314, -20}";
target = down;
type = TopGhost;
},
{
horizontal = 1;
place = "{387, -47}";
type = Stem;
}
);
layerId = "D7866281-830A-4E76-BB32-392A4BC3306E";
paths = (
{
closed = 1;
nodes = (
"337 22 OFFCURVE",
"410 91 OFFCURVE",
"480 168 CURVE",
"504 166 OFFCURVE",
"645 145 OFFCURVE",
"650 133 CURVE",
"651 127 OFFCURVE",
"656 126 OFFCURVE",
"655 135 CURVE SMOOTH",
"650 169 OFFCURVE",
"576 202 OFFCURVE",
"523 217 CURVE",
"600 305 OFFCURVE",
"667 397 OFFCURVE",
"765 461 CURVE SMOOTH",
"799 483 OFFCURVE",
"873 513 OFFCURVE",
"836 436 CURVE SMOOTH",
"785 328 OFFCURVE",
"719 227 OFFCURVE",
"661 122 CURVE SMOOTH",
"635 73 OFFCURVE",
"625 48 OFFCURVE",
"629 26 CURVE SMOOTH",
"636 -24 OFFCURVE",
"691 0 OFFCURVE",
"691 0 CURVE",
"686 15 OFFCURVE",
"713 65 OFFCURVE",
"738 111 CURVE SMOOTH",
"776 180 OFFCURVE",
"852 313 OFFCURVE",
"884 363 CURVE SMOOTH",
"980 510 OFFCURVE",
"866 542 OFFCURVE",
"759 477 CURVE SMOOTH",
"665 420 OFFCURVE",
"583 306 OFFCURVE",
"511 222 CURVE",
"432 243 OFFCURVE",
"302 241 OFFCURVE",
"218 224 CURVE SMOOTH",
"11 182 OFFCURVE",
"-44 63 OFFCURVE",
"30 -2 CURVE SMOOTH",
"59 -27 OFFCURVE",
"151 -51 OFFCURVE",
"253 -11 CURVE SMOOTH"
);
},
{
closed = 1;
nodes = (
"20 37 OFFCURVE",
"64 114 OFFCURVE",
"248 151 CURVE SMOOTH",
"316 165 OFFCURVE",
"397 173 OFFCURVE",
"465 169 CURVE",
"396 92 OFFCURVE",
"324 25 OFFCURVE",
"250 -1 CURVE SMOOTH",
"166 -31 OFFCURVE",
"88 -21 OFFCURVE",
"66 -2 CURVE SMOOTH"
);
},
{
closed = 1;
nodes = (
"476 -113 OFFCURVE",
"472 -88 OFFCURVE",
"474 -80 CURVE",
"479 -69 OFFCURVE",
"480 -62 OFFCURVE",
"488 -53 CURVE",
"490 -53 OFFCURVE",
"490 -51 OFFCURVE",
"489 -50 CURVE",
"490 -45 OFFCURVE",
"484 -43 OFFCURVE",
"480 -42 CURVE",
"466 -43 OFFCURVE",
"420 -68 OFFCURVE",
"419 -83 CURVE",
"420 -96 OFFCURVE",
"453 -113 OFFCURVE",
"465 -112 CURVE"
);
},
{
closed = 1;
nodes = (
"929 548 OFFCURVE",
"967 575 OFFCURVE",
"983 616 CURVE SMOOTH",
"986 623 OFFCURVE",
"973 627 OFFCURVE",
"965 618 CURVE SMOOTH",
"914 560 OFFCURVE",
"853 570 OFFCURVE",
"841 618 CURVE SMOOTH",
"837 631 OFFCURVE",
"826 626 OFFCURVE",
"825 614 CURVE",
"814 576 OFFCURVE",
"844 548 OFFCURVE",
"885 548 CURVE SMOOTH"
);
}
);
width = 817;
}
);
},
{
color = 6;
glyphname = Abrevegrave.001;
lastChange = "2021-04-19 22:33:14 +0000";
layers = (
{
hints = (
{
horizontal = 1;
place = "{403, 22}";
type = Stem;
},
{
horizontal = 1;
place = "{498, -20}";
target = down;
type = TopGhost;
},
{
horizontal = 1;
place = "{477.953, 21}";
target = up;
type = BottomGhost;
},
{
horizontal = 1;
place = "{569.057, -20}";
target = down;
type = TopGhost;
},
{
horizontal = 1;
place = "{285, 22}";
type = Stem;
},
{
horizontal = 1;
place = "{380, -20}";
target = down;
type = TopGhost;
},
{
horizontal = 1;
place = "{453, 19}";
type = Stem;
},
{
horizontal = 1;
place = "{304, 21}";
target = up;
type = BottomGhost;
},
{
horizontal = 1;
place = "{406, -20}";
target = down;
type = TopGhost;
},
{
horizontal = 1;
place = "{620, 118}";
type = Stem;
},
{
horizontal = 1;
place = "{642, 118}";
type = Stem;
},
{
place = "{778, 157}";
type = Stem;
},
{
place = "{961, 157}";
type = Stem;
},
{
horizontal = 1;
place = "{632.4, 100.3}";
type = Stem;
},
{
horizontal = 1;
place = "{651.95, 100.3}";
type = Stem;
},
{
place = "{809.35, 133.45}";
type = Stem;
},
{
place = "{964.9, 133.45}";
type = Stem;
}
);
layerId = "D7866281-830A-4E76-BB32-392A4BC3306E";
paths = (
{
closed = 1;
nodes = (
"337 22 OFFCURVE",
"410 91 OFFCURVE",
"480 168 CURVE",
"504 166 OFFCURVE",
"645 145 OFFCURVE",
"650 133 CURVE",
"651 127 OFFCURVE",
"656 126 OFFCURVE",
"655 135 CURVE SMOOTH",
"650 169 OFFCURVE",
"576 202 OFFCURVE",
"523 217 CURVE",
"600 305 OFFCURVE",
"667 397 OFFCURVE",
"765 461 CURVE SMOOTH",
"799 483 OFFCURVE",
"873 513 OFFCURVE",
"836 436 CURVE SMOOTH",
"785 328 OFFCURVE",
"719 227 OFFCURVE",
"661 122 CURVE SMOOTH",
"635 73 OFFCURVE",
"625 48 OFFCURVE",
"629 26 CURVE SMOOTH",
"636 -24 OFFCURVE",
"691 0 OFFCURVE",
"691 0 CURVE",
"686 15 OFFCURVE",
"713 65 OFFCURVE",
"738 111 CURVE SMOOTH",
"776 180 OFFCURVE",
"852 313 OFFCURVE",
"884 363 CURVE SMOOTH",
"980 510 OFFCURVE",
"866 542 OFFCURVE",
"759 477 CURVE SMOOTH",
"665 420 OFFCURVE",
"583 306 OFFCURVE",
"511 222 CURVE",
"432 243 OFFCURVE",
"302 241 OFFCURVE",
"218 224 CURVE SMOOTH",
"11 182 OFFCURVE",
"-44 63 OFFCURVE",
"30 -2 CURVE SMOOTH",
"59 -27 OFFCURVE",
"151 -51 OFFCURVE",
"253 -11 CURVE SMOOTH"
);
},
{
closed = 1;
nodes = (
"20 37 OFFCURVE",
"64 114 OFFCURVE",
"248 151 CURVE SMOOTH",
"316 165 OFFCURVE",
"397 173 OFFCURVE",
"465 169 CURVE",
"396 92 OFFCURVE",
"324 25 OFFCURVE",
"250 -1 CURVE SMOOTH",
"166 -31 OFFCURVE",
"88 -21 OFFCURVE",
"66 -2 CURVE SMOOTH"
);
},
{
closed = 1;
nodes = (
"940 548 OFFCURVE",
"975 575 OFFCURVE",
"987 616 CURVE SMOOTH",
"989 623 OFFCURVE",
"976 627 OFFCURVE",
"969 618 CURVE SMOOTH",
"924 560 OFFCURVE",
"862 570 OFFCURVE",
"845 618 CURVE",
"839 631 OFFCURVE",
"829 626 OFFCURVE",
"829 614 CURVE",
"822 576 OFFCURVE",
"855 548 OFFCURVE",
"896 548 CURVE SMOOTH"
);
},
{
closed = 1;
nodes = (
"955 634 OFFCURVE",
"965 632 OFFCURVE",
"951 646 CURVE SMOOTH",
"930 667 OFFCURVE",
"902 704 OFFCURVE",
"883 720 CURVE SMOOTH",
"875 727 OFFCURVE",
"868 723 OFFCURVE",
"851 719 CURVE SMOOTH",
"850 719 OFFCURVE",
"848 718 OFFCURVE",
"848 718 CURVE",
"848 709 OFFCURVE",
"911 656 OFFCURVE",
"927 648 CURVE SMOOTH",
"946 638 OFFCURVE",
"947 637 OFFCURVE",
"952 635 CURVE SMOOTH"
);
}
);
width = 817;
}
);
},
{
color = 6;
glyphname = Abrevehookabove.001;
lastChange = "2021-04-19 22:33:14 +0000";
layers = (
{
hints = (
{
horizontal = 1;
place = "{286, 22}";
type = Stem;
},
{
horizontal = 1;
place = "{381, -20}";
target = down;
type = TopGhost;
},
{
horizontal = 1;
place = "{611, -24}";
type = Stem;
},
{
horizontal = 1;
place = "{476, 21}";
target = up;
type = BottomGhost;
},
{
place = "{887, -27}";
type = Stem;
},
{
horizontal = 1;
place = "{286, 22}";
type = Stem;
},
{
horizontal = 1;
place = "{381, -20}";
target = down;
type = TopGhost;
},
{
horizontal = 1;
place = "{454, 19}";
type = Stem;
},
{
horizontal = 1;
place = "{670, -28}";
type = Stem;
},
{
horizontal = 1;
place = "{510, 21}";
target = up;
type = BottomGhost;
},
{
place = "{960, -32}";
type = Stem;
}
);
layerId = "D7866281-830A-4E76-BB32-392A4BC3306E";
paths = (
{
closed = 1;
nodes = (
"337 22 OFFCURVE",
"410 91 OFFCURVE",
"480 168 CURVE",
"504 166 OFFCURVE",
"645 145 OFFCURVE",
"650 133 CURVE",
"651 127 OFFCURVE",
"656 126 OFFCURVE",
"655 135 CURVE SMOOTH",
"650 169 OFFCURVE",
"576 202 OFFCURVE",
"523 217 CURVE",
"600 305 OFFCURVE",
"667 397 OFFCURVE",
"765 461 CURVE SMOOTH",
"799 483 OFFCURVE",
"873 513 OFFCURVE",
"836 436 CURVE SMOOTH",
"785 328 OFFCURVE",
"719 227 OFFCURVE",
"661 122 CURVE SMOOTH",
"635 73 OFFCURVE",
"625 48 OFFCURVE",
"629 26 CURVE SMOOTH",
"636 -24 OFFCURVE",
"691 0 OFFCURVE",
"691 0 CURVE",
"686 15 OFFCURVE",
"713 65 OFFCURVE",
"738 111 CURVE SMOOTH",
"776 180 OFFCURVE",
"852 313 OFFCURVE",
"884 363 CURVE SMOOTH",
"980 510 OFFCURVE",
"866 542 OFFCURVE",
"759 477 CURVE SMOOTH",
"665 420 OFFCURVE",
"583 306 OFFCURVE",
"511 222 CURVE",
"432 243 OFFCURVE",
"302 241 OFFCURVE",
"218 224 CURVE SMOOTH",
"11 182 OFFCURVE",
"-44 63 OFFCURVE",
"30 -2 CURVE SMOOTH",
"59 -27 OFFCURVE",
"151 -51 OFFCURVE",
"253 -11 CURVE SMOOTH"
);
},
{
closed = 1;
nodes = (
"20 37 OFFCURVE",
"64 114 OFFCURVE",
"248 151 CURVE SMOOTH",
"316 165 OFFCURVE",
"397 173 OFFCURVE",
"465 169 CURVE",
"396 92 OFFCURVE",
"324 25 OFFCURVE",
"250 -1 CURVE SMOOTH",
"166 -31 OFFCURVE",
"88 -21 OFFCURVE",
"66 -2 CURVE SMOOTH"
);
},
{
closed = 1;
nodes = (
"916 549 OFFCURVE",
"951 576 OFFCURVE",
"963 617 CURVE SMOOTH",
"965 624 OFFCURVE",
"952 628 OFFCURVE",
"945 619 CURVE SMOOTH",
"900 561 OFFCURVE",
"838 571 OFFCURVE",
"821 619 CURVE",
"815 632 OFFCURVE",
"805 627 OFFCURVE",
"805 615 CURVE",
"798 577 OFFCURVE",
"831 549 OFFCURVE",
"872 549 CURVE SMOOTH"
);
},
{
closed = 1;
nodes = (
"898 633 OFFCURVE",
"933 661 OFFCURVE",
"947 685 CURVE SMOOTH",
"963 712 OFFCURVE",
"959 745 OFFCURVE",
"920 746 CURVE SMOOTH",
"893 747 OFFCURVE",
"875 740 OFFCURVE",
"860 727 CURVE SMOOTH",
"843 713 OFFCURVE",
"857 712 OFFCURVE",
"865 716 CURVE SMOOTH",
"894 731 OFFCURVE",
"937 727 OFFCURVE",
"920 687 CURVE SMOOTH",
"914 673 OFFCURVE",
"885 647 OFFCURVE",
"872 626 CURVE SMOOTH",
"867 618 OFFCURVE",
"877 620 OFFCURVE",
"885 625 CURVE SMOOTH"
);
}
);
width = 817;
}
);
},
{
color = 6;
glyphname = Abrevetilde.001;
lastChange = "2021-04-19 22:33:14 +0000";
layers = (
{
hints = (
{
horizontal = 1;
place = "{414, 22}";
type = Stem;
},
{
horizontal = 1;
place = "{509, -20}";
target = down;
type = TopGhost;
},
{
horizontal = 1;
place = "{520, 21}";
target = up;
type = BottomGhost;
},
{
horizontal = 1;
place = "{573, -20}";
target = down;
type = TopGhost;
},
{
horizontal = 1;
place = "{519, 21}";
target = up;
type = BottomGhost;
},
{
horizontal = 1;
place = "{277, 22}";
type = Stem;
},
{
horizontal = 1;
place = "{372, -20}";
target = down;
type = TopGhost;
},
{
horizontal = 1;
place = "{445, 19}";
type = Stem;
},
{
horizontal = 1;
place = "{479.3, 21}";
target = up;
type = BottomGhost;
},
{
horizontal = 1;
place = "{524.35, -20}";
target = down;
type = TopGhost;
},
{
horizontal = 1;
place = "{478.45, 21}";
target = up;
type = BottomGhost;
},
{
horizontal = 1;
place = "{605.1, 23.8}";
type = Stem;
},
{
horizontal = 1;
place = "{624.65, 19.55}";
type = Stem;
},
{
place = "{807.037, 159.8}";
type = Stem;
}
);
layerId = "D7866281-830A-4E76-BB32-392A4BC3306E";
paths = (
{
closed = 1;
nodes = (
"337 22 OFFCURVE",
"410 91 OFFCURVE",
"480 168 CURVE",
"504 166 OFFCURVE",
"645 145 OFFCURVE",
"650 133 CURVE",
"651 127 OFFCURVE",
"656 126 OFFCURVE",
"655 135 CURVE SMOOTH",
"650 169 OFFCURVE",
"576 202 OFFCURVE",
"523 217 CURVE",
"600 305 OFFCURVE",
"667 397 OFFCURVE",
"765 461 CURVE SMOOTH",
"799 483 OFFCURVE",
"873 513 OFFCURVE",
"836 436 CURVE SMOOTH",
"785 328 OFFCURVE",
"719 227 OFFCURVE",
"661 122 CURVE SMOOTH",
"635 73 OFFCURVE",
"625 48 OFFCURVE",
"629 26 CURVE SMOOTH",
"636 -24 OFFCURVE",
"691 0 OFFCURVE",
"691 0 CURVE",
"686 15 OFFCURVE",
"713 65 OFFCURVE",
"738 111 CURVE SMOOTH",
"776 180 OFFCURVE",
"852 313 OFFCURVE",
"884 363 CURVE SMOOTH",
"980 510 OFFCURVE",
"866 542 OFFCURVE",
"759 477 CURVE SMOOTH",
"665 420 OFFCURVE",
"583 306 OFFCURVE",
"511 222 CURVE",
"432 243 OFFCURVE",
"302 241 OFFCURVE",
"218 224 CURVE SMOOTH",
"11 182 OFFCURVE",
"-44 63 OFFCURVE",
"30 -2 CURVE SMOOTH",
"59 -27 OFFCURVE",
"151 -51 OFFCURVE",
"253 -11 CURVE SMOOTH"
);
},
{
closed = 1;
nodes = (
"20 37 OFFCURVE",
"64 114 OFFCURVE",
"248 151 CURVE SMOOTH",
"316 165 OFFCURVE",
"397 173 OFFCURVE",
"465 169 CURVE",
"396 92 OFFCURVE",
"324 25 OFFCURVE",
"250 -1 CURVE SMOOTH",
"166 -31 OFFCURVE",
"88 -21 OFFCURVE",
"66 -2 CURVE SMOOTH"
);
},
{
closed = 1;
nodes = (
"936 540 OFFCURVE",
"977 567 OFFCURVE",
"997 608 CURVE SMOOTH",
"1001 615 OFFCURVE",
"989 619 OFFCURVE",
"980 610 CURVE SMOOTH",
"923 552 OFFCURVE",
"863 562 OFFCURVE",
"856 610 CURVE",
"852 623 OFFCURVE",
"841 618 OFFCURVE",
"839 606 CURVE",
"824 568 OFFCURVE",
"851 540 OFFCURVE",
"892 540 CURVE SMOOTH"
);
},
{
closed = 1;
nodes = (
"972 650 OFFCURVE",
"1004 669 OFFCURVE",
"1004 692 CURVE SMOOTH",
"1004 700 OFFCURVE",
"1001 700 OFFCURVE",
"997 700 CURVE",
"989 687 OFFCURVE",
"984 681 OFFCURVE",
"972 681 CURVE SMOOTH",
"947 681 OFFCURVE",
"925 701 OFFCURVE",
"894 701 CURVE SMOOTH",
"870 701 OFFCURVE",
"844 673 OFFCURVE",
"844 653 CURVE SMOOTH",
"844 652 OFFCURVE",
"845 649 OFFCURVE",
"849 651 CURVE",
"856 658 OFFCURVE",
"867 676 OFFCURVE",
"884 676 CURVE SMOOTH",
"910 676 OFFCURVE",
"922 650 OFFCURVE",
"955 650 CURVE SMOOTH"
);
}
);
width = 817;
}
);
},
{
color = 6;
glyphname = Acaron.001;
lastChange = "2021-04-19 22:33:14 +0000";
layers = (
{
hints = (
{
horizontal = 1;
place = "{266, -87}";
type = Stem;
},
{
place = "{563, 36}";
type = Stem;
}
);
layerId = "D7866281-830A-4E76-BB32-392A4BC3306E";
paths = (
{
closed = 1;
nodes = (
"337 22 OFFCURVE",
"410 91 OFFCURVE",
"480 168 CURVE",
"504 166 OFFCURVE",
"645 145 OFFCURVE",
"650 133 CURVE",
"651 127 OFFCURVE",
"656 126 OFFCURVE",
"655 135 CURVE SMOOTH",
"650 169 OFFCURVE",
"576 202 OFFCURVE",
"523 217 CURVE",
"600 305 OFFCURVE",
"667 397 OFFCURVE",
"765 461 CURVE SMOOTH",
"799 483 OFFCURVE",
"873 513 OFFCURVE",
"836 436 CURVE SMOOTH",
"785 328 OFFCURVE",
"719 227 OFFCURVE",
"661 122 CURVE SMOOTH",
"635 73 OFFCURVE",
"625 48 OFFCURVE",
"629 26 CURVE SMOOTH",
"636 -24 OFFCURVE",
"691 0 OFFCURVE",
"691 0 CURVE",
"686 15 OFFCURVE",
"713 65 OFFCURVE",
"738 111 CURVE SMOOTH",
"776 180 OFFCURVE",
"852 313 OFFCURVE",
"884 363 CURVE SMOOTH",
"980 510 OFFCURVE",
"866 542 OFFCURVE",
"759 477 CURVE SMOOTH",
"665 420 OFFCURVE",
"583 306 OFFCURVE",
"511 222 CURVE",
"432 243 OFFCURVE",
"302 241 OFFCURVE",
"218 224 CURVE SMOOTH",
"11 182 OFFCURVE",
"-44 63 OFFCURVE",
"30 -2 CURVE SMOOTH",
"59 -27 OFFCURVE",
"151 -51 OFFCURVE",
"253 -11 CURVE SMOOTH"
);
},
{
closed = 1;
nodes = (
"20 37 OFFCURVE",
"64 114 OFFCURVE",
"248 151 CURVE SMOOTH",
"316 165 OFFCURVE",
"397 173 OFFCURVE",
"465 169 CURVE",
"396 92 OFFCURVE",
"324 25 OFFCURVE",
"250 -1 CURVE SMOOTH",
"166 -31 OFFCURVE",
"88 -21 OFFCURVE",
"66 -2 CURVE SMOOTH"
);
},
{
closed = 1;
nodes = (
"893 566 OFFCURVE",
"897 569 OFFCURVE",
"900 571 CURVE SMOOTH",
"914 578 OFFCURVE",
"1003 648 OFFCURVE",
"1017 655 CURVE SMOOTH",
"1026 659 OFFCURVE",
"1028 661 OFFCURVE",
"1028 663 CURVE SMOOTH",
"1028 665 OFFCURVE",
"1027 665 OFFCURVE",
"1024 665 CURVE SMOOTH",
"1020 665 OFFCURVE",
"1010 661 OFFCURVE",
"999 656 CURVE SMOOTH",
"980 647 OFFCURVE",
"933 623 OFFCURVE",
"903 602 CURVE",
"890 622 OFFCURVE",
"866 651 OFFCURVE",
"850 656 CURVE",
"843 660 OFFCURVE",
"836 661 OFFCURVE",
"831 661 CURVE SMOOTH",
"828 661 OFFCURVE",
"826 661 OFFCURVE",
"824 659 CURVE",
"824 658 OFFCURVE",
"824 656 OFFCURVE",
"829 653 CURVE SMOOTH",
"839 648 OFFCURVE",
"862 585 OFFCURVE",
"869 576 CURVE SMOOTH",
"873 570 OFFCURVE",
"881 566 OFFCURVE",
"889 566 CURVE SMOOTH"
);
}
);
width = 817;
}
);
},
{
color = 6;
glyphname = Acircumflex.001;
lastChange = "2021-04-19 22:33:14 +0000";
layers = (
{
layerId = "D7866281-830A-4E76-BB32-392A4BC3306E";
paths = (
{
closed = 1;
nodes = (
"337 22 OFFCURVE",
"410 91 OFFCURVE",
"480 168 CURVE",
"504 166 OFFCURVE",
"645 145 OFFCURVE",
"650 133 CURVE",
"651 127 OFFCURVE",
"656 126 OFFCURVE",
"655 135 CURVE SMOOTH",
"650 169 OFFCURVE",
"576 202 OFFCURVE",
"523 217 CURVE",
"600 305 OFFCURVE",
"667 397 OFFCURVE",
"765 461 CURVE SMOOTH",
"799 483 OFFCURVE",
"873 513 OFFCURVE",
"836 436 CURVE SMOOTH",
"785 328 OFFCURVE",
"719 227 OFFCURVE",
"661 122 CURVE SMOOTH",
"635 73 OFFCURVE",
"625 48 OFFCURVE",
"629 26 CURVE SMOOTH",
"636 -24 OFFCURVE",
"691 0 OFFCURVE",
"691 0 CURVE",
"686 15 OFFCURVE",
"713 65 OFFCURVE",
"738 111 CURVE SMOOTH",
"776 180 OFFCURVE",
"852 313 OFFCURVE",
"884 363 CURVE SMOOTH",
"980 510 OFFCURVE",
"866 542 OFFCURVE",
"759 477 CURVE SMOOTH",
"665 420 OFFCURVE",
"583 306 OFFCURVE",
"511 222 CURVE",
"432 243 OFFCURVE",
"302 241 OFFCURVE",
"218 224 CURVE SMOOTH",
"11 182 OFFCURVE",
"-44 63 OFFCURVE",
"30 -2 CURVE SMOOTH",
"59 -27 OFFCURVE",
"151 -51 OFFCURVE",
"253 -11 CURVE SMOOTH"
);
},
{
closed = 1;
nodes = (
"20 37 OFFCURVE",
"64 114 OFFCURVE",
"248 151 CURVE SMOOTH",
"316 165 OFFCURVE",
"397 173 OFFCURVE",
"465 169 CURVE",
"396 92 OFFCURVE",
"324 25 OFFCURVE",
"250 -1 CURVE SMOOTH",
"166 -31 OFFCURVE",
"88 -21 OFFCURVE",
"66 -2 CURVE SMOOTH"
);
},
{
closed = 1;
nodes = (
"990 548 OFFCURVE",
"1002 546 OFFCURVE",
"994 553 CURVE SMOOTH",
"969 574 OFFCURVE",
"940 617 OFFCURVE",
"926 645 CURVE",
"926 646 OFFCURVE",
"925 647 OFFCURVE",
"923 647 CURVE SMOOTH",
"908 647 OFFCURVE",
"796 581 OFFCURVE",
"773 569 CURVE SMOOTH",
"770 567 OFFCURVE",
"762 550 OFFCURVE",
"772 550 CURVE SMOOTH",
"779 550 OFFCURVE",
"872 594 OFFCURVE",
"902 610 CURVE",
"912 601 OFFCURVE",
"970 548 OFFCURVE",
"982 548 CURVE SMOOTH"
);
}
);
width = 817;
}
);
},
{
color = 6;
glyphname = Acircumflexacute.001;
lastChange = "2021-04-19 22:33:14 +0000";
layers = (
{
hints = (
{
horizontal = 1;
place = "{356, 21}";
target = up;
type = BottomGhost;
},
{
horizontal = 1;
place = "{382, 21}";
target = up;
type = BottomGhost;
},
{
horizontal = 1;
place = "{483, -20}";
target = down;
type = TopGhost;
},
{
horizontal = 1;
place = "{509, -20}";
target = down;
type = TopGhost;
},
{
horizontal = 1;
place = "{509, 21}";
target = up;
type = BottomGhost;
},
{
horizontal = 1;
place = "{612, -20}";
target = down;
type = TopGhost;
},
{
horizontal = 1;
place = "{219, 21}";
target = up;
type = BottomGhost;
},
{
horizontal = 1;
place = "{245, 21}";
target = up;
type = BottomGhost;
},
{
horizontal = 1;
place = "{346, -20}";
target = down;
type = TopGhost;
},
{
horizontal = 1;
place = "{372, -20}";
target = down;
type = TopGhost;
},
{
horizontal = 1;
place = "{106, 21}";
target = up;
type = BottomGhost;
},
{
horizontal = 1;
place = "{132, 21}";
target = up;
type = BottomGhost;
},
{
horizontal = 1;
place = "{233, -20}";
target = down;
type = TopGhost;
},
{
horizontal = 1;
place = "{259, -20}";
target = down;
type = TopGhost;
},
{
horizontal = 1;
place = "{233.75, 91.8}";
type = Stem;
},
{
place = "{779.75, 196.35}";
type = Stem;
},
{
horizontal = 1;
place = "{261.805, 21}";
target = up;
type = BottomGhost;
},
{
horizontal = 1;
place = "{347.928, -20}";
target = down;
type = TopGhost;
},
{
horizontal = 1;
place = "{207.472, 21}";
target = up;
type = BottomGhost;
},
{
horizontal = 1;
place = "{293.708, -20}";
target = down;
type = TopGhost;
},
{
horizontal = 1;
place = "{529.486, 99.633}";
type = Stem;
},
{
horizontal = 1;
place = "{548.906, 99.633}";
type = Stem;
},
{
place = "{802.191, 132.563}";
type = Stem;
},
{
place = "{956.706, 132.563}";
type = Stem;
},
{
horizontal = 1;
place = "{517.926, 98.795}";
type = Stem;
},
{
place = "{817.394, 131.448}";
type = Stem;
},
{
horizontal = 1;
place = "{265.035, 21}";
target = up;
type = BottomGhost;
},
{
horizontal = 1;
place = "{366.471, -20}";
target = down;
type = TopGhost;
},
{
horizontal = 1;
place = "{646.108, 98.776}";
type = Stem;
},
{
place = "{821.433, 131.423}";
type = Stem;
}
);
layerId = "D7866281-830A-4E76-BB32-392A4BC3306E";
paths = (
{
closed = 1;
nodes = (
"337 22 OFFCURVE",
"410 91 OFFCURVE",
"480 168 CURVE",
"504 166 OFFCURVE",
"645 145 OFFCURVE",
"650 133 CURVE",
"651 127 OFFCURVE",
"656 126 OFFCURVE",
"655 135 CURVE SMOOTH",
"650 169 OFFCURVE",
"576 202 OFFCURVE",
"523 217 CURVE",
"600 305 OFFCURVE",
"667 397 OFFCURVE",
"765 461 CURVE SMOOTH",
"799 483 OFFCURVE",
"873 513 OFFCURVE",
"836 436 CURVE SMOOTH",
"785 328 OFFCURVE",
"719 227 OFFCURVE",
"661 122 CURVE SMOOTH",
"635 73 OFFCURVE",
"625 48 OFFCURVE",
"629 26 CURVE SMOOTH",
"636 -24 OFFCURVE",
"691 0 OFFCURVE",
"691 0 CURVE",
"686 15 OFFCURVE",
"713 65 OFFCURVE",
"738 111 CURVE SMOOTH",
"776 180 OFFCURVE",
"852 313 OFFCURVE",
"884 363 CURVE SMOOTH",
"980 510 OFFCURVE",
"866 542 OFFCURVE",
"759 477 CURVE SMOOTH",
"665 420 OFFCURVE",
"583 306 OFFCURVE",
"511 222 CURVE",
"432 243 OFFCURVE",
"302 241 OFFCURVE",
"218 224 CURVE SMOOTH",
"11 182 OFFCURVE",
"-44 63 OFFCURVE",
"30 -2 CURVE SMOOTH",
"59 -27 OFFCURVE",
"151 -51 OFFCURVE",
"253 -11 CURVE SMOOTH"
);
},
{
closed = 1;
nodes = (
"20 37 OFFCURVE",
"64 114 OFFCURVE",
"248 151 CURVE SMOOTH",
"316 165 OFFCURVE",
"397 173 OFFCURVE",
"465 169 CURVE",
"396 92 OFFCURVE",
"324 25 OFFCURVE",
"250 -1 CURVE SMOOTH",
"166 -31 OFFCURVE",
"88 -21 OFFCURVE",
"66 -2 CURVE SMOOTH"
);
},
{
closed = 1;
nodes = (
"967 530 OFFCURVE",
"969 530 OFFCURVE",
"969 531 CURVE",
"971 533 OFFCURVE",
"970 536 OFFCURVE",
"965 540 CURVE SMOOTH",
"955 547 OFFCURVE",
"915 616 OFFCURVE",
"908 626 CURVE",
"905 627 OFFCURVE",
"904 630 OFFCURVE",
"900 630 CURVE SMOOTH",
"892 631 OFFCURVE",
"881 626 OFFCURVE",
"872 620 CURVE SMOOTH",
"858 611 OFFCURVE",
"787 548 OFFCURVE",
"773 541 CURVE",
"766 539 OFFCURVE",
"765 536 OFFCURVE",
"765 536 CURVE",
"765 534 OFFCURVE",
"767 533 OFFCURVE",
"770 533 CURVE SMOOTH",
"775 533 OFFCURVE",
"782 535 OFFCURVE",
"793 539 CURVE",
"813 543 OFFCURVE",
"859 573 OFFCURVE",
"886 593 CURVE",
"904 572 OFFCURVE",
"930 545 OFFCURVE",
"945 538 CURVE",
"952 533 OFFCURVE",
"960 530 OFFCURVE",
"964 530 CURVE SMOOTH"
);
},
{
closed = 1;
nodes = (
"952 615 OFFCURVE",
"954 616 OFFCURVE",
"978 624 CURVE SMOOTH",
"998 631 OFFCURVE",
"1084 679 OFFCURVE",
"1086 689 CURVE",
"1086 689 OFFCURVE",
"1083 691 OFFCURVE",
"1082 691 CURVE",
"1063 699 OFFCURVE",
"1055 706 OFFCURVE",
"1045 699 CURVE SMOOTH",
"1021 682 OFFCURVE",
"979 646 OFFCURVE",
"950 627 CURVE SMOOTH",
"930 614 OFFCURVE",
"943 613 OFFCURVE",
"947 614 CURVE SMOOTH"
);
}
);
width = 817;
}
);
},
